<?xml version="1.0" encoding="utf-8" standalone="no"?>
<!DOCTYPE svg PUBLIC "-//W3C//DTD SVG 1.1//EN" "http://www.w3.org/Graphics/SVG/1.1/DTD/svg11.dtd">
<svg version="1.1" class="svg-plot" xmlns="http://www.w3.org/2000/svg" width="540.3pt" height="179pt" viewBox="-40.8 -14 540.3 179" preserveAspectRatio="xMidYMid"><rect x="-30.8" y="-4" width="520.3" height="159" class="svg-plot-bg"/><g class="svg-plot-group"><rect x="0" y="0" width="480" height="120" class="svg-plot-axis"/><line x1="0" x2="0" y1="0" y2="120" class="svg-plot-major"/><line x1="480" x2="480" y1="0" y2="120" class="svg-plot-minor"/><line x1="0" x2="480" y1="48" y2="48" class="svg-plot-major"/><line x1="0" x2="480" y1="108" y2="108" class="svg-plot-minor"/><clipPath id="clip0"><rect x="-0.75" y="-0.75" width="481.5" height="121.5"/></clipPath><g clip-path="url(#clip0)"><path class="svg-plot-line svg-plot-s3 svg-plot-d3" d="M 0 48 0.63 48.12 1.25 48.47 1.88 49.05 2.5 49.87 3.12 50.93 3.75 52.22 4.37 53.74 5 55.49 5.63 57.48 6.25 59.71 6.88 62.16 7.5 64.85 8.13 67.77 8.75 70.93 9.38 74.31 10 77.93 10.62 81.78 11.25 85.86 11.88 90.17 12.5 94.71 13.13 99.48 13.75 104.48 14.37 109.7 15 115.15 15.63 120.82 15.63 120.82 16.25 126.71 7843.75 122.32 7843.75 122.32 7844.37 119.59"/><path class="svg-plot-line svg-plot-s2 svg-plot-d2" d="M 0 48 7.5 92.88 11.25 115.13 11.88 118.81 12.5 122.47 1197.5 122.28 1197.5 122.28 1198.13 122.25"/><path class="svg-plot-line svg-plot-s1 svg-plot-d1" d="M 0 108 3.75 107.86 5.63 107.76 6.88 107.66 8.13 107.53 9.38 107.35 10 107.23 10.62 107.09 11.25 106.93 11.88 106.74 12.5 106.52 13.13 106.27 13.75 105.97 14.37 105.63 15 105.24 15.63 104.79 16.25 104.29 16.88 103.72 17.5 103.08 18.13 102.37 18.75 101.58 19.38 100.7 20 99.73 20.63 98.67 21.25 97.52 21.88 96.26 22.5 94.9 23.13 93.44 23.75 91.88 24.38 90.21 25 88.44 25.63 86.57 26.25 84.6 26.88 82.54 27.5 80.39 28.75 75.88 30 71.13 32.5 61.29 33.75 56.44 35 51.79 35.63 49.59 36.25 47.49 36.87 45.51 37.5 43.66 38.13 41.95 38.75 40.41 39.37 39.03 40 37.83 40.63 36.82 41.25 36 41.88 35.37 42.5 34.95 43.13 34.72 43.75 34.68 44.37 34.84 45 35.17 45.63 35.68 46.25 36.35 46.87 37.16 47.5 38.1 48.13 39.16 48.75 40.3 49.38 41.53 50.63 44.11 51.87 46.74 52.5 48.02 53.13 49.25 53.75 50.4 54.37 51.47 55 52.44 55.62 53.29 56.25 54.01 56.88 54.59 57.5 55.02 58.13 55.31 58.75 55.44 59.37 55.42 60 55.26 60.62 54.95 61.25 54.51 61.88 53.96 62.5 53.29 63.12 52.53 63.75 51.69 64.38 50.8 65.62 48.91 66.88 47 67.5 46.09 68.13 45.23 68.75 44.44 69.38 43.73 70 43.11 70.63 42.61 71.25 42.21 71.87 41.93 72.5 41.78 73.13 41.75 73.75 41.84 74.38 42.05 75 42.37 75.62 42.79 76.25 43.3 76.88 43.89 77.5 44.55 78.13 45.26 80 47.51 80.62 48.25 81.25 48.96 81.88 49.62 82.5 50.23 83.12 50.76 83.75 51.2 84.38 51.56 85 51.81 85.63 51.97 86.25 52.01 86.87 51.96 87.5 51.8 88.13 51.55 88.75 51.21 89.38 50.79 90 50.3 90.62 49.76 91.25 49.16 93.13 47.27 94.38 46.05 95 45.49 95.62 44.99 96.25 44.55 96.88 44.18 97.5 43.89 98.12 43.68 98.75 43.57 99.38 43.54 100 43.6 100.63 43.75 101.25 43.98 101.87 44.28 102.5 44.65 103.13 45.07 103.75 45.54 105 46.56 106.25 47.61 106.87 48.11 107.5 48.58 108.13 49.01 108.75 49.4 109.38 49.72 110 49.97 110.62 50.15 111.25 50.26 111.88 50.29 112.5 50.25 113.12 50.12 113.75 49.93 114.38 49.67 115 49.36 115.62 48.99 116.25 48.59 117.5 47.7 118.75 46.78 119.38 46.34 120 45.92 120.62 45.55 121.25 45.21 121.88 44.93 122.5 44.71 123.12 44.55 123.75 44.46 124.37 44.44 125 44.49 125.63 44.6 126.25 44.78 126.88 45.01 127.5 45.3 128.13 45.63 128.75 45.99 130 46.79 131.25 47.61 131.88 48 132.5 48.36 133.12 48.7 133.75 48.99 134.38 49.23 135 49.42 135.63 49.56 136.25 49.63 136.88 49.64 137.5 49.59 138.12 49.48 138.75 49.31 139.38 49.09 140 48.83 140.63 48.54 141.87 47.86 143.75 46.78 144.38 46.44 145 46.12 145.62 45.83 146.25 45.59 146.88 45.38 147.5 45.23 148.13 45.13 148.75 45.08 149.37 45.09 150 45.15 150.63 45.26 151.25 45.43 151.88 45.63 152.5 45.87 153.12 46.15 154.38 46.76 156.25 47.71 156.88 48 157.5 48.27 158.13 48.51 158.75 48.71 159.37 48.87 160 48.98 160.63 49.05 161.25 49.07 161.88 49.04 162.5 48.96 163.12 48.84 163.75 48.67 164.38 48.47 165 48.24 166.25 47.72 168.12 46.87 169.38 46.36 170 46.13 170.63 45.94 171.25 45.78 171.87 45.67 172.5 45.59 173.13 45.56 173.75 45.57 174.38 45.63 175 45.73 175.62 45.86 176.25 46.03 176.88 46.23 178.13 46.69 180.63 47.69 181.25 47.92 181.88 48.13 182.5 48.31 183.12 48.46 183.75 48.57 184.38 48.65 185 48.69 185.62 48.69 186.25 48.65 186.88 48.57 187.5 48.46 188.13 48.31 188.75 48.14 190 47.73 192.5 46.82 193.75 46.41 194.37 46.24 195 46.1 195.63 45.99 196.25 45.91 196.88 45.87 197.5 45.86 198.12 45.89 198.75 45.95 199.38 46.05 200 46.18 200.63 46.33 201.87 46.7 204.38 47.54 205.62 47.92 206.25 48.08 206.88 48.22 207.5 48.32 208.13 48.4 208.75 48.45 209.37 48.46 210 48.44 210.63 48.39 211.25 48.31 211.87 48.19 212.5 48.06 213.75 47.72 216.25 46.95 217.5 46.6 218.13 46.45 218.75 46.32 219.37 46.21 220 46.14 220.63 46.09 221.25 46.07 221.88 46.08 222.5 46.13 223.12 46.2 223.75 46.3 225 46.56 226.25 46.89 228.75 47.6 230 47.91 230.63 48.03 231.25 48.13 231.87 48.21 232.5 48.26 233.12 48.28 233.75 48.27 234.38 48.24 235 48.18 235.62 48.09 236.88 47.85 238.13 47.55 240.62 46.9 241.88 46.61 242.5 46.49 243.12 46.4 243.75 46.32 244.37 46.27 245 46.25 245.63 46.25 246.25 46.28 246.87 46.33 247.5 46.41 248.75 46.62 250 46.9 252.5 47.5 253.75 47.77 255 47.98 255.63 48.05 256.25 48.1 256.87 48.12 257.5 48.13 258.13 48.1 258.75 48.06 260 47.9 261.25 47.68 263.13 47.27 265 46.86 266.25 46.63 267.5 46.48 268.12 46.43 268.75 46.4 269.38 46.4 270 46.42 270.63 46.46 271.88 46.6 273.13 46.8 275 47.18 276.88 47.56 278.12 47.77 279.38 47.92 280 47.96 280.63 47.99 281.25 47.99 281.87 47.98 283.13 47.89 284.38 47.73 285.62 47.52 288.75 46.94 290 46.74 291.25 46.61 292.5 46.54 293.75 46.54 295 46.62 296.25 46.77 297.5 46.96 300.62 47.5 301.88 47.68 303.13 47.81 304.37 47.88 305.63 47.87 306.88 47.8 308.12 47.67 309.38 47.49 312.5 46.99 313.75 46.83 315 46.71 316.25 46.65 317.5 46.65 318.75 46.72 320 46.84 321.25 47 324.37 47.47 325.63 47.62 326.88 47.73 328.12 47.79 329.38 47.79 330.62 47.73 331.88 47.61 333.75 47.38 336.25 47.03 337.5 46.89 338.75 46.78 340 46.73 341.25 46.74 342.5 46.79 343.75 46.9 345.62 47.12 348.13 47.44 349.37 47.58 350.63 47.68 351.88 47.72 353.12 47.72 354.38 47.67 355.63 47.57 357.5 47.36 360 47.06 361.25 46.93 362.5 46.85 363.75 46.8 365 46.81 366.25 46.86 367.5 46.95 369.37 47.15 371.88 47.43 373.12 47.55 374.38 47.63 375.63 47.67 376.87 47.67 378.13 47.62 379.38 47.53 381.25 47.35 383.75 47.08 385 46.97 386.25 46.9 387.5 46.86 388.75 46.86 390 46.91 391.25 47 393.13 47.17 395.63 47.42 396.88 47.52 398.12 47.59 399.38 47.63 400.63 47.62 401.87 47.58 403.13 47.5 405 47.34 407.5 47.1 409.37 46.97 410.63 46.92 411.88 46.91 413.12 46.93 414.38 46.99 416.25 47.13 419.38 47.41 421.25 47.53 422.5 47.58 423.75 47.59 425 47.57 426.25 47.51 428.12 47.38 431.25 47.12 433.12 47 434.38 46.96 435.63 46.95 436.87 46.97 438.13 47.03 440 47.15 443.75 47.44 445.63 47.54 446.87 47.56 448.12 47.56 449.38 47.52 451.25 47.42 455 47.14 456.88 47.03 458.12 46.99 459.38 46.99 460.63 47.01 462.5 47.09 465 47.26 467.5 47.43 469.38 47.51 470.63 47.54 471.88 47.53 473.75 47.47 475.63 47.37 479.38 47.12 481.25 47.04 481.88 47.03 482.5 47.02"/><path class="svg-plot-line svg-plot-s0 svg-plot-d0" d="M 0 47.98 1.25 47.97 2.5 47.93 3.75 47.86 5 47.74 5.63 47.66 6.25 47.55 6.88 47.42 7.5 47.27 8.13 47.08 8.75 46.85 9.38 46.59 10 46.28 10.62 45.92 11.25 45.51 11.88 45.04 12.5 44.5 13.13 43.9 13.75 43.22 14.37 42.47 15 41.64 15.63 40.72 16.25 39.73 16.88 38.65 17.5 37.49 18.13 36.25 18.75 34.93 19.38 33.54 20 32.07 21.25 28.97 22.5 25.7 24.38 20.7 25.63 17.48 26.25 15.97 26.88 14.54 27.5 13.21 28.13 12.02 28.75 10.97 29.38 10.08 30 9.38 30.62 8.88 31.25 8.6 31.87 8.55 32.5 8.74 33.13 9.18 33.75 9.88 34.38 10.85 35 12.07 35.63 13.56 36.25 15.3 36.87 17.28 37.5 19.49 38.13 21.92 38.75 24.53 39.37 27.31 40 30.23 41.25 36.38 43.13 45.83 43.75 48.9 44.37 51.87 45 54.7 45.63 57.36 46.25 59.81 46.87 62.03 47.5 63.98 48.13 65.64 48.75 66.99 49.38 68.02 50 68.72 50.63 69.07 51.25 69.08 51.87 68.75 52.5 68.1 53.13 67.13 53.75 65.87 54.37 64.34 55 62.57 55.62 60.59 56.25 58.45 56.88 56.17 58.13 51.38 59.37 46.57 60 44.26 60.62 42.07 61.25 40.04 61.88 38.2 62.5 36.59 63.12 35.22 63.75 34.13 64.38 33.32 65 32.81 65.62 32.61 66.25 32.71 66.88 33.11 67.5 33.79 68.13 34.74 68.75 35.94 69.38 37.35 70 38.95 70.63 40.71 71.25 42.57 73.13 48.46 73.75 50.38 74.38 52.21 75 53.93 75.62 55.48 76.25 56.85 76.88 58.01 77.5 58.93 78.13 59.6 78.75 60.01 79.38 60.16 80 60.04 80.62 59.65 81.25 59.03 81.88 58.17 82.5 57.1 83.12 55.85 83.75 54.44 84.38 52.92 85.63 49.65 86.87 46.33 87.5 44.75 88.13 43.27 88.75 41.91 89.38 40.71 90 39.69 90.62 38.87 91.25 38.27 91.87 37.9 92.5 37.77 93.13 37.86 93.75 38.19 94.38 38.73 95 39.47 95.62 40.4 96.25 41.49 96.88 42.71 97.5 44.02 98.75 46.84 100 49.66 100.63 51 101.25 52.24 101.87 53.36 102.5 54.33 103.13 55.13 103.75 55.76 104.38 56.18 105 56.4 105.62 56.42 106.25 56.23 106.87 55.85 107.5 55.28 108.13 54.54 108.75 53.65 109.38 52.64 110 51.53 111.25 49.11 112.5 46.66 113.12 45.49 113.75 44.39 114.38 43.4 115 42.53 115.62 41.81 116.25 41.25 116.87 40.86 117.5 40.65 118.13 40.63 118.75 40.79 119.38 41.12 120 41.62 120.62 42.27 121.25 43.06 121.88 43.96 122.5 44.94 123.75 47.09 125 49.27 125.63 50.32 126.25 51.29 126.88 52.17 127.5 52.93 128.13 53.57 128.75 54.06 129.37 54.39 130 54.56 130.63 54.56 131.25 54.41 131.88 54.09 132.5 53.62 133.12 53.03 133.75 52.31 134.38 51.49 135 50.6 136.25 48.67 137.5 46.72 138.12 45.8 138.75 44.94 139.38 44.17 140 43.51 140.63 42.97 141.25 42.56 141.87 42.3 142.5 42.18 143.13 42.21 143.75 42.38 144.38 42.7 145 43.15 145.62 43.71 146.25 44.38 146.88 45.13 147.5 45.94 149.37 48.55 150 49.4 150.63 50.2 151.25 50.94 151.88 51.59 152.5 52.14 153.12 52.58 153.75 52.9 154.38 53.08 155 53.14 155.62 53.06 156.25 52.85 156.88 52.52 157.5 52.07 158.13 51.53 158.75 50.9 159.37 50.2 160.63 48.69 161.88 47.13 162.5 46.39 163.12 45.71 163.75 45.09 164.38 44.55 165 44.11 165.63 43.77 166.25 43.55 166.88 43.45 167.5 43.47 168.12 43.61 168.75 43.86 169.38 44.21 170 44.66 170.63 45.2 171.25 45.8 171.87 46.45 173.75 48.53 174.38 49.21 175 49.85 175.62 50.43 176.25 50.94 176.88 51.37 177.5 51.7 178.13 51.94 178.75 52.06 179.37 52.08 180 51.99 180.63 51.8 181.25 51.51 181.88 51.12 182.5 50.66 183.12 50.14 183.75 49.56 185 48.31 186.25 47.06 186.88 46.47 187.5 45.93 188.13 45.44 188.75 45.04 189.37 44.71 190 44.47 190.63 44.33 191.25 44.29 191.88 44.34 192.5 44.5 193.12 44.74 193.75 45.07 194.37 45.48 195 45.94 195.63 46.46 196.88 47.59 198.12 48.74 198.75 49.29 199.38 49.8 200 50.25 200.63 50.64 201.25 50.96 201.87 51.2 202.5 51.35 203.12 51.4 203.75 51.37 204.38 51.25 205 51.04 205.62 50.75 206.25 50.4 206.88 49.98 207.5 49.51 208.75 48.48 210 47.42 210.63 46.91 211.25 46.43 211.87 46 212.5 45.63 213.12 45.32 213.75 45.09 214.38 44.94 215 44.87 215.62 44.88 216.25 44.98 216.88 45.15 217.5 45.41 218.13 45.72 218.75 46.1 219.37 46.52 220.63 47.47 221.88 48.45 222.5 48.92 223.12 49.37 223.75 49.77 224.37 50.13 225 50.42 225.63 50.65 226.25 50.81 226.88 50.89 227.5 50.89 228.12 50.81 228.75 50.66 229.38 50.44 230 50.16 230.63 49.82 231.25 49.44 232.5 48.57 234.38 47.22 235 46.81 235.62 46.42 236.25 46.09 236.88 45.81 237.5 45.58 238.13 45.43 238.75 45.34 239.37 45.33 240 45.39 240.62 45.51 241.25 45.71 241.88 45.96 242.5 46.26 243.12 46.61 243.75 47 245.63 48.24 246.87 49.04 247.5 49.4 248.12 49.72 248.75 49.99 249.38 50.2 250 50.36 250.62 50.44 251.25 50.47 251.88 50.42 252.5 50.32 253.13 50.15 253.75 49.92 254.37 49.65 255 49.33 255.63 48.98 256.87 48.22 258.13 47.45 258.75 47.09 259.38 46.75 260 46.45 260.62 46.2 261.25 45.99 261.88 45.84 262.5 45.75 263.13 45.72 263.75 45.76 264.37 45.85 265 46 265.63 46.2 266.25 46.45 266.88 46.74 267.5 47.06 268.75 47.75 270 48.47 270.63 48.8 271.25 49.12 271.88 49.4 272.5 49.64 273.13 49.83 273.75 49.98 274.37 50.06 275 50.1 275.63 50.07 276.25 49.99 276.88 49.86 277.5 49.68 278.12 49.45 278.75 49.19 280 48.58 281.87 47.6 283.13 46.99 283.75 46.73 284.38 46.51 285 46.32 285.62 46.19 286.25 46.1 286.88 46.07 287.5 46.09 288.13 46.15 288.75 46.27 289.37 46.44 290 46.64 290.63 46.88 291.88 47.44 293.75 48.35 295 48.91 295.63 49.16 296.25 49.37 296.87 49.54 297.5 49.67 298.13 49.75 298.75 49.78 299.38 49.77 300 49.71 300.62 49.6 301.25 49.45 301.88 49.26 302.5 49.04 303.75 48.53 305.63 47.69 306.88 47.17 307.5 46.94 308.12 46.74 308.75 46.58 309.38 46.46 310 46.38 310.63 46.35 311.25 46.36 311.88 46.42 312.5 46.52 313.12 46.65 313.75 46.83 314.38 47.03 315.63 47.51 318.13 48.54 318.75 48.77 319.38 48.98 320 49.16 320.62 49.31 321.25 49.42 321.88 49.5 322.5 49.53 323.13 49.52 323.75 49.47 324.37 49.38 325 49.25 325.63 49.09 326.25 48.9 327.5 48.46 330 47.5 330.62 47.29 331.25 47.09 331.88 46.92 332.5 46.78 333.13 46.68 333.75 46.61 334.37 46.58 335 46.59 335.63 46.64 336.25 46.72 336.88 46.84 337.5 46.99 338.12 47.17 339.38 47.58 341.87 48.47 343.13 48.85 343.75 49.01 344.38 49.14 345 49.23 345.62 49.3 346.25 49.32 346.88 49.31 347.5 49.27 348.13 49.19 348.75 49.08 349.37 48.94 350.63 48.59 352.5 47.97 353.75 47.56 355 47.2 355.63 47.06 356.25 46.94 356.87 46.85 357.5 46.79 358.13 46.76 358.75 46.77 359.38 46.82 360 46.89 360.62 47 361.25 47.13 362.5 47.45 364.37 48.03 365.63 48.42 366.88 48.75 367.5 48.89 368.12 49 368.75 49.08 369.37 49.14 370 49.16 370.63 49.15 371.25 49.11 371.88 49.04 372.5 48.94 373.12 48.81 374.38 48.51 376.87 47.78 378.13 47.44 379.38 47.16 380 47.06 380.62 46.98 381.25 46.93 381.88 46.91 382.5 46.92 383.13 46.96 383.75 47.03 384.37 47.12 385.63 47.38 386.87 47.69 389.38 48.38 390.62 48.67 391.25 48.79 391.88 48.89 392.5 48.96 393.13 49.01 393.75 49.02 394.37 49.01 395 48.98 395.63 48.91 396.25 48.82 397.5 48.58 398.75 48.28 401.25 47.64 402.5 47.36 403.13 47.25 403.75 47.16 404.38 47.09 405 47.05 405.62 47.04 406.25 47.05 406.88 47.08 407.5 47.14 408.12 47.23 409.37 47.45 410.63 47.74 413.12 48.35 414.38 48.6 415.63 48.79 416.25 48.86 416.87 48.9 417.5 48.91 418.13 48.9 418.75 48.87 419.38 48.81 420.62 48.63 421.88 48.38 424.37 47.81 425.62 47.54 426.88 47.33 427.5 47.25 428.12 47.19 428.75 47.15 429.37 47.14 430 47.15 430.63 47.18 431.25 47.24 432.5 47.41 433.75 47.64 436.25 48.18 437.5 48.44 438.75 48.64 440 48.77 440.62 48.8 441.25 48.81 441.88 48.8 442.5 48.77 443.75 48.65 445 48.45 446.25 48.21 448.75 47.7 450 47.48 451.25 47.32 451.88 47.27 452.5 47.24 453.13 47.23 453.75 47.24 455 47.32 456.25 47.47 457.5 47.68 460.63 48.29 461.87 48.49 463.13 48.64 464.37 48.72 465.62 48.72 466.88 48.64 468.12 48.5 469.38 48.3 472.5 47.73 473.75 47.53 475 47.39 476.25 47.32 477.5 47.32 478.75 47.39 480 47.53 481.25 47.72 481.88 47.82 482.5 47.93"/></g></g><g class="svg-plot-group"><line x1="0" x2="0" y1="120" y2="124" class="svg-plot-tick"/><line x1="480" x2="480" y1="120" y2="124" class="svg-plot-tick"/><line x1="0" x2="-4" y1="48" y2="48" class="svg-plot-tick"/><line x1="0" x2="-4" y1="108" y2="108" class="svg-plot-tick"/><text class="svg-plot-label svg-plot-t" x="0" y="0" transform="rotate(-90) translate(-59 -25.8)">response (48kHz)</text><text class="svg-plot-value" style="text-anchor:end" x="-9" y="107">-1</text><text class="svg-plot-value" style="text-anchor:end" x="-9" y="47">0</text><text class="svg-plot-label svg-plot-t" x="240" y="149">time</text><text class="svg-plot-value" x="480" y="133">1ms</text><text class="svg-plot-value" x="0" y="133">0</text><rect x="298.28" y="4" width="177.72" height="67.6" class="svg-plot-legend"/><line x1="303.28" x2="321.28" y1="16.2" y2="16.2" class="svg-plot-line svg-plot-l0 svg-plot-s0 svg-plot-d0"/><line x1="303.28" x2="321.28" y1="30.6" y2="30.6" class="svg-plot-line svg-plot-l1 svg-plot-s1 svg-plot-d1"/><line x1="303.28" x2="321.28" y1="45" y2="45" class="svg-plot-line svg-plot-l2 svg-plot-s2 svg-plot-d2"/><line x1="303.28" x2="321.28" y1="59.4" y2="59.4" class="svg-plot-line svg-plot-l3 svg-plot-s3 svg-plot-d3"/><text class="svg-plot-label svg-plot-l3" style="text-anchor:start" x="326.28" y="58.2">3rd-order BLEP</text><text class="svg-plot-label svg-plot-l2" style="text-anchor:start" x="326.28" y="43.8">2nd-order BLEP (BLAMP)</text><text class="svg-plot-label svg-plot-l1" style="text-anchor:start" x="326.28" y="29.4">1st-order BLEP</text><text class="svg-plot-label svg-plot-l0" style="text-anchor:start" x="326.28" y="15">impulse</text></g><defs><g id="svg-plot-marker0" class="svg-plot-marker"><circle cx="0" cy="0" r="1" stroke="none"/></g><g id="svg-plot-marker1" class="svg-plot-marker"><path d="M0 0.9 -0.9 0 0 -0.9 0.9 0Z" fill="#FFFA" stroke-linejoin="miter" stroke-width="0.5"/></g><g id="svg-plot-marker2" class="svg-plot-marker"><path fill="none" d="M0 -1.2 0 1.2 M -1.2 0 1.2 0" stroke-width="0.6"/></g><g id="svg-plot-marker3" class="svg-plot-marker"><circle cx="0" cy="0" fill="#FFFA" r="0.82" stroke-width="0.55"/></g><g id="svg-plot-marker4" class="svg-plot-marker"><path stroke="none" d="M0 -1.25 1.25 0.9 -1.25 0.9Z"/></g><mask id="svg-plot-hatch1"><rect x="-693" y="-693" width="1386" height="1386" fill="url(#svg-plot-hatch1-pattern)" style="transform:rotate(-50deg)"/></mask><pattern patternUnits="userSpaceOnUse" id="svg-plot-hatch1-pattern" class="svg-plot-hatch" x="0" y="0" width="10" height="3"><line x1="-1" x2="11" y1="1.5" y2="1.5" stroke="#FFF" fill="none"/><rect x="-1" y="-1" width="12" height="12" fill="#FFF2" stroke="none"/></pattern><mask id="svg-plot-hatch2"><rect x="-693" y="-693" width="1386" height="1386" fill="url(#svg-plot-hatch2-pattern)" style="transform:rotate(30deg)"/></mask><pattern patternUnits="userSpaceOnUse" id="svg-plot-hatch2-pattern" class="svg-plot-hatch" x="0" y="0" width="10" height="2.4"><line x1="-1" x2="11" y1="1.2" y2="1.2" stroke="#FFF" fill="none"/><rect x="-1" y="-1" width="12" height="12" fill="#FFF2" stroke="none"/></pattern><mask id="svg-plot-hatch3"><rect x="-693" y="-693" width="1386" height="1386" fill="url(#svg-plot-hatch3-pattern)" style="transform:rotate(8deg)"/><rect x="-693" y="-693" width="1386" height="1386" fill="url(#svg-plot-hatch3-pattern)" style="transform:rotate(93deg)"/></mask><pattern patternUnits="userSpaceOnUse" id="svg-plot-hatch3-pattern" class="svg-plot-hatch" x="0" y="0" width="10" height="3"><line x1="-1" x2="11" y1="1.5" y2="1.5" stroke="#FFF" fill="none"/><rect x="-1" y="-1" width="12" height="12" fill="#FFF2" stroke="none"/></pattern></defs><style>@import"/style/svg-plot/style.css";.svg-plot{stroke-linecap:butt;stroke-linejoin:round;}.svg-plot-bg{fill:none;stroke:none;}.svg-plot-axis{stroke:none;fill:#FFFFFFD9;}.svg-plot-legend{stroke:none;fill:#FFFFFFE4;}.svg-plot-line{stroke:blue;fill:none;stroke-width:1.5px;stroke-linejoin:round;}.svg-plot-fill{stroke:none;opacity:0.35;}.svg-plot-major{stroke:#000;stroke-width:1px;stroke-linecap:square;fill:none;}.svg-plot-minor{stroke:#0000004D;stroke-width:0.5px;stroke-dasharray:0.5 1.5;stroke-linecap:round;fill:none;}.svg-plot-tick{stroke:#000;fill:none;stroke-width:1px;stroke-linecap:butt;}.svg-plot-value,.svg-plot-label{font-family:Arial,sans-serif;fill:#000;stroke:#FFFFFF48;stroke-width:2.5px;paint-order:stroke fill;text-anchor:middle;dominant-baseline:central;alignment-baseline:baseline;}.svg-plot-label{font-size:12px;}.svg-plot-value{font-size:10px;}.svg-plot-hatch{stroke:#FFF;stroke-width:1px;}.svg-plot-marker{transform:scale(3.25);}.svg-plot-s{stroke:#000;}.svg-plot-f,.svg-plot-t{fill:#000;}.svg-plot-s0{stroke:#007AB0}.svg-plot-f0,.svg-plot-t0{fill:#007AB0}.svg-plot-s1{stroke:#BB102B}.svg-plot-f1,.svg-plot-t1{fill:#BB102B}.svg-plot-s2{stroke:#44A730}.svg-plot-f2,.svg-plot-t2{fill:#44A730}.svg-plot-s3{stroke:#87694F}.svg-plot-f3,.svg-plot-t3{fill:#87694F}.svg-plot-s4{stroke:#EDA720}.svg-plot-f4,.svg-plot-t4{fill:#EDA720}.svg-plot-s5{stroke:#A64D99}.svg-plot-f5,.svg-plot-t5{fill:#A64D99}.svg-plot-d0{stroke-width:1.35px}.svg-plot-d1{stroke-dasharray:1.8 1.8}.svg-plot-d2{stroke-dasharray:4.2 2.4}.svg-plot-d3{stroke-dasharray:7.5 6}.svg-plot-d4{stroke-dasharray:6 1.5 1.5 1.5 1.5 1.5}.svg-plot-d5{stroke-dasharray:15 4.5}.svg-plot-d6{stroke-dasharray:6 3 1.5 3}.svg-plot-h0{opacity:0.175}.svg-plot-h1{mask:url(#svg-plot-hatch1)}.svg-plot-h2{mask:url(#svg-plot-hatch2)}.svg-plot-h3{mask:url(#svg-plot-hatch3)}#svg-plot-hatch2-pattern{stroke-width:0.9px}#svg-plot-hatch3-pattern{stroke-width:0.7px}svg{font-family:"Transport New",Arial,sans-serif;font-weight:300;}.svg-plot-label,.svg-plot-value{font-family:inherit;}.svg-plot-fill:hover{opacity:55%;}.svg-plot-h0{opacity:15%;}.svg-plot-fill.svg-plot-h0:hover{opacity:20%;}.svg-plot-fill.svg-plot-f0{fill:#005AB0;}text.svg-plot-f0{fill:#006AA0;}.svg-plot-fill.svg-plot-f4{fill:#EDB410;}</style><script href="/style/svg-plot/style.js"/></svg>