<?xml version="1.0" encoding="utf-8" standalone="no"?>
<!DOCTYPE svg PUBLIC "-//W3C//DTD SVG 1.1//EN" "http://www.w3.org/Graphics/SVG/1.1/DTD/svg11.dtd">
<svg version="1.1" class="svg-plot" xmlns="http://www.w3.org/2000/svg" width="544pt" height="546pt" viewBox="-10 -10 544 546" preserveAspectRatio="xMidYMid"><rect x="-10" y="-10" width="544" height="546" class="svg-plot-bg"/><g transform="translate(40 14)"><g class="svg-plot-group"><rect x="0" y="0" width="480" height="250" class="svg-plot-axis"/><line x1="0" x2="0" y1="0" y2="250" class="svg-plot-major"/><line x1="369.231" x2="369.231" y1="0" y2="250" class="svg-plot-minor"/><line x1="443.077" x2="443.077" y1="0" y2="250" class="svg-plot-minor"/><line x1="0" x2="480" y1="11.3636" y2="11.3636" class="svg-plot-major"/><line x1="0" x2="480" y1="79.5455" y2="79.5455" class="svg-plot-minor"/><line x1="0" x2="480" y1="147.727" y2="147.727" class="svg-plot-minor"/><line x1="0" x2="480" y1="215.909" y2="215.909" class="svg-plot-minor"/><clipPath id="clip0"><rect x="-0.75" y="-0.75" width="481.5" height="251.5"/></clipPath><g clip-path="url(#clip0)"><path class="svg-plot-line svg-plot-s3 svg-plot-d3" d="M 0 -220.31 0 -220.31 14.66 -2.28 15.44 0.81 16.25 3.85 17.09 6.83 17.96 9.76 18.85 12.63 19.74 15.38 20.66 18.08 21.61 20.73 22.58 23.35 23.58 25.92 24.61 28.45 25.66 30.94 26.75 33.39 27.85 35.8 28.99 38.18 30.15 40.51 31.34 42.81 32.56 45.07 33.8 47.3 35.08 49.49 36.37 51.65 37.7 53.78 39.05 55.87 40.43 57.93 41.84 59.96 43.3 62 44.78 64.01 46.3 65.99 47.84 67.93 49.44 69.88 51.06 71.8 52.71 73.69 54.41 75.58 56.14 77.44 57.9 79.27 59.71 81.1 61.55 82.9 63.44 84.7 65.39 86.49 67.36 88.25 69.39 90.01 71.48 91.76 73.58 93.48 75.75 95.19 77.97 96.89 80.24 98.59 82.56 100.27 84.94 101.95 87.38 103.61 89.86 105.26 92.43 106.92 95.06 108.56 97.76 110.21 100.52 111.84 103.36 113.48 106.28 115.11 109.28 116.75 112.39 118.39 115.58 120.04 118.88 121.69 122.29 123.35 125.81 125.02 129.43 126.7 133.16 128.38 137 130.07 140.95 131.76 145.01 133.45 149.17 135.14 153.42 136.83 157.72 138.49 162.07 140.13 166.45 141.73 170.86 143.31 175.29 144.85 179.73 146.35 184.19 147.81 188.71 149.26 193.28 150.67 197.93 152.07 202.69 153.46 207.64 154.86 212.83 156.29 218.43 157.79 224.62 159.4 231.79 161.22 240.55 163.41 250.45 165.83 258.86 167.85 265.56 169.43 271.33 170.74 276.54 171.89 281.52 172.95 286.52 173.97 291.91 175.03 298.88 176.35 309.89 178.42 316.3 179.66 327.06 181.8 331.23 182.59 334.74 183.22 338.18 183.79 342.34 184.44 347.91 185.3 350.72 185.77 353.35 186.25 357.38 187.05 359.81 187.52 361.51 187.8 363.03 188.02 364.79 188.23 366.6 188.44 367.44 188.57 368.09 188.71 368.63 188.87 369.11 189.05 369.55 189.25 369.95 189.48 370.36 189.76 370.74 190.06 371.11 190.42 371.49 190.84 371.87 191.32 372.25 191.86 372.66 192.52 373.06 193.25 373.49 194.12 373.95 195.14 374.44 196.32 374.98 197.73 375.6 199.48 376.33 201.67 377.23 204.49 378.52 208.75 381.55 218.83 383.2 224.18 384.74 229.05 386.29 233.8 387.88 238.57 389.53 243.39 391.26 248.31 392.67 252.23 392.7 252.31 13785.8 252.31 13785.8 252.31 13785.8 252.23"/><path class="svg-plot-line svg-plot-s2 svg-plot-d2" d="M 0 442.25 0 442.25 0 442.25 0 442.25 0.03 -91.49 13.06 -2.28 13.82 -0.05 14.6 2.13 15.41 4.27 16.25 6.36 17.12 8.41 17.98 10.36 18.88 12.28 19.8 14.16 20.74 16.01 21.72 17.83 22.72 19.61 23.74 21.36 24.83 23.12 25.93 24.85 27.07 26.55 28.23 28.22 29.42 29.85 30.67 31.5 31.94 33.11 33.24 34.69 34.59 36.27 35.97 37.82 37.37 39.34 38.83 40.86 40.32 42.35 41.86 43.84 43.46 45.32 45.08 46.78 46.76 48.23 48.49 49.67 50.25 51.08 52.06 52.49 53.92 53.89 55.84 55.27 57.82 56.65 59.85 58.02 61.93 59.37 64.09 60.73 66.31 62.07 68.58 63.4 70.93 64.73 73.34 66.05 75.83 67.36 78.37 68.66 80.99 69.95 83.7 71.24 86.48 72.52 89.35 73.8 92.33 75.08 95.41 76.36 98.57 77.63 101.87 78.91 105.28 80.19 108.82 81.48 112.5 82.77 116.34 84.08 120.34 85.4 124.53 86.74 128.92 88.1 133.49 89.47 138.25 90.86 143.17 92.25 148.25 93.65 153.44 95.03 158.69 96.39 163.96 97.71 169.24 99 174.48 100.23 179.7 101.42 184.92 102.56 190.14 103.67 195.44 104.75 200.88 105.82 206.53 106.88 212.59 107.99 219.35 109.17 227.54 110.57 240.25 112.68 257.42 115.5 265.73 116.82 272.11 117.81 277.73 118.63 283.09 119.38 288.58 120.11 295.02 120.91 307.67 122.46 313.59 123.22 320.06 124.09 328.31 125.22 332.33 125.73 335.88 126.14 339.5 126.52 346.69 127.21 349.72 127.53 352.29 127.85 355.11 128.23 359.3 128.82 361.08 129.04 362.62 129.19 364.25 129.3 366.52 129.44 367.38 129.52 368.03 129.63 368.57 129.75 369.06 129.9 369.49 130.07 369.9 130.27 370.3 130.52 370.68 130.8 371.06 131.13 371.44 131.52 371.82 131.97 372.2 132.48 372.58 133.06 372.98 133.76 373.41 134.59 373.87 135.57 374.36 136.7 374.9 138.07 375.5 139.7 376.2 141.75 377.04 144.33 378.2 148.06 381.39 158.52 383.04 163.8 384.58 168.61 386.12 173.28 387.69 177.91 389.31 182.58 391.02 187.36 392.83 192.32 394.78 197.53 396.89 203.06 399.21 209.04 401.86 215.74 405.11 223.83 411.57 239.76 415.66 249.87 416.6 252.23 416.63 252.3 13761.8 252.3 13761.8 252.3 13761.9 252.23"/><path class="svg-plot-line svg-plot-s1 svg-plot-d1" d="M 0 367.05 0 367.05 0 367.05 0.03 37.34 0.05 9.97 0.08 -6.03 9.25 -2.27 9.9 -0.93 10.57 0.38 11.28 1.65 12.01 2.89 12.76 4.1 13.55 5.28 14.39 6.46 15.25 7.62 16.14 8.75 17.09 9.87 18.06 10.97 19.07 12.04 20.12 13.11 21.23 14.17 22.36 15.2 23.55 16.23 24.8 17.26 26.1 18.27 27.45 19.27 28.86 20.27 30.32 21.25 31.83 22.22 33.43 23.19 35.08 24.15 36.81 25.11 38.62 26.07 40.48 27.01 42.43 27.95 44.46 28.88 46.6 29.81 48.81 30.74 51.11 31.66 53.52 32.58 56.01 33.48 58.6 34.38 61.31 35.28 64.12 36.17 67.07 37.06 70.12 37.94 73.31 38.81 76.61 39.68 80.08 40.54 83.67 41.4 87.43 42.25 91.38 43.1 95.52 43.96 99.9 44.82 104.52 45.69 109.44 46.57 114.74 47.48 120.45 48.41 126.67 49.39 133.43 50.41 140.73 51.47 148.41 52.55 156.15 53.59 163.67 54.56 170.86 55.46 177.76 56.27 184.41 57.02 190.98 57.72 197.61 58.38 204.53 59.03 212.15 59.71 221.73 60.51 242.88 62.24 262.35 63.9 270.7 64.58 277.14 65.07 283.06 65.49 289.15 65.87 297.18 66.33 306.72 66.86 312.27 67.22 317.76 67.61 328.14 68.39 332.33 68.67 335.96 68.88 339.69 69.05 346.91 69.33 349.83 69.47 352.35 69.64 355.11 69.86 359.32 70.23 361.11 70.34 362.65 70.41 364.27 70.43 366.52 70.44 367.38 70.48 368.03 70.55 368.57 70.65 369.06 70.77 369.49 70.92 369.9 71.1 370.28 71.31 370.66 71.57 371.03 71.87 371.41 72.24 371.79 72.66 372.17 73.15 372.55 73.71 372.95 74.38 373.39 75.18 373.85 76.13 374.33 77.23 374.85 78.5 375.44 80.08 376.12 82 376.93 84.45 378.04 87.93 381.2 98.13 382.88 103.43 384.42 108.17 385.93 112.7 387.5 117.27 389.13 121.87 390.83 126.57 392.61 131.38 394.53 136.44 396.62 141.81 398.92 147.62 401.51 154.07 404.65 161.74 409.62 173.78 414.76 186.21 417.79 193.64 420.28 199.84 422.44 205.33 424.39 210.38 426.17 215.12 427.82 219.61 429.34 223.84 430.75 227.89 432.07 231.83 433.31 235.65 434.48 239.35 435.56 242.92 436.59 246.44 437.56 249.93 438.18 252.24 438.21 252.34 13740.2 252.34 13740.2 252.34 13740.3 252.24"/><path class="svg-plot-line svg-plot-s0 svg-plot-d0" d="M 0 235.72 0.05 125.14 0.11 84.08 0.19 51.11 0.27 31.22 0.35 19.76 0.41 15.81 0.46 13.71 0.51 12.64 0.57 12.08 0.62 11.79 0.68 11.62 0.76 11.5 0.84 11.44 0.97 11.39 1.24 11.37 2.79 11.36 16.23 11.39 37.1 11.49 55.82 11.57 69.01 11.59 81.97 11.57 98.6 11.49 120.42 11.39 132.62 11.37 144.25 11.39 158.5 11.46 179.38 11.57 190.2 11.59 200.36 11.58 212.42 11.51 230.46 11.39 239.36 11.37 247.66 11.39 257.53 11.46 272.03 11.58 279.22 11.6 285.87 11.58 293.66 11.51 304.83 11.4 310.27 11.38 315.24 11.4 321.06 11.48 329.47 11.6 333.52 11.62 337.2 11.6 341.45 11.53 347.34 11.42 350.13 11.4 352.62 11.43 355.43 11.5 359.41 11.63 361.19 11.64 362.73 11.62 364.38 11.55 366.54 11.45 367.38 11.45 368.03 11.48 368.57 11.54 369.06 11.64 369.49 11.77 369.9 11.93 370.28 12.12 370.66 12.35 371.03 12.64 371.39 12.96 371.74 13.33 372.12 13.79 372.49 14.31 372.9 14.95 373.31 15.67 373.74 16.52 374.2 17.51 374.71 18.72 375.28 20.18 375.93 21.96 376.69 24.17 377.69 27.23 379.44 32.79 381.72 39.98 383.31 44.9 384.83 49.44 386.34 53.86 387.91 58.32 389.53 62.81 391.23 67.4 393.05 72.16 394.99 77.17 397.1 82.48 399.46 88.29 402.13 94.78 405.49 102.81 413.28 121.28 416.52 129.06 419.06 135.25 421.25 140.68 423.2 145.62 424.96 150.18 426.58 154.49 428.07 158.56 429.45 162.44 430.75 166.21 431.96 169.87 433.1 173.41 434.15 176.83 435.15 180.21 436.07 183.45 436.94 186.64 437.75 189.79 438.51 192.88 439.24 196.03 439.91 199.12 440.53 202.16 441.13 205.26 441.67 208.28 442.18 211.38 442.67 214.57 443.13 217.85 443.54 221.03 443.94 224.54 444.32 228.2 444.67 232 445 235.96 445.32 240.43 445.73 246.69 446.05 251.66 446.08 252.02 446.11 252.37 446.86 252.34 447.21 248.09 447.57 243.99 447.86 241 448.13 238.64 448.43 236.4 448.73 234.47 449.03 232.79 449.32 231.32 449.65 229.92 449.97 228.7 450.3 227.62 450.62 226.68 450.95 225.84 451.3 225.05 451.65 224.35 452 223.74 452.35 223.21 452.7 222.75 453.06 222.35 453.41 222 453.76 221.71 454.14 221.45 454.52 221.23 454.89 221.06 455.27 220.94 455.68 220.85 456.08 220.8 456.52 220.78 456.95 220.81 457.41 220.89 457.87 221 458.36 221.16 458.87 221.37 459.41 221.64 459.98 221.97 460.57 222.37 461.2 222.83 461.84 223.36 462.52 223.98 463.22 224.67 463.93 225.43 464.66 226.27 465.41 227.2 466.17 228.2 466.96 229.3 467.74 230.47 468.55 231.76 469.36 233.12 470.17 234.57 470.99 236.1 471.77 237.67 472.55 239.32 473.31 241.01 474.07 242.8 474.8 244.63 475.53 246.57 476.23 248.55 476.91 250.57 477.42 252.2 477.45 252.29 517.01 252.25 517.01 252.25 517.04 252.21"/></g></g></g><g transform="translate(40 297)"><g class="svg-plot-group"><rect x="0" y="0" width="480" height="80" class="svg-plot-axis"/><line x1="0" x2="0" y1="0" y2="80" class="svg-plot-major"/><line x1="369.231" x2="369.231" y1="0" y2="80" class="svg-plot-minor"/><line x1="443.077" x2="443.077" y1="0" y2="80" class="svg-plot-minor"/><line x1="0" x2="480" y1="26.6667" y2="26.6667" class="svg-plot-major"/><line x1="0" x2="480" y1="53.3333" y2="53.3333" class="svg-plot-minor"/><clipPath id="clip1"><rect x="-0.75" y="-0.75" width="481.5" height="81.5"/></clipPath><g clip-path="url(#clip1)"><path class="svg-plot-line svg-plot-s3 svg-plot-d3" d="M0 0"/><path class="svg-plot-line svg-plot-s2 svg-plot-d2" d="M0 0"/><path class="svg-plot-line svg-plot-s1 svg-plot-d1" d="M0 0"/><path class="svg-plot-line svg-plot-s0 svg-plot-d0" d="M 0 26350.8 0 26350.8 0.59 91.01 0.65 65.27 0.7 50.7 0.78 39.2 0.87 33.63 0.95 30.73 1.03 29.15 1.11 28.24 1.19 27.7 1.27 27.36 1.35 27.15 1.46 26.98 1.57 26.87 1.7 26.8 1.89 26.76 2.19 26.74 2.73 26.75 3.7 26.83 4.89 26.97 6.11 27.16 7.36 27.39 8.6 27.66 9.87 27.98 11.17 28.35 12.49 28.77 13.85 29.24 15.23 29.76 16.66 30.34 18.15 31 19.69 31.71 21.31 32.52 23.04 33.42 24.91 34.43 26.99 35.62 29.4 37.03 32.61 38.98 38.43 42.53 41.08 44.1 43.27 45.36 45.22 46.43 47 47.37 48.65 48.19 50.22 48.93 51.73 49.61 53.17 50.2 54.57 50.74 55.93 51.21 57.25 51.64 58.55 52.01 59.82 52.34 61.06 52.61 62.28 52.84 63.5 53.03 64.69 53.17 65.88 53.28 67.07 53.34 68.23 53.37 69.39 53.35 70.56 53.3 71.75 53.2 72.94 53.06 74.13 52.88 75.32 52.66 76.53 52.4 77.75 52.09 78.99 51.74 80.26 51.34 81.56 50.88 82.89 50.38 84.27 49.8 85.67 49.18 87.13 48.48 88.67 47.7 90.3 46.84 92.03 45.87 93.92 44.76 96.03 43.47 98.6 41.85 104.47 38.07 107.33 36.25 109.53 34.91 111.42 33.79 113.12 32.83 114.72 31.97 116.2 31.22 117.61 30.55 118.96 29.95 120.26 29.42 121.51 28.95 122.72 28.53 123.91 28.16 125.08 27.85 126.21 27.58 127.32 27.35 128.43 27.17 129.51 27.04 130.59 26.94 131.67 26.88 132.73 26.86 133.78 26.89 134.84 26.95 135.89 27.05 136.95 27.19 138.03 27.38 139.11 27.61 140.19 27.87 141.3 28.19 142.44 28.55 143.57 28.96 144.74 29.42 145.93 29.94 147.17 30.52 148.44 31.16 149.77 31.87 151.14 32.66 152.61 33.54 154.17 34.53 155.88 35.66 157.8 36.98 160.12 38.64 165.53 42.57 168.07 44.39 170.02 45.74 171.72 46.88 173.27 47.85 174.7 48.72 176.02 49.47 177.3 50.15 178.51 50.75 179.68 51.29 180.78 51.75 181.87 52.16 182.92 52.52 183.95 52.83 184.95 53.09 185.95 53.31 186.92 53.48 187.9 53.61 188.84 53.7 189.79 53.75 190.74 53.75 191.68 53.72 192.63 53.64 193.58 53.53 194.52 53.37 195.47 53.17 196.42 52.93 197.39 52.64 198.36 52.31 199.36 51.93 200.36 51.5 201.39 51.02 202.45 50.48 203.53 49.88 204.66 49.21 205.85 48.45 207.1 47.61 208.42 46.67 209.83 45.62 211.4 44.39 213.18 42.94 215.53 40.97 219.94 37.24 221.86 35.66 223.43 34.42 224.81 33.37 226.08 32.46 227.24 31.67 228.33 30.99 229.35 30.38 230.35 29.83 231.3 29.36 232.22 28.95 233.11 28.59 233.98 28.29 234.82 28.03 235.63 27.83 236.44 27.67 237.22 27.55 238.01 27.47 238.79 27.44 239.55 27.44 240.31 27.48 241.06 27.56 241.82 27.69 242.58 27.85 243.36 28.06 244.15 28.31 244.93 28.6 245.74 28.95 246.55 29.34 247.39 29.79 248.26 30.3 249.15 30.87 250.07 31.51 251.02 32.22 252.02 33.02 253.07 33.92 254.18 34.92 255.4 36.07 256.75 37.41 258.34 39.05 260.67 41.51 263.64 44.67 265.24 46.31 266.54 47.59 267.67 48.66 268.73 49.6 269.7 50.41 270.59 51.11 271.46 51.74 272.27 52.28 273.06 52.75 273.81 53.16 274.54 53.51 275.25 53.81 275.92 54.04 276.57 54.23 277.22 54.38 277.87 54.49 278.49 54.55 279.11 54.57 279.74 54.55 280.36 54.49 280.98 54.39 281.6 54.25 282.22 54.07 282.85 53.84 283.49 53.56 284.14 53.24 284.82 52.85 285.5 52.42 286.2 51.92 286.93 51.36 287.69 50.72 288.47 50 289.28 49.2 290.15 48.29 291.07 47.26 292.07 46.08 293.2 44.68 294.58 42.9 297.58 38.92 299.13 36.91 300.26 35.49 301.23 34.33 302.1 33.36 302.88 32.53 303.61 31.82 304.29 31.21 304.94 30.68 305.56 30.23 306.13 29.86 306.7 29.53 307.24 29.27 307.75 29.07 308.27 28.9 308.75 28.79 309.24 28.72 309.7 28.7 310.16 28.71 310.62 28.76 311.08 28.85 311.54 28.98 312 29.15 312.48 29.37 312.97 29.64 313.46 29.95 313.97 30.33 314.51 30.78 315.05 31.29 315.62 31.88 316.22 32.55 316.84 33.32 317.49 34.19 318.19 35.2 318.95 36.37 319.79 37.73 320.73 39.36 321.9 41.45 324.57 46.38 325.68 48.36 326.55 49.83 327.3 51.04 327.98 52.05 328.58 52.87 329.14 53.59 329.66 54.18 330.14 54.68 330.6 55.1 331.04 55.44 331.44 55.71 331.85 55.94 332.23 56.1 332.61 56.23 332.96 56.3 333.31 56.33 333.66 56.32 334.01 56.27 334.36 56.17 334.71 56.04 335.07 55.86 335.44 55.62 335.82 55.33 336.23 54.96 336.63 54.54 337.07 54.03 337.53 53.41 338.01 52.69 338.53 51.85 339.07 50.88 339.64 49.77 340.29 48.42 341.02 46.79 341.91 44.69 343.96 39.69 344.8 37.73 345.45 36.31 345.99 35.2 346.48 34.29 346.91 33.56 347.32 32.95 347.7 32.45 348.02 32.08 348.34 31.77 348.64 31.54 348.91 31.37 349.18 31.26 349.43 31.2 349.67 31.18 349.91 31.2 350.16 31.26 350.4 31.37 350.64 31.52 350.91 31.74 351.18 32.01 351.48 32.38 351.78 32.81 352.1 33.37 352.45 34.05 352.81 34.83 353.19 35.78 353.59 36.89 354.05 38.29 354.54 39.9 355.11 41.93 355.81 44.61 357.38 50.81 358 53.14 358.49 54.82 358.89 56.08 359.24 57.06 359.54 57.78 359.81 58.35 360.05 58.77 360.27 59.08 360.46 59.29 360.65 59.45 360.81 59.54 360.97 59.58 361.14 59.58 361.3 59.52 361.46 59.42 361.62 59.27 361.81 59.03 362 58.72 362.22 58.28 362.43 57.74 362.68 57.03 362.95 56.09 363.25 54.9 363.57 53.42 363.92 51.61 364.35 49.14 365 45.12 365.65 41.11 366 39.16 366.27 37.87 366.49 37.02 366.65 36.52 366.79 36.2 366.9 36.02 366.98 35.94 367.06 35.9 367.14 35.91 367.22 35.97 367.3 36.08 367.41 36.32 367.52 36.67 367.65 37.27 367.79 38.08 367.95 39.33 368.11 40.94 368.3 43.29 368.49 46.23 368.68 49.8 368.9 54.76 369.11 60.73 369.33 67.83 369.57 77.31 369.68 82.06 369.71 83.31 13808.8 83.31 13808.8 83.31 13808.8 82.06"/></g></g></g><g transform="translate(40 411)"><g class="svg-plot-group"><rect x="0" y="0" width="480" height="80" class="svg-plot-axis"/><line x1="0" x2="0" y1="0" y2="80" class="svg-plot-major"/><line x1="96" x2="96" y1="0" y2="80" class="svg-plot-minor"/><line x1="192" x2="192" y1="0" y2="80" class="svg-plot-minor"/><line x1="288" x2="288" y1="0" y2="80" class="svg-plot-minor"/><line x1="384" x2="384" y1="0" y2="80" class="svg-plot-minor"/><line x1="0" x2="480" y1="0" y2="0" class="svg-plot-major"/><line x1="0" x2="480" y1="40" y2="40" class="svg-plot-minor"/><line x1="0" x2="480" y1="80" y2="80" class="svg-plot-minor"/><clipPath id="clip2"><rect x="-0.75" y="-0.75" width="481.5" height="81.5"/></clipPath><g clip-path="url(#clip2)"><path class="svg-plot-line svg-plot-s3 svg-plot-d3" d="M0 0"/><path class="svg-plot-line svg-plot-s2 svg-plot-d2" d="M0 0"/><path class="svg-plot-line svg-plot-s1 svg-plot-d1" d="M0 0"/><path class="svg-plot-line svg-plot-s0 svg-plot-d0" d="M 0 1316.21 0 1316.21 77.34 89.08 84.38 66.8 91.41 49.28 98.44 35.95 105.47 26.07 112.5 18.91 119.53 13.77 126.56 10.1 133.59 7.47 140.63 5.58 147.66 4.22 154.69 3.22 161.72 2.48 168.75 1.93 175.78 1.52 182.81 1.2 189.84 0.96 196.88 0.77 203.91 0.63 210.94 0.51 225 0.35 239.06 0.24 260.16 0.15 288.28 0.08 330.47 0.03 407.81 0.01 478.13 0 485.16 0"/></g></g></g><g transform="translate(40 14)"><g class="svg-plot-group"><line x1="0" x2="0" y1="250" y2="254" class="svg-plot-tick"/><line x1="369.231" x2="369.231" y1="250" y2="254" class="svg-plot-tick"/><line x1="443.077" x2="443.077" y1="250" y2="254" class="svg-plot-tick"/><line x1="0" x2="-4" y1="11.3636" y2="11.3636" class="svg-plot-tick"/><line x1="0" x2="-4" y1="79.5455" y2="79.5455" class="svg-plot-tick"/><line x1="0" x2="-4" y1="147.727" y2="147.727" class="svg-plot-tick"/><line x1="0" x2="-4" y1="215.909" y2="215.909" class="svg-plot-tick"/><text class="svg-plot-label svg-plot-t" x="0" y="0" transform="rotate(-90) translate(-124 -32.4)">dB</text><text class="svg-plot-value" style="text-anchor:end" x="-9" y="214.909">-90</text><text class="svg-plot-value" style="text-anchor:end" x="-9" y="146.727">-60</text><text class="svg-plot-value" style="text-anchor:end" x="-9" y="78.5455">-30</text><text class="svg-plot-value" style="text-anchor:end" x="-9" y="10.3636">0</text><text class="svg-plot-value" x="443.077" y="263">24kHz</text><text class="svg-plot-value" x="369.231" y="263">20kHz</text><text class="svg-plot-value" x="0" y="263">0</text><rect x="18.714" y="178.4" width="177.72" height="67.6" class="svg-plot-legend"/><line x1="23.714" x2="41.714" y1="190.6" y2="190.6" class="svg-plot-line svg-plot-l0 svg-plot-s0 svg-plot-d0"/><line x1="23.714" x2="41.714" y1="205" y2="205" class="svg-plot-line svg-plot-l1 svg-plot-s1 svg-plot-d1"/><line x1="23.714" x2="41.714" y1="219.4" y2="219.4" class="svg-plot-line svg-plot-l2 svg-plot-s2 svg-plot-d2"/><line x1="23.714" x2="41.714" y1="233.8" y2="233.8" class="svg-plot-line svg-plot-l3 svg-plot-s3 svg-plot-d3"/><text class="svg-plot-label svg-plot-l3" style="text-anchor:start" x="46.714" y="232.6">3rd-order BLEP</text><text class="svg-plot-label svg-plot-l2" style="text-anchor:start" x="46.714" y="218.2">2nd-order BLEP (BLAMP)</text><text class="svg-plot-label svg-plot-l1" style="text-anchor:start" x="46.714" y="203.8">1st-order BLEP</text><text class="svg-plot-label svg-plot-l0" style="text-anchor:start" x="46.714" y="189.4">impulse</text></g></g><g transform="translate(40 297)"><g class="svg-plot-group"><line x1="0" x2="0" y1="80" y2="84" class="svg-plot-tick"/><line x1="369.231" x2="369.231" y1="80" y2="84" class="svg-plot-tick"/><line x1="443.077" x2="443.077" y1="80" y2="84" class="svg-plot-tick"/><line x1="0" x2="-4" y1="26.6667" y2="26.6667" class="svg-plot-tick"/><line x1="0" x2="-4" y1="53.3333" y2="53.3333" class="svg-plot-tick"/><text class="svg-plot-label svg-plot-t" x="0" y="0" transform="rotate(-90) translate(-39 -35)">ripple</text><text class="svg-plot-value" style="text-anchor:end" x="-9" y="52.3333">-0.1</text><text class="svg-plot-value" style="text-anchor:end" x="-9" y="25.6667">0</text><text class="svg-plot-value" x="443.077" y="93">24kHz</text><text class="svg-plot-value" x="369.231" y="93">20kHz</text><text class="svg-plot-value" x="0" y="93">0</text></g></g><g transform="translate(40 411)"><g class="svg-plot-group"><line x1="0" x2="0" y1="80" y2="84" class="svg-plot-tick"/><line x1="96" x2="96" y1="80" y2="84" class="svg-plot-tick"/><line x1="192" x2="192" y1="80" y2="84" class="svg-plot-tick"/><line x1="288" x2="288" y1="80" y2="84" class="svg-plot-tick"/><line x1="384" x2="384" y1="80" y2="84" class="svg-plot-tick"/><line x1="0" x2="-4" y1="0" y2="0" class="svg-plot-tick"/><line x1="0" x2="-4" y1="40" y2="40" class="svg-plot-tick"/><line x1="0" x2="-4" y1="80" y2="80" class="svg-plot-tick"/><text class="svg-plot-label svg-plot-t" x="0" y="0" transform="rotate(-90) translate(-39 -26.3)">highpass</text><text class="svg-plot-value" style="text-anchor:end" x="-9" y="79">-6</text><text class="svg-plot-value" style="text-anchor:end" x="-9" y="39">-3</text><text class="svg-plot-value" style="text-anchor:end" x="-9" y="-1">0</text><text class="svg-plot-label svg-plot-t" x="240" y="109">Hz</text><text class="svg-plot-value" x="384" y="93">80</text><text class="svg-plot-value" x="288" y="93">60</text><text class="svg-plot-value" x="192" y="93">40</text><text class="svg-plot-value" x="96" y="93">20</text><text class="svg-plot-value" x="0" y="93">0</text></g></g><defs><g id="svg-plot-marker0" class="svg-plot-marker"><circle cx="0" cy="0" r="1" stroke="none"/></g><g id="svg-plot-marker1" class="svg-plot-marker"><path d="M0 0.9 -0.9 0 0 -0.9 0.9 0Z" fill="#FFFA" stroke-linejoin="miter" stroke-width="0.5"/></g><g id="svg-plot-marker2" class="svg-plot-marker"><path fill="none" d="M0 -1.2 0 1.2 M -1.2 0 1.2 0" stroke-width="0.6"/></g><g id="svg-plot-marker3" class="svg-plot-marker"><circle cx="0" cy="0" fill="#FFFA" r="0.82" stroke-width="0.55"/></g><g id="svg-plot-marker4" class="svg-plot-marker"><path stroke="none" d="M0 -1.25 1.25 0.9 -1.25 0.9Z"/></g><mask id="svg-plot-hatch1"><rect x="-744" y="-744" width="1488" height="1488" fill="url(#svg-plot-hatch1-pattern)" style="transform:rotate(-50deg)"/></mask><pattern patternUnits="userSpaceOnUse" id="svg-plot-hatch1-pattern" class="svg-plot-hatch" x="0" y="0" width="10" height="3"><line x1="-1" x2="11" y1="1.5" y2="1.5" stroke="#FFF" fill="none"/><rect x="-1" y="-1" width="12" height="12" fill="#FFF2" stroke="none"/></pattern><mask id="svg-plot-hatch2"><rect x="-744" y="-744" width="1488" height="1488" fill="url(#svg-plot-hatch2-pattern)" style="transform:rotate(30deg)"/></mask><pattern patternUnits="userSpaceOnUse" id="svg-plot-hatch2-pattern" class="svg-plot-hatch" x="0" y="0" width="10" height="2.4"><line x1="-1" x2="11" y1="1.2" y2="1.2" stroke="#FFF" fill="none"/><rect x="-1" y="-1" width="12" height="12" fill="#FFF2" stroke="none"/></pattern><mask id="svg-plot-hatch3"><rect x="-744" y="-744" width="1488" height="1488" fill="url(#svg-plot-hatch3-pattern)" style="transform:rotate(8deg)"/><rect x="-744" y="-744" width="1488" height="1488" fill="url(#svg-plot-hatch3-pattern)" style="transform:rotate(93deg)"/></mask><pattern patternUnits="userSpaceOnUse" id="svg-plot-hatch3-pattern" class="svg-plot-hatch" x="0" y="0" width="10" height="3"><line x1="-1" x2="11" y1="1.5" y2="1.5" stroke="#FFF" fill="none"/><rect x="-1" y="-1" width="12" height="12" fill="#FFF2" stroke="none"/></pattern></defs><style>.svg-plot{stroke-linecap:butt;stroke-linejoin:round;}.svg-plot-bg{fill:#FFF;stroke:none;}.svg-plot-axis{stroke:none;fill:#FFFFFFD9;}.svg-plot-legend{stroke:none;fill:#FFFFFFE4;}.svg-plot-line{stroke:blue;fill:none;stroke-width:1.5px;stroke-linejoin:round;}.svg-plot-fill{stroke:none;opacity:0.35;}.svg-plot-dot .svg-plot-fill{opacity:0.5;}.svg-plot-major{stroke:#000;stroke-width:1px;stroke-linecap:square;fill:none;}.svg-plot-minor{stroke:#0000004D;stroke-width:0.5px;stroke-dasharray:0.5 1.5;stroke-linecap:round;fill:none;}.svg-plot-tick{stroke:#000;fill:none;stroke-width:1px;stroke-linecap:butt;}.svg-plot-value,.svg-plot-label,.svg-plot-title{font-family:Arial,sans-serif;fill:#000;stroke:#FFFFFF48;stroke-width:2.5px;paint-order:stroke fill;text-anchor:middle;dominant-baseline:central;alignment-baseline:baseline;}.svg-plot-label{font-size:12px;}.svg-plot-value{font-size:10px;}.svg-plot-title{font-size:13px;}.svg-plot-hatch{stroke:#FFF;stroke-width:1px;}.svg-plot-marker{transform:scale(3.25);}.svg-plot-s{stroke:#000;}.svg-plot-f,.svg-plot-t{fill:#000;}.svg-plot-s0{stroke:#007AB0}.svg-plot-f0,.svg-plot-t0{fill:#007AB0}.svg-plot-s1{stroke:#BB102B}.svg-plot-f1,.svg-plot-t1{fill:#BB102B}.svg-plot-s2{stroke:#44A730}.svg-plot-f2,.svg-plot-t2{fill:#44A730}.svg-plot-s3{stroke:#87694F}.svg-plot-f3,.svg-plot-t3{fill:#87694F}.svg-plot-s4{stroke:#EDA720}.svg-plot-f4,.svg-plot-t4{fill:#EDA720}.svg-plot-s5{stroke:#A64D99}.svg-plot-f5,.svg-plot-t5{fill:#A64D99}.svg-plot-d0{stroke-width:1.35px}.svg-plot-d1{stroke-dasharray:1.8 1.8}.svg-plot-d2{stroke-dasharray:4.2 2.4}.svg-plot-d3{stroke-dasharray:7.5 6}.svg-plot-d4{stroke-dasharray:6 1.5 1.5 1.5 1.5 1.5}.svg-plot-d5{stroke-dasharray:15 4.5}.svg-plot-d6{stroke-dasharray:6 3 1.5 3}.svg-plot-h0{opacity:0.175}.svg-plot-h1{mask:url(#svg-plot-hatch1)}.svg-plot-h2{mask:url(#svg-plot-hatch2)}.svg-plot-h3{mask:url(#svg-plot-hatch3)}#svg-plot-hatch2-pattern{stroke-width:0.9px}#svg-plot-hatch3-pattern{stroke-width:0.7px}</style><style>@import"/style/svg-plot/style.css";svg{font-family:"Transport New",Arial,sans-serif;font-weight:300;}.svg-plot-label,.svg-plot-value{font-family:inherit;}.svg-plot-title{font-size:14px;font-family:"PT Sans";opacity:0.65;}.svg-plot-fill:hover{opacity:55%;}.svg-plot-h0{opacity:15%;}.svg-plot-fill.svg-plot-h0:hover{opacity:20%;}.svg-plot-fill.svg-plot-f0{fill:#005AB0;}text.svg-plot-f0{fill:#006AA0;}.svg-plot-fill.svg-plot-f4{fill:#EDB410;}</style><script href="/style/svg-plot/style.js"/></svg>