<?xml version="1.0" encoding="utf-8" standalone="no"?>
<!DOCTYPE svg PUBLIC "-//W3C//DTD SVG 1.1//EN" "http://www.w3.org/Graphics/SVG/1.1/DTD/svg11.dtd">
<svg version="1.1" class="svg-plot" xmlns="http://www.w3.org/2000/svg" width="560.5pt" height="437pt" viewBox="-10 -10 560.5 437" preserveAspectRatio="xMidYMid"><rect x="0" y="0" width="540.5" height="417" class="svg-plot-bg"/><g transform="translate(42.4 135)"><g class="svg-plot-group"><rect x="0" y="0" width="480" height="80" class="svg-plot-axis"/><line x1="0" x2="0" y1="0" y2="80" class="svg-plot-major"/><line x1="435.374" x2="435.374" y1="0" y2="80" class="svg-plot-minor"/><line x1="480" x2="480" y1="0" y2="80" class="svg-plot-minor"/><line x1="0" x2="480" y1="40" y2="40" class="svg-plot-major"/><line x1="0" x2="480" y1="80" y2="80" class="svg-plot-minor"/><line x1="0" x2="480" y1="0" y2="0" class="svg-plot-minor"/><clipPath id="clip0"><rect x="-0.75" y="-0.75" width="481.5" height="81.5"/></clipPath><g clip-path="url(#clip0)"><path class="svg-plot-line svg-plot-s1 svg-plot-d1" d=""/><path class="svg-plot-line svg-plot-s1 svg-plot-d1" d="M 408.4 0.07 410.27 1.54 412.15 3.06 414.02 4.63 415.84 6.21 417.66 7.84 419.47 9.52 421.23 11.2 422.87 12.83 424.39 14.39 425.8 15.89 427.09 17.32 428.26 18.69 429.32 19.97 430.31 21.25 431.25 22.52 432.13 23.77 432.95 25.01 433.77 26.32 434.59 27.72 435.41 29.19 436.23 30.75 437.11 32.5 438.16 34.71 440.51 39.74 441.5 41.82 442.32 43.44 443.09 44.87 443.85 46.21 444.55 47.37 445.25 48.45 445.96 49.47 446.66 50.41 447.36 51.29 448.13 52.18 448.89 53.01 449.71 53.84 450.53 54.61 451.41 55.38 452.34 56.15 453.28 56.86 454.28 57.57 455.39 58.32 456.56 59.05 457.85 59.81 459.26 60.59 460.96 61.48 463.42 62.72 466.11 64.07 467.52 64.81 468.63 65.44 469.63 66.05 470.51 66.63 471.27 67.18 471.97 67.74 472.62 68.29 473.26 68.9 473.85 69.51 474.43 70.17 475.02 70.89 475.61 71.69 476.19 72.56 476.78 73.51 477.36 74.55 478.01 75.77 478.71 77.21 479.65 79.23 479.94 79.87"/><path class="svg-plot-line svg-plot-s1 svg-plot-d1" d="M 190.55 0.02 201.91 2.71 212.11 5.16 221.19 7.39 229.34 9.42 236.84 11.33 243.81 13.15 250.37 14.9 256.7 16.64 262.85 18.36 268.89 20.09 274.92 21.86 280.96 23.68 287.05 25.56 293.2 27.49 299.36 29.47 305.51 31.49 311.43 33.47 317.05 35.4 322.32 37.25 327.25 39.01 331.82 40.69 336.15 42.33 340.2 43.89 344.06 45.43 347.75 46.95 351.33 48.45 354.84 49.98 358.3 51.52 361.7 53.08 365.1 54.68 368.5 56.33 371.89 58.02 375.29 59.76 378.63 61.51 381.91 63.28 385.08 65.02 388.07 66.72 390.88 68.36 393.52 69.94 395.98 71.46 398.32 72.96 400.49 74.39 402.6 75.83 404.59 77.24 406.52 78.65 408.28 79.98"/><path class="svg-plot-line svg-plot-s1 svg-plot-d1" d="M 0 40 34.98 47.02 77.4 55.49 92.99 58.64 105.59 61.22 116.84 63.56 127.5 65.82 137.93 68.08 148.48 70.4 159.38 72.84 170.8 75.44 182.75 78.2 190.43 79.99"/><path class="svg-plot-line svg-plot-s0 svg-plot-d0" d="M 450.23 0.11 451.17 1.4 452.17 2.71 453.22 4.02 454.39 5.42 455.63 6.82 456.97 8.3 458.5 9.9 460.25 11.69 462.6 14.01 466.17 17.52 467.75 19.12 468.98 20.42 470.04 21.6 470.98 22.7 471.8 23.72 472.56 24.73 473.26 25.72 473.96 26.79 474.61 27.84 475.25 28.97 475.9 30.19 476.54 31.5 477.19 32.91 477.83 34.41 478.59 36.3 479.59 38.91 480 40"/><path class="svg-plot-line svg-plot-s0 svg-plot-d0" d="M 404.71 0.13 407.05 3.09 409.34 6.05 411.56 9 413.79 12.01 415.96 15.01 418.13 18.08 420.23 21.13 422.23 24.09 424.04 26.85 425.68 29.42 427.15 31.78 428.44 33.93 429.61 35.97 430.72 37.98 431.72 39.86 432.66 41.71 433.59 43.65 434.47 45.56 435.35 47.56 436.29 49.81 437.29 52.3 438.52 55.5 440.8 61.53 441.86 64.21 442.73 66.34 443.55 68.22 444.32 69.88 445.08 71.45 445.84 72.94 446.6 74.34 447.42 75.77 448.24 77.11 449.12 78.48 450 79.77 450.12 79.94"/><path class="svg-plot-line svg-plot-s0 svg-plot-d0" d="M 332.52 0.07 348.28 16.85 355.96 25.08 362.64 32.3 368.96 39.19 375.06 45.89 380.68 52.13 385.61 57.65 389.77 62.37 393.34 66.48 396.5 70.18 399.38 73.59 402.01 76.79 404.47 79.83 404.59 79.98"/><path class="svg-plot-line svg-plot-s0 svg-plot-d0" d="M 258.57 0.09 275.51 18.52 295.61 40.4 305.74 51.39 314.71 61.04 323.96 70.95 332.4 79.94"/><path class="svg-plot-line svg-plot-s0 svg-plot-d0" d="M 184.69 0.1 211.17 28.77 245.86 66.29 258.46 79.96"/><path class="svg-plot-line svg-plot-s0 svg-plot-d0" d="M 110.86 0.1 151.46 44.08 184.57 79.97"/><path class="svg-plot-line svg-plot-s0 svg-plot-d0" d="M 37.03 0.11 93.52 61.32 110.74 79.97"/><path class="svg-plot-line svg-plot-s0 svg-plot-d0" d="M 0 40 36.91 79.98"/></g></g></g><g transform="translate(42.4 248)"><g class="svg-plot-group"><rect x="0" y="0" width="480" height="150" class="svg-plot-axis"/><line x1="0" x2="0" y1="0" y2="150" class="svg-plot-major"/><line x1="435.374" x2="435.374" y1="0" y2="150" class="svg-plot-minor"/><line x1="480" x2="480" y1="0" y2="150" class="svg-plot-minor"/><line x1="0" x2="480" y1="150" y2="150" class="svg-plot-major"/><line x1="0" x2="480" y1="89.1412" y2="89.1412" class="svg-plot-minor"/><line x1="0" x2="480" y1="150" y2="150" class="svg-plot-minor"/><line x1="0" x2="480" y1="136.237" y2="136.237" class="svg-plot-minor"/><clipPath id="clip1"><rect x="-0.75" y="-0.75" width="481.5" height="151.5"/></clipPath><g clip-path="url(#clip1)"><path class="svg-plot-line svg-plot-s1 svg-plot-d1" d="M 0.06 138.7 17.4 138.72 49.16 138.8 62.34 138.79 73.65 138.75 84.2 138.67 94.69 138.56 105.7 138.39 118.54 138.16 148.18 137.54 164.18 137.24 185.63 136.88 199.92 136.64 209.24 136.44 217.15 136.23 224.41 136 231.27 135.75 237.95 135.46 244.8 135.12 252.07 134.72 260.39 134.23 273.34 133.4 289.34 132.38 306.21 131.32 312.42 130.9 317.29 130.53 321.5 130.17 325.37 129.8 328.95 129.42 332.34 129.02 335.63 128.6 338.85 128.14 342.07 127.64 345.29 127.1 348.69 126.49 352.32 125.79 356.54 124.94 362.23 123.75 373.77 121.26 378.16 120.29 381.15 119.59 383.55 118.99 385.61 118.44 387.48 117.89 389.18 117.36 390.76 116.82 392.23 116.28 393.63 115.73 394.98 115.15 396.33 114.53 397.62 113.89 398.91 113.21 400.2 112.48 401.48 111.7 402.77 110.88 404.12 109.97 405.47 109.01 406.93 107.91 408.52 106.68 410.27 105.25 412.38 103.48 414.84 101.36 416.95 99.5 418.48 98.1 419.65 96.98 420.64 95.97 421.52 95.02 422.29 94.15 422.99 93.27 423.63 92.41 424.22 91.57 424.8 90.65 425.39 89.66 425.92 88.68 426.45 87.62 426.97 86.47 427.5 85.21 428.03 83.83 428.5 82.5 428.96 81.05 429.43 79.48 429.9 77.77 430.37 75.92 430.84 73.92 431.37 71.48 431.89 68.83 432.42 65.97 433.01 62.54 433.59 58.86 434.3 54.18 435.82 43.55 436.46 39.24 436.93 36.35 437.29 34.39 437.64 32.65 437.93 31.39 438.16 30.53 438.4 29.82 438.57 29.38 438.75 29.02 438.93 28.76 439.04 28.64 439.16 28.56 439.28 28.52 439.39 28.53 439.51 28.58 439.63 28.67 439.75 28.81 439.92 29.09 440.1 29.47 440.27 29.95 440.51 30.73 440.74 31.67 441.04 33.05 441.33 34.65 441.68 36.83 442.09 39.68 442.56 43.25 443.2 48.55 444.84 62.62 445.61 68.9 446.25 73.9 446.84 78.18 447.42 82.17 448.01 85.88 448.54 88.97 449.06 91.85 449.59 94.52 450.12 97 450.64 99.3 451.17 101.42 451.7 103.39 452.23 105.21 452.75 106.9 453.28 108.46 453.81 109.91 454.34 111.25 454.86 112.49 455.39 113.63 455.92 114.7 456.45 115.67 456.97 116.58 457.5 117.41 458.03 118.17 458.55 118.86 459.08 119.48 459.61 120.05 460.08 120.49 460.55 120.89 461.02 121.23 461.48 121.53 461.89 121.74 462.3 121.91 462.71 122.04 463.13 122.12 463.48 122.15 463.83 122.15 464.18 122.11 464.53 122.03 464.88 121.9 465.23 121.74 465.59 121.52 465.94 121.25 466.29 120.93 466.64 120.55 466.99 120.11 467.34 119.61 467.7 119.03 468.05 118.38 468.4 117.64 468.75 116.82 469.1 115.91 469.45 114.89 469.86 113.56 470.27 112.07 470.68 110.4 471.09 108.54 471.5 106.47 471.91 104.16 472.32 101.62 472.73 98.8 473.14 95.7 473.55 92.3 473.96 88.58 474.43 83.94 474.9 78.88 475.43 72.7 476.02 65.32 477.3 48.2 477.83 41.54 478.18 37.49 478.48 34.46 478.77 31.82 479 30.03 479.24 28.57 479.41 27.71 479.59 27.05 479.71 26.73 479.82 26.51 479.94 26.39"/><path class="svg-plot-line svg-plot-s0 svg-plot-d0" d="M 0.06 89.18 18.87 89.16 48.69 89.1 66.68 89.11 100.96 89.18 118.77 89.18 142.68 89.12 162.77 89.09 177.42 89.1 192.66 89.15 215.51 89.25 225.82 89.26 234.61 89.23 243.22 89.16 253.59 89.03 268.18 88.84 275.04 88.78 280.72 88.77 285.88 88.8 290.86 88.87 295.84 88.98 301.05 89.14 307.21 89.37 319.92 89.89 325.14 90.07 329.36 90.17 333.16 90.23 336.68 90.24 340.02 90.22 343.3 90.15 346.58 90.05 349.92 89.9 353.5 89.71 357.42 89.45 362.11 89.09 368.2 88.59 373.83 88.08 377.52 87.72 380.33 87.41 382.68 87.11 384.73 86.81 386.54 86.5 388.18 86.19 389.77 85.84 391.23 85.48 392.64 85.1 393.98 84.69 395.27 84.25 396.56 83.78 397.79 83.28 399.02 82.74 400.25 82.15 401.48 81.52 402.71 80.85 404 80.1 405.29 79.3 406.64 78.41 408.11 77.4 409.75 76.22 411.62 74.81 413.79 73.13 415.96 71.41 417.66 70.01 418.95 68.9 420 67.94 420.88 67.1 421.7 66.26 422.4 65.48 423.11 64.64 423.75 63.81 424.34 62.99 424.92 62.09 425.45 61.22 425.98 60.27 426.5 59.23 427.03 58.1 427.56 56.85 428.03 55.65 428.5 54.34 428.96 52.91 429.43 51.37 429.9 49.69 430.37 47.86 430.84 45.89 431.37 43.47 431.89 40.85 432.42 38.01 433.01 34.61 433.59 30.96 434.3 26.3 435.82 15.74 436.46 11.46 436.93 8.59 437.29 6.64 437.64 4.92 437.93 3.67 438.16 2.83 438.4 2.12 438.57 1.69 438.75 1.34 438.93 1.09 439.04 0.97 439.16 0.9 439.28 0.86 439.39 0.87 439.51 0.93 439.63 1.03 439.75 1.17 439.92 1.46 440.1 1.85 440.27 2.33 440.51 3.12 440.74 4.07 441.04 5.47 441.33 7.08 441.68 9.28 442.09 12.15 442.56 15.74 443.2 21.07 444.84 35.23 445.61 41.54 446.25 46.58 446.84 50.88 447.42 54.9 448.01 58.64 448.54 61.77 449.06 64.67 449.59 67.37 450.12 69.88 450.64 72.2 451.17 74.35 451.7 76.34 452.23 78.19 452.75 79.9 453.28 81.48 453.81 82.94 454.34 84.3 454.86 85.55 455.39 86.71 455.92 87.78 456.45 88.76 456.97 89.67 457.5 90.5 458.03 91.26 458.55 91.95 459.08 92.57 459.55 93.07 460.02 93.51 460.49 93.9 460.96 94.24 461.43 94.53 461.84 94.74 462.25 94.91 462.66 95.03 463.07 95.11 463.42 95.14 463.77 95.13 464.12 95.09 464.47 95 464.82 94.88 465.18 94.71 465.53 94.5 465.88 94.24 466.23 93.92 466.58 93.55 466.93 93.12 467.29 92.63 467.64 92.07 467.99 91.44 468.34 90.72 468.69 89.93 469.04 89.04 469.39 88.05 469.8 86.77 470.21 85.32 470.63 83.7 471.04 81.9 471.45 79.88 471.86 77.65 472.27 75.16 472.68 72.42 473.09 69.4 473.5 66.08 473.91 62.45 474.38 57.9 474.84 52.93 475.37 46.85 475.96 39.56 476.89 27.19 477.6 18.02 478.01 13.07 478.36 9.24 478.65 6.44 478.89 4.51 479.12 2.89 479.3 1.89 479.47 1.1 479.59 0.69 479.71 0.37 479.82 0.15 479.94 0.02 480 0"/></g></g></g><g transform="translate(42.4 5)"><g class="svg-plot-group"><rect x="0" y="0" width="480" height="80" class="svg-plot-axis"/><line x1="0" x2="0" y1="0" y2="80" class="svg-plot-major"/><line x1="160.257" x2="160.257" y1="0" y2="80" class="svg-plot-minor"/><line x1="0" x2="0" y1="0" y2="80" class="svg-plot-minor"/><line x1="36.2427" x2="36.2427" y1="0" y2="80" class="svg-plot-minor"/><line x1="0" x2="480" y1="57.8434" y2="57.8434" class="svg-plot-major"/><line x1="0" x2="480" y1="0" y2="0" class="svg-plot-minor"/><clipPath id="clip2"><rect x="-0.75" y="-0.75" width="481.5" height="81.5"/></clipPath><g clip-path="url(#clip2)"><path class="svg-plot-line svg-plot-s1 svg-plot-d1" d="M 0 57.82 1.54 57.81 3.08 57.76 4.62 57.67 6.16 57.51 6.93 57.4 7.7 57.25 8.48 57.08 9.25 56.86 10.02 56.6 10.79 56.29 11.56 55.92 12.33 55.49 13.1 54.99 13.87 54.41 14.64 53.75 15.41 53 16.18 52.16 16.95 51.22 17.72 50.18 18.49 49.03 19.26 47.79 20.03 46.44 20.8 44.99 21.57 43.44 22.34 41.81 23.11 40.09 23.88 38.31 25.43 34.59 27.74 28.88 28.51 27.03 29.28 25.24 30.05 23.55 30.82 21.97 31.59 20.54 32.36 19.28 33.13 18.22 33.9 17.39 34.67 16.8 35.44 16.49 36.21 16.46 36.98 16.73 37.75 17.33 38.52 18.24 39.29 19.48 40.06 21.05 40.83 22.93 41.61 25.12 42.38 27.6 43.15 30.35 43.92 33.33 44.69 36.53 45.46 39.89 47 46.95 48.54 54.16 49.31 57.7 50.08 61.13 50.85 64.4 51.62 67.46 52.39 70.27 53.16 72.78 53.93 74.96 54.7 76.78 55.47 78.21 56.24 79.23 57.01 79.83 57.78 80 58.56 79.75 59.33 79.09 60.1 78.04 60.87 76.61 61.64 74.86 62.41 72.81 63.18 70.51 63.95 68.01 64.72 65.36 67.03 57.1 67.8 54.44 68.57 51.91 69.34 49.58 70.11 47.48 70.88 45.66 71.65 44.15 72.42 42.99 73.19 42.19 73.96 41.76 74.74 41.72 75.51 42.05 76.28 42.73 77.05 43.76 77.82 45.1 78.59 46.71 79.36 48.55 80.13 50.57 80.9 52.72 83.21 59.44 83.98 61.58 84.75 63.59 85.52 65.41 86.29 67 87.06 68.34 87.83 69.38 88.6 70.11 89.37 70.51 90.14 70.59 90.91 70.33 91.69 69.76 92.46 68.89 93.23 67.75 94 66.37 94.77 64.79 95.54 63.06 96.31 61.22 97.85 57.42 98.62 55.56 99.39 53.78 100.16 52.15 100.93 50.69 101.7 49.45 102.47 48.45 103.24 47.72 104.01 47.27 104.78 47.1 105.55 47.23 106.32 47.65 107.09 48.32 107.87 49.25 108.64 50.39 109.41 51.71 110.18 53.17 110.95 54.74 112.49 57.99 113.26 59.59 114.03 61.11 114.8 62.51 115.57 63.75 116.34 64.8 117.11 65.64 117.88 66.24 118.65 66.6 119.42 66.7 120.19 66.54 120.96 66.13 121.73 65.5 122.5 64.65 123.27 63.62 124.04 62.44 124.82 61.14 126.36 58.36 127.13 56.95 127.9 55.59 128.67 54.32 129.44 53.16 130.21 52.16 130.98 51.33 131.75 50.7 132.52 50.29 133.29 50.11 134.06 50.15 134.83 50.42 135.6 50.9 136.37 51.58 137.14 52.43 137.91 53.43 138.68 54.55 139.45 55.75 141 58.25 141.77 59.48 142.54 60.65 143.31 61.72 144.08 62.66 144.85 63.45 145.62 64.07 146.39 64.49 147.16 64.71 147.93 64.73 148.7 64.55 149.47 64.17 150.24 63.6 151.01 62.88 151.78 62.01 152.55 61.04 153.32 59.98 155.63 56.63 156.4 55.58 157.17 54.6 157.95 53.73 158.72 53 159.49 52.42 160.26 52.01 161.03 51.78 161.8 51.73 162.57 51.87 163.34 52.19 164.11 52.67 164.88 53.3 165.65 54.05 166.42 54.92 167.19 55.85 169.5 58.83 170.27 59.78 171.04 60.65 171.81 61.43 172.58 62.09 173.35 62.61 174.13 62.98 174.9 63.19 175.67 63.23 176.44 63.11 177.21 62.83 177.98 62.4 178.75 61.83 179.52 61.16 180.29 60.39 181.06 59.55 183.37 56.9 184.14 56.06 184.91 55.28 185.68 54.6 186.45 54.02 187.22 53.57 187.99 53.26 188.76 53.09 189.53 53.07 190.3 53.2 191.08 53.47 191.85 53.88 192.62 54.4 193.39 55.02 194.16 55.72 194.93 56.48 197.24 58.86 198.01 59.6 198.78 60.28 199.55 60.88 200.32 61.37 201.09 61.75 201.86 62 202.63 62.12 203.4 62.1 204.17 61.96 204.94 61.68 205.71 61.29 206.48 60.79 207.26 60.21 208.03 59.55 209.57 58.13 211.11 56.71 211.88 56.05 212.65 55.45 213.42 54.94 214.19 54.52 214.96 54.21 215.73 54.02 216.5 53.95 217.27 54 218.04 54.18 218.81 54.46 219.58 54.85 220.35 55.33 221.12 55.89 221.89 56.5 224.21 58.47 224.98 59.1 225.75 59.68 226.52 60.21 227.29 60.65 228.06 61 228.83 61.25 229.6 61.38 230.37 61.41 231.14 61.32 231.91 61.13 232.68 60.83 233.45 60.44 234.22 59.97 234.99 59.44 235.76 58.87 238.07 57.05 238.84 56.49 239.61 55.97 240.39 55.51 241.16 55.13 241.93 54.84 242.7 54.65 243.47 54.56 244.24 54.57 245.01 54.69 245.78 54.91 246.55 55.21 247.32 55.6 248.09 56.06 248.86 56.56 250.4 57.67 251.94 58.77 252.71 59.28 253.48 59.74 254.25 60.14 255.02 60.46 255.79 60.69 256.57 60.84 257.34 60.88 258.11 60.83 258.88 60.69 259.65 60.46 260.42 60.14 261.19 59.76 261.96 59.32 262.73 58.84 265.04 57.29 265.81 56.8 266.58 56.35 267.35 55.94 268.12 55.6 268.89 55.34 269.66 55.15 270.43 55.05 271.2 55.05 271.97 55.13 272.74 55.29 273.52 55.54 274.29 55.85 275.06 56.23 275.83 56.65 277.37 57.58 278.91 58.53 279.68 58.98 280.45 59.38 281.22 59.73 281.99 60.02 282.76 60.23 283.53 60.37 284.3 60.43 285.07 60.4 285.84 60.3 286.61 60.11 287.38 59.86 288.15 59.55 288.92 59.18 289.7 58.77 292.01 57.46 292.78 57.03 293.55 56.64 294.32 56.28 295.09 55.98 295.86 55.75 296.63 55.58 297.4 55.48 298.17 55.46 298.94 55.51 299.71 55.64 300.48 55.84 301.25 56.1 302.02 56.41 302.79 56.77 304.33 57.56 305.87 58.37 306.65 58.75 307.42 59.1 308.19 59.41 308.96 59.66 309.73 59.85 310.5 59.98 311.27 60.04 312.04 60.03 312.81 59.94 313.58 59.8 314.35 59.59 315.12 59.32 315.89 59.02 316.66 58.67 318.97 57.55 319.74 57.19 320.51 56.85 321.28 56.55 322.05 56.29 322.83 56.08 323.6 55.93 324.37 55.84 325.14 55.82 325.91 55.86 326.68 55.96 327.45 56.13 328.22 56.35 328.99 56.61 329.76 56.91 331.3 57.58 332.84 58.28 333.61 58.6 334.38 58.9 335.15 59.16 335.92 59.38 336.69 59.55 337.46 59.66 338.23 59.71 339 59.7 339.78 59.63 340.55 59.51 341.32 59.33 342.09 59.11 342.86 58.85 344.4 58.24 346.71 57.29 347.48 57 348.25 56.74 349.02 56.51 349.79 56.34 350.56 56.21 351.33 56.13 352.1 56.11 352.87 56.15 353.64 56.24 354.41 56.38 355.18 56.57 355.96 56.8 356.73 57.05 358.27 57.63 359.81 58.22 360.58 58.5 361.35 58.76 362.12 58.98 362.89 59.17 363.66 59.31 364.43 59.4 365.2 59.44 365.97 59.43 366.74 59.37 367.51 59.26 368.28 59.11 369.05 58.92 369.82 58.69 371.36 58.17 373.68 57.35 374.45 57.1 375.22 56.88 375.99 56.69 376.76 56.54 377.53 56.43 378.3 56.37 379.07 56.35 379.84 56.39 380.61 56.47 381.38 56.6 382.15 56.76 382.92 56.96 384.46 57.43 386.77 58.2 387.54 58.44 388.31 58.66 389.09 58.85 389.86 59 390.63 59.12 391.4 59.2 392.17 59.23 392.94 59.22 393.71 59.16 394.48 59.06 395.25 58.92 396.02 58.75 396.79 58.55 398.33 58.1 400.64 57.38 401.41 57.17 402.18 56.98 402.95 56.82 403.72 56.69 404.49 56.6 405.26 56.56 406.04 56.55 406.81 56.58 407.58 56.66 408.35 56.77 409.12 56.92 409.89 57.1 411.43 57.51 413.74 58.18 415.28 58.58 416.05 58.74 416.82 58.88 417.59 58.97 418.36 59.04 419.13 59.06 419.9 59.04 420.67 58.99 421.44 58.89 422.22 58.77 422.99 58.62 424.53 58.24 427.61 57.41 428.38 57.23 429.15 57.06 429.92 56.92 430.69 56.82 431.46 56.74 432.23 56.71 433 56.71 433.77 56.74 434.54 56.82 435.31 56.92 436.08 57.05 437.62 57.39 440.71 58.17 442.25 58.52 443.02 58.66 443.79 58.77 444.56 58.85 445.33 58.9 446.1 58.92 446.87 58.9 447.64 58.84 448.41 58.76 449.18 58.64 449.95 58.5 451.49 58.17 454.57 57.44 456.12 57.13 456.89 57.01 457.66 56.92 458.43 56.86 459.2 56.83 459.97 56.84 460.74 56.88 461.51 56.94 462.28 57.04 463.05 57.16 464.59 57.46 467.67 58.16 469.21 58.46 469.98 58.58 470.75 58.68 471.52 58.75 472.3 58.79 473.07 58.8 473.84 58.78 474.61 58.72 475.38 58.64 476.15 58.54 477.69 58.27 480 57.78"/><path class="svg-plot-line svg-plot-s0 svg-plot-d0" d="M 0 57.84 32.36 57.83 40.06 57.84 50.08 57.9 53.93 57.89 57.01 57.85 60.87 57.74 63.95 57.66 66.26 57.62 68.57 57.62 70.88 57.68 73.19 57.79 77.82 58.11 79.36 58.2 80.9 58.26 82.44 58.27 83.98 58.23 85.52 58.12 87.06 57.95 88.6 57.74 91.69 57.24 93.23 57.01 94.77 56.83 95.54 56.77 96.31 56.73 97.08 56.73 97.85 56.75 98.62 56.81 99.39 56.89 100.16 57.01 100.93 57.16 101.7 57.34 102.47 57.55 104.01 58.03 106.32 58.81 107.87 59.29 108.64 59.49 109.41 59.66 110.18 59.79 110.95 59.86 111.72 59.89 112.49 59.85 113.26 59.75 114.03 59.59 114.8 59.36 115.57 59.08 116.34 58.73 117.11 58.33 117.88 57.89 119.42 56.93 120.96 55.93 121.73 55.46 122.5 55.03 123.27 54.64 124.04 54.34 124.82 54.12 125.59 54 126.36 53.98 127.13 54.08 127.9 54.3 128.67 54.66 129.44 55.14 130.21 55.74 130.98 56.46 131.75 57.28 132.52 58.19 133.29 59.17 134.83 61.22 135.6 62.24 136.37 63.22 137.14 64.11 137.91 64.9 138.68 65.53 139.45 65.98 140.22 66.21 141 66.2 141.77 65.92 142.54 65.34 143.31 64.44 144.08 63.23 144.85 61.68 145.62 59.81 146.39 57.61 147.16 55.11 147.93 52.32 148.7 49.27 149.47 46.01 150.24 42.57 151.78 35.36 153.32 28.07 154.09 24.55 154.86 21.19 155.63 18.05 156.4 15.19 157.17 12.67 157.95 10.53 158.72 8.82 159.49 7.57 160.26 6.82 161.03 6.59 161.8 6.87 162.57 7.69 163.34 9.02 164.11 10.85 164.88 13.16 165.65 15.89 166.42 19.02 167.19 22.48 167.96 26.22 168.73 30.17 170.27 38.43 171.81 46.69 172.58 50.65 173.35 54.41 174.13 57.9 174.9 61.08 175.67 63.9 176.44 66.32 177.21 68.31 177.98 69.85 178.75 70.94 179.52 71.58 180.29 71.78 181.06 71.55 181.83 70.94 182.6 69.97 183.37 68.69 184.14 67.16 184.91 65.42 185.68 63.54 187.99 57.6 188.76 55.72 189.53 53.97 190.3 52.41 191.08 51.06 191.85 49.96 192.62 49.14 193.39 48.61 194.16 48.37 194.93 48.42 195.7 48.76 196.47 49.37 197.24 50.21 198.01 51.26 198.78 52.48 199.55 53.84 201.09 56.76 201.86 58.24 202.63 59.68 203.4 61.03 204.17 62.25 204.94 63.31 205.71 64.18 206.48 64.84 207.26 65.27 208.03 65.47 208.8 65.43 209.57 65.16 210.34 64.67 211.11 63.98 211.88 63.11 212.65 62.1 213.42 60.98 214.19 59.77 215.73 57.28 216.5 56.08 217.27 54.94 218.04 53.91 218.81 53.01 219.58 52.27 220.35 51.71 221.12 51.35 221.89 51.19 222.66 51.24 223.43 51.48 224.21 51.92 224.98 52.53 225.75 53.29 226.52 54.19 227.29 55.18 228.06 56.24 229.6 58.43 230.37 59.5 231.14 60.5 231.91 61.4 232.68 62.18 233.45 62.82 234.22 63.3 234.99 63.61 235.76 63.73 236.53 63.67 237.3 63.43 238.07 63.02 238.84 62.46 239.61 61.75 240.39 60.93 241.16 60.03 242.7 58.07 244.24 56.11 245.01 55.21 245.78 54.4 246.55 53.7 247.32 53.12 248.09 52.7 248.86 52.44 249.63 52.34 250.4 52.41 251.17 52.64 251.94 53.02 252.71 53.55 253.48 54.2 254.25 54.96 255.02 55.79 256.57 57.58 258.11 59.37 258.88 60.19 259.65 60.93 260.42 61.56 261.19 62.08 261.96 62.46 262.73 62.7 263.5 62.78 264.27 62.72 265.04 62.5 265.81 62.15 266.58 61.67 267.35 61.08 268.12 60.4 268.89 59.65 271.2 57.24 271.97 56.46 272.74 55.74 273.52 55.09 274.29 54.53 275.06 54.09 275.83 53.77 276.6 53.58 277.37 53.53 278.14 53.61 278.91 53.83 279.68 54.16 280.45 54.61 281.22 55.15 281.99 55.78 282.76 56.45 285.07 58.6 285.84 59.29 286.61 59.91 287.38 60.47 288.15 60.93 288.92 61.3 289.7 61.55 290.47 61.67 291.24 61.68 292.01 61.57 292.78 61.33 293.55 60.99 294.32 60.56 295.09 60.04 295.86 59.46 297.4 58.18 298.94 56.89 299.71 56.29 300.48 55.74 301.25 55.27 302.02 54.88 302.79 54.59 303.56 54.4 304.33 54.33 305.1 54.37 305.87 54.52 306.65 54.77 307.42 55.12 308.19 55.55 308.96 56.05 309.73 56.6 312.04 58.39 312.81 58.97 313.58 59.5 314.35 59.98 315.12 60.39 315.89 60.71 316.66 60.94 317.43 61.07 318.2 61.09 318.97 61.01 319.74 60.84 320.51 60.56 321.28 60.21 322.05 59.78 322.83 59.3 323.6 58.77 325.91 57.12 326.68 56.6 327.45 56.12 328.22 55.7 328.99 55.36 329.76 55.09 330.53 54.92 331.3 54.83 332.07 54.85 332.84 54.96 333.61 55.16 334.38 55.44 335.15 55.79 335.92 56.21 336.69 56.68 338.23 57.69 339.78 58.71 340.55 59.17 341.32 59.59 342.09 59.96 342.86 60.25 343.63 60.46 344.4 60.59 345.17 60.64 345.94 60.59 346.71 60.45 347.48 60.24 348.25 59.95 349.02 59.6 349.79 59.19 350.56 58.75 352.87 57.33 353.64 56.87 354.41 56.46 355.18 56.09 355.96 55.78 356.73 55.53 357.5 55.37 358.27 55.28 359.04 55.27 359.81 55.35 360.58 55.51 361.35 55.73 362.12 56.03 362.89 56.37 363.66 56.76 365.2 57.62 366.74 58.49 367.51 58.9 368.28 59.27 369.05 59.59 369.82 59.85 370.59 60.05 371.36 60.17 372.13 60.22 372.91 60.19 373.68 60.09 374.45 59.92 375.22 59.68 375.99 59.39 376.76 59.05 377.53 58.67 379.84 57.47 380.61 57.08 381.38 56.72 382.15 56.39 382.92 56.12 383.69 55.91 384.46 55.76 385.23 55.67 386 55.66 386.77 55.72 387.54 55.84 388.31 56.02 389.09 56.27 389.86 56.56 390.63 56.89 392.17 57.62 393.71 58.36 394.48 58.71 395.25 59.02 396.02 59.3 396.79 59.53 397.56 59.7 398.33 59.81 399.1 59.86 399.87 59.84 400.64 59.76 401.41 59.62 402.18 59.42 402.95 59.17 403.72 58.89 405.26 58.23 407.58 57.21 408.35 56.9 409.12 56.62 409.89 56.39 410.66 56.2 411.43 56.07 412.2 56 412.97 55.99 413.74 56.03 414.51 56.14 415.28 56.29 416.05 56.5 416.82 56.75 417.59 57.03 419.13 57.65 420.67 58.28 421.44 58.58 422.22 58.85 422.99 59.09 423.76 59.28 424.53 59.43 425.3 59.52 426.07 59.56 426.84 59.54 427.61 59.47 428.38 59.35 429.15 59.18 429.92 58.97 430.69 58.73 432.23 58.17 434.54 57.29 435.31 57.03 436.08 56.79 436.85 56.59 437.62 56.44 438.39 56.33 439.17 56.26 439.94 56.26 440.71 56.3 441.48 56.39 442.25 56.53 443.02 56.7 443.79 56.92 445.33 57.42 447.64 58.24 448.41 58.49 449.18 58.72 449.95 58.93 450.72 59.09 451.49 59.21 452.26 59.29 453.03 59.32 453.8 59.3 454.57 59.24 455.35 59.13 456.12 58.98 456.89 58.79 457.66 58.58 459.2 58.09 461.51 57.34 462.28 57.11 463.05 56.91 463.82 56.75 464.59 56.61 465.36 56.52 466.13 56.47 466.9 56.47 467.67 56.51 468.44 56.6 469.21 56.72 469.98 56.88 470.75 57.07 472.3 57.51 474.61 58.22 475.38 58.44 476.15 58.63 476.92 58.81 477.69 58.94 478.46 59.05 479.23 59.11 480 59.13"/></g></g></g><g transform="translate(42.4 135)"><g class="svg-plot-group"><line x1="0" x2="0" y1="80" y2="84" class="svg-plot-tick"/><line x1="435.374" x2="435.374" y1="80" y2="84" class="svg-plot-tick"/><line x1="480" x2="480" y1="80" y2="84" class="svg-plot-tick"/><line x1="0" x2="-4" y1="40" y2="40" class="svg-plot-tick"/><line x1="0" x2="-4" y1="80" y2="80" class="svg-plot-tick"/><line x1="0" x2="-4" y1="0" y2="0" class="svg-plot-tick"/><text class="svg-plot-label svg-plot-t" x="0" y="0" transform="rotate(-90) translate(-39 -37.4)">phase</text><text class="svg-plot-value" style="text-anchor:end" x="-9" y="-1">π</text><text class="svg-plot-value" style="text-anchor:end" x="-9" y="79">-π</text><text class="svg-plot-value" style="text-anchor:end" x="-9" y="39">0</text><text class="svg-plot-value" x="480" y="93">Nyquist</text><text class="svg-plot-value" x="435.374" y="93">cutoff</text><text class="svg-plot-value" x="0" y="93">0</text></g></g><g transform="translate(42.4 248)"><g class="svg-plot-group"><line x1="0" x2="0" y1="150" y2="154" class="svg-plot-tick"/><line x1="435.374" x2="435.374" y1="150" y2="154" class="svg-plot-tick"/><line x1="480" x2="480" y1="150" y2="154" class="svg-plot-tick"/><line x1="0" x2="-4" y1="150" y2="150" class="svg-plot-tick"/><line x1="0" x2="-4" y1="89.1412" y2="89.1412" class="svg-plot-tick"/><line x1="0" x2="-4" y1="150" y2="150" class="svg-plot-tick"/><line x1="0" x2="-4" y1="136.237" y2="136.237" class="svg-plot-tick"/><text class="svg-plot-label svg-plot-t" x="0" y="0" transform="rotate(-90) translate(-74 -37.2)">delay (samples)</text><text class="svg-plot-value" style="text-anchor:end" x="-9" y="135.237">2.94</text><text class="svg-plot-value" style="text-anchor:end" x="-9" y="149">0</text><text class="svg-plot-value" style="text-anchor:end" x="-9" y="88.1412">13</text><text class="svg-plot-value" style="text-anchor:end" x="-9" y="149">0</text><text class="svg-plot-value" x="480" y="163">Nyquist</text><text class="svg-plot-value" x="435.374" y="163">cutoff</text><text class="svg-plot-value" x="0" y="163">0</text></g></g><g transform="translate(42.4 5)"><g class="svg-plot-group"><line x1="0" x2="0" y1="80" y2="84" class="svg-plot-tick"/><line x1="160.257" x2="160.257" y1="80" y2="84" class="svg-plot-tick"/><line x1="0" x2="0" y1="80" y2="84" class="svg-plot-tick"/><line x1="36.2427" x2="36.2427" y1="80" y2="84" class="svg-plot-tick"/><line x1="0" x2="-4" y1="57.8434" y2="57.8434" class="svg-plot-tick"/><line x1="0" x2="-4" y1="0" y2="0" class="svg-plot-tick"/><text class="svg-plot-label svg-plot-t" x="0" y="0" transform="rotate(-90) translate(-39 -22.6)">impulse</text><text class="svg-plot-value" style="text-anchor:end" x="-9" y="-1">1</text><text class="svg-plot-value" style="text-anchor:end" x="-9" y="56.8434">0</text><text class="svg-plot-label svg-plot-t" x="240" y="109">samples</text><text class="svg-plot-value" x="36.2427" y="93">2.94</text><text class="svg-plot-value" x="0" y="93">0</text><text class="svg-plot-value" x="160.257" y="93">13</text><text class="svg-plot-value" x="0" y="93">0</text><rect x="374.36" y="4" width="101.64" height="38.8" class="svg-plot-legend"/><line x1="379.36" x2="397.36" y1="16.2" y2="16.2" class="svg-plot-line svg-plot-l0 svg-plot-s0 svg-plot-d0"/><line x1="379.36" x2="397.36" y1="30.6" y2="30.6" class="svg-plot-line svg-plot-l1 svg-plot-s1 svg-plot-d1"/><text class="svg-plot-label svg-plot-l1" style="text-anchor:start" x="402.36" y="29.4">uncorrected</text><text class="svg-plot-label svg-plot-l0" style="text-anchor:start" x="402.36" y="15">with allpass</text></g></g><defs><g id="svg-plot-marker0" class="svg-plot-marker"><circle cx="0" cy="0" r="1" stroke="none"/></g><g id="svg-plot-marker1" class="svg-plot-marker"><path d="M0 0.9 -0.9 0 0 -0.9 0.9 0Z" fill="#FFFA" stroke-linejoin="miter" stroke-width="0.5"/></g><g id="svg-plot-marker2" class="svg-plot-marker"><path fill="none" d="M0 -1.2 0 1.2 M -1.2 0 1.2 0" stroke-width="0.6"/></g><g id="svg-plot-marker3" class="svg-plot-marker"><circle cx="0" cy="0" fill="#FFFA" r="0.82" stroke-width="0.55"/></g><g id="svg-plot-marker4" class="svg-plot-marker"><path stroke="none" d="M0 -1.25 1.25 0.9 -1.25 0.9Z"/></g><mask id="svg-plot-hatch1"><rect x="-765" y="-765" width="1530" height="1530" fill="url(#svg-plot-hatch1-pattern)" style="transform:rotate(-50deg)"/></mask><pattern patternUnits="userSpaceOnUse" id="svg-plot-hatch1-pattern" class="svg-plot-hatch" x="0" y="0" width="10" height="3"><line x1="-1" x2="11" y1="1.5" y2="1.5" stroke="#FFF" fill="none"/><rect x="-1" y="-1" width="12" height="12" fill="#FFF2" stroke="none"/></pattern><mask id="svg-plot-hatch2"><rect x="-765" y="-765" width="1530" height="1530" fill="url(#svg-plot-hatch2-pattern)" style="transform:rotate(30deg)"/></mask><pattern patternUnits="userSpaceOnUse" id="svg-plot-hatch2-pattern" class="svg-plot-hatch" x="0" y="0" width="10" height="2.4"><line x1="-1" x2="11" y1="1.2" y2="1.2" stroke="#FFF" fill="none"/><rect x="-1" y="-1" width="12" height="12" fill="#FFF2" stroke="none"/></pattern><mask id="svg-plot-hatch3"><rect x="-765" y="-765" width="1530" height="1530" fill="url(#svg-plot-hatch3-pattern)" style="transform:rotate(8deg)"/><rect x="-765" y="-765" width="1530" height="1530" fill="url(#svg-plot-hatch3-pattern)" style="transform:rotate(93deg)"/></mask><pattern patternUnits="userSpaceOnUse" id="svg-plot-hatch3-pattern" class="svg-plot-hatch" x="0" y="0" width="10" height="3"><line x1="-1" x2="11" y1="1.5" y2="1.5" stroke="#FFF" fill="none"/><rect x="-1" y="-1" width="12" height="12" fill="#FFF2" stroke="none"/></pattern></defs><style>@import"/style/svg-plot/style.css";.svg-plot{stroke-linecap:butt;stroke-linejoin:round;}.svg-plot-bg{fill:none;stroke:none;}.svg-plot-axis{stroke:none;fill:#FFFFFFD9;}.svg-plot-legend{stroke:none;fill:#FFFFFFE4;}.svg-plot-line{stroke:blue;fill:none;stroke-width:1.5px;stroke-linejoin:round;}.svg-plot-fill{stroke:none;opacity:0.35;}.svg-plot-major{stroke:#000;stroke-width:1px;stroke-linecap:square;fill:none;}.svg-plot-minor{stroke:#0000004D;stroke-width:0.5px;stroke-dasharray:0.5 1.5;stroke-linecap:round;fill:none;}.svg-plot-tick{stroke:#000;fill:none;stroke-width:1px;stroke-linecap:butt;}.svg-plot-value,.svg-plot-label{font-family:Arial,sans-serif;fill:#000;stroke:#FFFFFF48;stroke-width:2.5px;paint-order:stroke fill;text-anchor:middle;dominant-baseline:central;alignment-baseline:baseline;}.svg-plot-label{font-size:12px;}.svg-plot-value{font-size:10px;}.svg-plot-hatch{stroke:#FFF;stroke-width:1px;}.svg-plot-marker{transform:scale(3.25);}.svg-plot-s{stroke:#000;}.svg-plot-f,.svg-plot-t{fill:#000;}.svg-plot-s0{stroke:#007AB0}.svg-plot-f0,.svg-plot-t0{fill:#007AB0}.svg-plot-s1{stroke:#BB102B}.svg-plot-f1,.svg-plot-t1{fill:#BB102B}.svg-plot-s2{stroke:#44A730}.svg-plot-f2,.svg-plot-t2{fill:#44A730}.svg-plot-s3{stroke:#87694F}.svg-plot-f3,.svg-plot-t3{fill:#87694F}.svg-plot-s4{stroke:#EDA720}.svg-plot-f4,.svg-plot-t4{fill:#EDA720}.svg-plot-s5{stroke:#A64D99}.svg-plot-f5,.svg-plot-t5{fill:#A64D99}.svg-plot-d0{stroke-width:1.35px}.svg-plot-d1{stroke-dasharray:1.8 1.8}.svg-plot-d2{stroke-dasharray:4.2 2.4}.svg-plot-d3{stroke-dasharray:7.5 6}.svg-plot-d4{stroke-dasharray:6 1.5 1.5 1.5 1.5 1.5}.svg-plot-d5{stroke-dasharray:15 4.5}.svg-plot-d6{stroke-dasharray:6 3 1.5 3}.svg-plot-h0{opacity:0.175}.svg-plot-h1{mask:url(#svg-plot-hatch1)}.svg-plot-h2{mask:url(#svg-plot-hatch2)}.svg-plot-h3{mask:url(#svg-plot-hatch3)}#svg-plot-hatch2-pattern{stroke-width:0.9px}#svg-plot-hatch3-pattern{stroke-width:0.7px}svg{font-family:"Transport New",Arial,sans-serif;font-weight:300;}.svg-plot-label,.svg-plot-value{font-family:inherit;}.svg-plot-fill:hover{opacity:55%;}.svg-plot-h0{opacity:15%;}.svg-plot-fill.svg-plot-h0:hover{opacity:20%;}.svg-plot-fill.svg-plot-f0{fill:#005AB0;}text.svg-plot-f0{fill:#006AA0;}.svg-plot-fill.svg-plot-f4{fill:#EDB410;}</style><script href="/style/svg-plot/style.js"/></svg>