<?xml version="1.0" encoding="utf-8" standalone="no"?>
<!DOCTYPE svg PUBLIC "-//W3C//DTD SVG 1.1//EN" "http://www.w3.org/Graphics/SVG/1.1/DTD/svg11.dtd">
<svg version="1.1" class="svg-plot" xmlns="http://www.w3.org/2000/svg" width="541.4pt" height="159pt" viewBox="-10 -10 541.4 159" preserveAspectRatio="xMidYMid"><rect x="0" y="0" width="521.4" height="139" class="svg-plot-bg"/><g transform="translate(37.4 4)"><g class="svg-plot-group"><rect x="0" y="0" width="480" height="120" class="svg-plot-axis"/><line x1="0" x2="0" y1="0" y2="120" class="svg-plot-major"/><line x1="435.374" x2="435.374" y1="0" y2="120" class="svg-plot-minor"/><line x1="480" x2="480" y1="0" y2="120" class="svg-plot-minor"/><line x1="0" x2="480" y1="4.33735" y2="4.33735" class="svg-plot-major"/><line x1="0" x2="480" y1="33.253" y2="33.253" class="svg-plot-minor"/><line x1="0" x2="480" y1="62.1687" y2="62.1687" class="svg-plot-minor"/><line x1="0" x2="480" y1="91.0843" y2="91.0843" class="svg-plot-minor"/><line x1="0" x2="480" y1="120" y2="120" class="svg-plot-minor"/><clipPath id="clip0"><rect x="-0.75" y="-0.75" width="481.5" height="121.5"/></clipPath><g clip-path="url(#clip0)"><path class="svg-plot-line svg-plot-s0 svg-plot-d0" d="M 0 4.33 19.8 4.36 61.99 4.46 81.86 4.48 101.37 4.46 141.27 4.36 159.2 4.34 176.95 4.37 212.05 4.47 227.7 4.49 243.16 4.46 272.64 4.35 285.47 4.34 298.18 4.37 321.74 4.48 332.11 4.48 342.3 4.45 360.23 4.36 367.97 4.35 375.64 4.39 389.18 4.49 394.98 4.5 400.55 4.47 410.04 4.37 413.96 4.37 417.71 4.41 424.1 4.51 426.62 4.52 428.91 4.48 432.36 4.39 433.54 4.4 434.41 4.44 435.12 4.51 435.76 4.61 436.35 4.74 436.88 4.9 437.4 5.1 437.87 5.32 438.34 5.59 438.81 5.89 439.28 6.25 439.75 6.65 440.27 7.17 440.8 7.74 441.39 8.44 441.97 9.2 442.68 10.19 443.44 11.34 444.38 12.84 445.61 14.89 449.06 20.81 451.05 24.17 452.87 27.15 454.63 29.97 456.5 32.89 458.5 35.92 460.72 39.23 463.36 43.07 467.99 49.71 473.32 57.34 474.61 59.13 475.49 60.3 476.19 61.17 476.78 61.84 477.3 62.38 477.77 62.8 478.18 63.12 478.54 63.35 478.89 63.54 479.24 63.67 479.53 63.75 479.82 63.79 479.94 63.79"/><path class="svg-plot-line svg-plot-s2 svg-plot-d2" d="M 0 110.45 0.41 110.43 0.82 110.36 1.23 110.24 1.64 110.08 2.05 109.87 2.46 109.6 2.87 109.29 3.28 108.92 3.75 108.45 4.22 107.91 4.75 107.23 5.33 106.4 5.98 105.42 6.8 104.08 7.97 102.07 10.14 98.3 11.31 96.34 12.36 94.65 13.42 93.03 14.41 91.58 15.41 90.18 16.41 88.86 17.46 87.52 18.52 86.25 19.57 85.04 20.68 83.82 21.8 82.67 22.91 81.57 24.08 80.47 25.25 79.42 26.48 78.37 27.71 77.38 29 76.38 30.35 75.4 31.7 74.46 33.11 73.54 34.51 72.66 35.98 71.79 37.5 70.93 39.02 70.12 40.61 69.33 42.19 68.58 43.83 67.85 45.47 67.16 47.17 66.49 48.87 65.86 50.63 65.26 52.38 64.69 54.2 64.15 56.02 63.65 57.89 63.18 59.77 62.75 61.7 62.34 63.63 61.98 65.57 61.66 67.5 61.38 69.49 61.13 71.48 60.92 73.48 60.75 75.47 60.62 77.46 60.53 79.45 60.48 81.45 60.47 83.44 60.5 85.43 60.57 87.42 60.68 89.41 60.83 91.35 61.01 93.28 61.24 95.21 61.5 97.09 61.8 98.96 62.14 100.84 62.52 102.66 62.93 104.47 63.37 106.29 63.86 108.05 64.38 109.8 64.93 111.5 65.51 113.2 66.13 114.84 66.78 116.48 67.46 118.07 68.16 119.65 68.91 121.23 69.7 122.75 70.51 124.28 71.36 125.74 72.22 127.21 73.13 128.67 74.09 130.08 75.06 131.48 76.07 132.89 77.14 134.3 78.25 135.7 79.42 137.11 80.64 138.52 81.91 139.92 83.24 141.33 84.62 142.73 86.06 144.14 87.56 145.49 89.05 146.78 90.54 147.95 91.94 149.06 93.34 150.06 94.66 151 95.96 151.88 97.25 152.75 98.61 153.63 100.05 154.8 102.07 155.8 103.77 156.27 104.51 156.62 105.01 156.91 105.37 157.21 105.68 157.44 105.86 157.68 106 157.85 106.06 158.03 106.09 158.2 106.08 158.38 106.04 158.55 105.95 158.79 105.79 159.02 105.56 159.26 105.28 159.55 104.85 159.9 104.25 160.31 103.46 160.9 102.22 162.54 98.55 163.42 96.65 164.24 94.98 165 93.51 165.76 92.13 166.58 90.72 167.4 89.39 168.22 88.13 169.1 86.85 169.98 85.65 170.92 84.43 171.86 83.27 172.85 82.11 173.85 81 174.9 79.89 175.96 78.84 177.07 77.79 178.18 76.78 179.36 75.78 180.59 74.79 181.82 73.84 183.11 72.9 184.39 72.01 185.74 71.13 187.09 70.3 188.5 69.48 189.9 68.71 191.37 67.95 192.83 67.23 194.36 66.53 195.88 65.87 197.46 65.24 199.04 64.64 200.68 64.07 202.32 63.54 204.02 63.03 205.72 62.57 207.42 62.14 209.18 61.75 210.94 61.39 212.75 61.06 214.57 60.78 216.39 60.53 218.2 60.33 220.02 60.16 221.84 60.04 223.65 59.95 225.47 59.91 227.29 59.9 229.04 59.93 230.8 60.01 232.5 60.12 234.2 60.27 235.84 60.45 237.42 60.67 238.95 60.92 240.47 61.21 241.93 61.53 243.34 61.88 244.69 62.25 245.98 62.65 247.21 63.07 248.44 63.53 249.61 64.02 250.72 64.52 251.78 65.04 252.83 65.6 253.83 66.17 254.77 66.76 255.7 67.39 256.58 68.03 257.46 68.72 258.28 69.41 259.1 70.16 259.92 70.95 260.74 71.81 261.5 72.66 262.27 73.58 263.09 74.62 263.96 75.81 265.37 77.81 266.25 79.03 266.78 79.72 267.19 80.19 267.54 80.55 267.83 80.8 268.13 81 268.36 81.12 268.59 81.21 268.83 81.25 269.06 81.26 269.3 81.23 269.53 81.15 269.77 81.03 270.06 80.84 270.35 80.59 270.7 80.22 271.11 79.73 271.58 79.08 272.23 78.12 274.04 75.26 274.98 73.84 275.8 72.66 276.62 71.55 277.44 70.51 278.26 69.53 279.08 68.62 279.9 67.77 280.78 66.91 281.66 66.11 282.54 65.37 283.48 64.63 284.41 63.94 285.35 63.29 286.35 62.66 287.34 62.08 288.34 61.53 289.39 61.01 290.45 60.52 291.5 60.08 292.62 59.66 293.73 59.28 294.84 58.95 295.96 58.66 297.07 58.4 298.18 58.19 299.3 58.01 300.41 57.88 301.52 57.78 302.64 57.72 303.75 57.7 304.86 57.72 306.04 57.78 307.21 57.88 308.38 58.03 309.55 58.21 310.78 58.44 312.07 58.73 313.59 59.11 316.7 59.96 318.05 60.3 319.04 60.51 319.86 60.65 320.63 60.74 321.33 60.79 321.97 60.79 322.62 60.75 323.2 60.67 323.79 60.56 324.38 60.4 325.02 60.19 325.66 59.93 326.31 59.63 327.01 59.26 327.77 58.82 328.65 58.25 329.71 57.52 331.11 56.49 334.51 53.94 336.15 52.75 337.62 51.73 338.96 50.85 340.25 50.05 341.54 49.29 342.83 48.59 344.06 47.96 345.29 47.37 346.52 46.83 347.75 46.33 348.98 45.87 350.21 45.45 351.45 45.08 352.68 44.74 353.91 44.45 355.14 44.21 356.31 44.01 357.48 43.85 358.65 43.73 359.82 43.66 361 43.62 362.11 43.62 363.22 43.67 364.34 43.75 365.39 43.87 366.45 44.03 367.5 44.22 368.5 44.45 369.49 44.72 370.43 45.01 371.37 45.35 372.3 45.72 373.18 46.12 374.06 46.56 374.88 47.02 375.7 47.53 376.46 48.04 377.23 48.61 377.93 49.18 378.63 49.8 379.34 50.47 379.98 51.14 380.63 51.87 381.27 52.66 381.91 53.52 382.56 54.44 383.26 55.53 384.14 56.97 385.14 58.62 385.61 59.32 385.96 59.78 386.25 60.1 386.48 60.3 386.72 60.44 386.89 60.5 387.07 60.52 387.25 60.5 387.42 60.44 387.6 60.34 387.77 60.2 388.01 59.95 388.24 59.62 388.54 59.14 388.89 58.46 389.3 57.56 389.88 56.15 391.46 52.19 392.29 50.23 393.11 48.38 393.87 46.75 394.69 45.09 395.51 43.52 396.39 41.92 397.32 40.3 398.26 38.77 399.26 37.21 400.31 35.63 401.43 34.04 402.6 32.43 403.83 30.82 405.06 29.27 406.35 27.71 407.7 26.14 409.04 24.63 410.39 23.19 411.74 21.8 413.14 20.41 414.55 19.08 415.96 17.8 417.42 16.52 418.95 15.25 420.53 13.98 422.34 12.58 424.86 10.69 428.09 8.29 429.9 6.89 431.6 5.52 434.65 3.01 435.7 2.18 436.52 1.58 437.23 1.11 437.81 0.76 438.4 0.47 438.93 0.24 439.45 0.06 439.92 -0.06 440.39 -0.14 440.92 -0.19 441.45 -0.2 441.97 -0.16 442.56 -0.09 443.2 0.03 443.96 0.21 445.02 0.52 447.83 1.4 449.3 1.83 450.64 2.19 451.99 2.5 453.34 2.76 454.8 3.01 456.33 3.23 458.03 3.43 459.9 3.61 462.01 3.77 464.41 3.91 467.17 4.03 470.39 4.13 474.14 4.19 478.36 4.23 480 4.23"/></g></g></g><g transform="translate(37.4 4)"><g class="svg-plot-group"><line x1="0" x2="-4" y1="4.33735" y2="4.33735" class="svg-plot-tick"/><line x1="0" x2="-4" y1="33.253" y2="33.253" class="svg-plot-tick"/><line x1="0" x2="-4" y1="62.1687" y2="62.1687" class="svg-plot-tick"/><line x1="0" x2="-4" y1="91.0843" y2="91.0843" class="svg-plot-tick"/><line x1="0" x2="-4" y1="120" y2="120" class="svg-plot-tick"/><text class="svg-plot-label svg-plot-t" x="0" y="0" transform="rotate(-90) translate(-59 -32.4)">dB</text><text class="svg-plot-value" style="text-anchor:end" x="-9" y="119">-80</text><text class="svg-plot-value" style="text-anchor:end" x="-9" y="90.0843">-60</text><text class="svg-plot-value" style="text-anchor:end" x="-9" y="61.1687">-40</text><text class="svg-plot-value" style="text-anchor:end" x="-9" y="32.253">-20</text><text class="svg-plot-value" style="text-anchor:end" x="-9" y="3.33735">0</text><rect x="290.12" y="77.2" width="185.88" height="38.8" class="svg-plot-legend"/><line x1="295.12" x2="313.12" y1="89.4" y2="89.4" class="svg-plot-line svg-plot-l0 svg-plot-s0 svg-plot-d0"/><line x1="295.12" x2="313.12" y1="103.8" y2="103.8" class="svg-plot-line svg-plot-l1 svg-plot-s2 svg-plot-d2"/><text class="svg-plot-label svg-plot-l1" style="text-anchor:start" x="318.12" y="102.6">difference from pure delay</text><text class="svg-plot-label svg-plot-l0" style="text-anchor:start" x="318.12" y="88.2">response</text></g></g><defs><g id="svg-plot-marker0" class="svg-plot-marker"><circle cx="0" cy="0" r="1" stroke="none"/></g><g id="svg-plot-marker1" class="svg-plot-marker"><path d="M0 0.9 -0.9 0 0 -0.9 0.9 0Z" fill="#FFFA" stroke-linejoin="miter" stroke-width="0.5"/></g><g id="svg-plot-marker2" class="svg-plot-marker"><path fill="none" d="M0 -1.2 0 1.2 M -1.2 0 1.2 0" stroke-width="0.6"/></g><g id="svg-plot-marker3" class="svg-plot-marker"><circle cx="0" cy="0" fill="#FFFA" r="0.82" stroke-width="0.55"/></g><g id="svg-plot-marker4" class="svg-plot-marker"><path stroke="none" d="M0 -1.25 1.25 0.9 -1.25 0.9Z"/></g><mask id="svg-plot-hatch1"><rect x="-738" y="-738" width="1476" height="1476" fill="url(#svg-plot-hatch1-pattern)" style="transform:rotate(-50deg)"/></mask><pattern patternUnits="userSpaceOnUse" id="svg-plot-hatch1-pattern" class="svg-plot-hatch" x="0" y="0" width="10" height="3"><line x1="-1" x2="11" y1="1.5" y2="1.5" stroke="#FFF" fill="none"/><rect x="-1" y="-1" width="12" height="12" fill="#FFF2" stroke="none"/></pattern><mask id="svg-plot-hatch2"><rect x="-738" y="-738" width="1476" height="1476" fill="url(#svg-plot-hatch2-pattern)" style="transform:rotate(30deg)"/></mask><pattern patternUnits="userSpaceOnUse" id="svg-plot-hatch2-pattern" class="svg-plot-hatch" x="0" y="0" width="10" height="2.4"><line x1="-1" x2="11" y1="1.2" y2="1.2" stroke="#FFF" fill="none"/><rect x="-1" y="-1" width="12" height="12" fill="#FFF2" stroke="none"/></pattern><mask id="svg-plot-hatch3"><rect x="-738" y="-738" width="1476" height="1476" fill="url(#svg-plot-hatch3-pattern)" style="transform:rotate(8deg)"/><rect x="-738" y="-738" width="1476" height="1476" fill="url(#svg-plot-hatch3-pattern)" style="transform:rotate(93deg)"/></mask><pattern patternUnits="userSpaceOnUse" id="svg-plot-hatch3-pattern" class="svg-plot-hatch" x="0" y="0" width="10" height="3"><line x1="-1" x2="11" y1="1.5" y2="1.5" stroke="#FFF" fill="none"/><rect x="-1" y="-1" width="12" height="12" fill="#FFF2" stroke="none"/></pattern></defs><style>@import"/style/svg-plot/style.css";.svg-plot{stroke-linecap:butt;stroke-linejoin:round;}.svg-plot-bg{fill:none;stroke:none;}.svg-plot-axis{stroke:none;fill:#FFFFFFD9;}.svg-plot-legend{stroke:none;fill:#FFFFFFE4;}.svg-plot-line{stroke:blue;fill:none;stroke-width:1.5px;stroke-linejoin:round;}.svg-plot-fill{stroke:none;opacity:0.35;}.svg-plot-major{stroke:#000;stroke-width:1px;stroke-linecap:square;fill:none;}.svg-plot-minor{stroke:#0000004D;stroke-width:0.5px;stroke-dasharray:0.5 1.5;stroke-linecap:round;fill:none;}.svg-plot-tick{stroke:#000;fill:none;stroke-width:1px;stroke-linecap:butt;}.svg-plot-value,.svg-plot-label{font-family:Arial,sans-serif;fill:#000;stroke:#FFFFFF48;stroke-width:2.5px;paint-order:stroke fill;text-anchor:middle;dominant-baseline:central;alignment-baseline:baseline;}.svg-plot-label{font-size:12px;}.svg-plot-value{font-size:10px;}.svg-plot-hatch{stroke:#FFF;stroke-width:1px;}.svg-plot-marker{transform:scale(3.25);}.svg-plot-s{stroke:#000;}.svg-plot-f,.svg-plot-t{fill:#000;}.svg-plot-s0{stroke:#007AB0}.svg-plot-f0,.svg-plot-t0{fill:#007AB0}.svg-plot-s1{stroke:#BB102B}.svg-plot-f1,.svg-plot-t1{fill:#BB102B}.svg-plot-s2{stroke:#44A730}.svg-plot-f2,.svg-plot-t2{fill:#44A730}.svg-plot-s3{stroke:#87694F}.svg-plot-f3,.svg-plot-t3{fill:#87694F}.svg-plot-s4{stroke:#EDA720}.svg-plot-f4,.svg-plot-t4{fill:#EDA720}.svg-plot-s5{stroke:#A64D99}.svg-plot-f5,.svg-plot-t5{fill:#A64D99}.svg-plot-d0{stroke-width:1.35px}.svg-plot-d1{stroke-dasharray:1.8 1.8}.svg-plot-d2{stroke-dasharray:4.2 2.4}.svg-plot-d3{stroke-dasharray:7.5 6}.svg-plot-d4{stroke-dasharray:6 1.5 1.5 1.5 1.5 1.5}.svg-plot-d5{stroke-dasharray:15 4.5}.svg-plot-d6{stroke-dasharray:6 3 1.5 3}.svg-plot-h0{opacity:0.175}.svg-plot-h1{mask:url(#svg-plot-hatch1)}.svg-plot-h2{mask:url(#svg-plot-hatch2)}.svg-plot-h3{mask:url(#svg-plot-hatch3)}#svg-plot-hatch2-pattern{stroke-width:0.9px}#svg-plot-hatch3-pattern{stroke-width:0.7px}svg{font-family:"Transport New",Arial,sans-serif;font-weight:300;}.svg-plot-label,.svg-plot-value{font-family:inherit;}.svg-plot-fill:hover{opacity:55%;}.svg-plot-h0{opacity:15%;}.svg-plot-fill.svg-plot-h0:hover{opacity:20%;}.svg-plot-fill.svg-plot-f0{fill:#005AB0;}text.svg-plot-f0{fill:#006AA0;}.svg-plot-fill.svg-plot-f4{fill:#EDB410;}</style><script href="/style/svg-plot/style.js"/></svg>