<?xml version="1.0" encoding="utf-8" standalone="no"?>
<!DOCTYPE svg PUBLIC "-//W3C//DTD SVG 1.1//EN" "http://www.w3.org/Graphics/SVG/1.1/DTD/svg11.dtd">
<svg version="1.1" class="svg-plot" xmlns="http://www.w3.org/2000/svg" width="541.4pt" height="159pt" viewBox="-10 -10 541.4 159" preserveAspectRatio="xMidYMid"><rect x="-10" y="-10" width="541.4" height="159" class="svg-plot-bg"/><g transform="translate(37.4 4)"><g class="svg-plot-group"><rect x="0" y="0" width="480" height="120" class="svg-plot-axis"/><line x1="0" x2="0" y1="0" y2="120" class="svg-plot-major"/><line x1="435.374" x2="435.374" y1="0" y2="120" class="svg-plot-minor"/><line x1="480" x2="480" y1="0" y2="120" class="svg-plot-minor"/><line x1="0" x2="480" y1="4.33735" y2="4.33735" class="svg-plot-major"/><line x1="0" x2="480" y1="33.253" y2="33.253" class="svg-plot-minor"/><line x1="0" x2="480" y1="62.1687" y2="62.1687" class="svg-plot-minor"/><line x1="0" x2="480" y1="91.0843" y2="91.0843" class="svg-plot-minor"/><line x1="0" x2="480" y1="120" y2="120" class="svg-plot-minor"/><clipPath id="clip0"><rect x="-0.75" y="-0.75" width="481.5" height="121.5"/></clipPath><g clip-path="url(#clip0)"><path class="svg-plot-line svg-plot-s0 svg-plot-d0" d="M 0 4.33 19.8 4.36 61.99 4.46 81.86 4.48 101.37 4.46 141.21 4.35 159.2 4.34 177.01 4.37 212.11 4.47 227.75 4.48 243.22 4.45 272.64 4.35 285.47 4.34 298.18 4.37 321.74 4.47 332.05 4.48 342.25 4.44 360.29 4.34 368.03 4.34 375.64 4.37 389.12 4.47 394.86 4.48 400.43 4.45 410.04 4.35 413.96 4.34 417.71 4.38 424.04 4.48 426.56 4.48 428.79 4.44 432.3 4.34 433.48 4.34 434.36 4.38 435.06 4.44 435.7 4.53 436.29 4.66 436.82 4.81 437.34 5.01 437.81 5.23 438.28 5.48 438.75 5.79 439.22 6.14 439.69 6.53 440.21 7.04 440.74 7.6 441.33 8.3 441.91 9.05 442.56 9.95 443.32 11.09 444.2 12.48 445.37 14.43 447.42 17.94 450.06 22.45 451.93 25.59 453.69 28.45 455.51 31.33 457.38 34.23 459.38 37.23 461.6 40.52 464.36 44.5 472.44 56.03 474.08 58.33 475.14 59.75 475.9 60.71 476.54 61.47 477.07 62.03 477.54 62.48 477.95 62.82 478.36 63.11 478.71 63.32 479.06 63.47 479.41 63.58 479.71 63.64 479.94 63.66"/><path class="svg-plot-line svg-plot-s2 svg-plot-d2" d="M 0 110.53 0.35 110.51 0.7 110.46 1.05 110.36 1.41 110.23 1.76 110.06 2.17 109.82 2.58 109.52 2.99 109.17 3.4 108.77 3.87 108.25 4.34 107.68 4.86 106.97 5.45 106.11 6.15 105.01 7.09 103.45 9.55 99.2 10.84 97.03 11.95 95.23 13.01 93.59 14.06 92.03 15.12 90.55 16.17 89.13 17.23 87.79 18.28 86.51 19.34 85.29 20.45 84.07 21.56 82.9 22.68 81.79 23.85 80.68 25.02 79.62 26.25 78.57 27.48 77.56 28.77 76.56 30.06 75.61 31.41 74.66 32.81 73.72 34.22 72.84 35.68 71.96 37.15 71.13 38.67 70.31 40.25 69.51 41.84 68.75 43.48 68.01 45.12 67.31 46.82 66.64 48.52 66 50.27 65.39 52.03 64.82 53.85 64.27 55.66 63.76 57.54 63.28 59.41 62.84 61.29 62.44 63.22 62.07 65.16 61.74 67.09 61.45 69.08 61.19 71.07 60.97 73.07 60.8 75.06 60.66 77.05 60.56 79.04 60.51 81.04 60.49 83.03 60.51 85.02 60.58 87.01 60.68 89 60.82 90.94 61 92.87 61.22 94.8 61.48 96.74 61.78 98.61 62.11 100.49 62.49 102.3 62.89 104.12 63.33 105.94 63.81 107.7 64.32 109.45 64.87 111.15 65.45 112.85 66.06 114.49 66.7 116.13 67.38 117.71 68.08 119.3 68.82 120.88 69.61 122.4 70.41 123.93 71.26 125.39 72.13 126.86 73.03 128.32 73.99 129.73 74.95 131.13 75.97 132.54 77.03 133.95 78.14 135.35 79.3 136.76 80.51 138.22 81.83 139.69 83.2 141.21 84.69 142.73 86.23 144.26 87.83 145.72 89.42 147.13 91.01 148.36 92.45 149.47 93.82 150.47 95.11 151.35 96.31 152.17 97.5 152.93 98.68 153.63 99.85 154.34 101.09 155.04 102.43 155.8 103.97 157.03 106.55 157.44 107.35 157.79 107.95 158.03 108.29 158.26 108.57 158.44 108.73 158.61 108.84 158.79 108.9 158.96 108.9 159.14 108.85 159.32 108.74 159.49 108.58 159.67 108.36 159.9 108 160.14 107.56 160.43 106.93 160.84 105.92 161.48 104.2 162.71 100.85 163.42 99.04 164.12 97.34 164.82 95.75 165.53 94.26 166.23 92.87 166.93 91.56 167.7 90.22 168.46 88.96 169.28 87.68 170.1 86.48 170.98 85.26 171.86 84.11 172.79 82.94 173.73 81.84 174.73 80.73 175.72 79.68 176.78 78.63 177.89 77.57 179 76.57 180.18 75.57 181.35 74.63 182.58 73.68 183.81 72.79 185.1 71.91 186.39 71.07 187.73 70.24 189.14 69.43 190.55 68.66 192.01 67.91 193.48 67.2 195 66.51 196.52 65.86 198.11 65.23 199.69 64.65 201.33 64.08 202.97 63.56 204.67 63.06 206.37 62.61 208.07 62.19 209.82 61.81 211.58 61.46 213.34 61.15 215.16 60.88 216.97 60.64 218.79 60.45 220.61 60.3 222.42 60.18 224.24 60.11 226.05 60.08 227.81 60.08 229.57 60.13 231.27 60.22 232.97 60.34 234.61 60.5 236.25 60.7 237.83 60.93 239.36 61.19 240.82 61.49 242.23 61.81 243.63 62.17 244.98 62.56 246.27 62.98 247.5 63.41 248.67 63.87 249.79 64.35 250.9 64.87 251.95 65.41 252.95 65.96 253.95 66.55 254.88 67.16 255.76 67.78 256.64 68.45 257.46 69.12 258.28 69.84 259.04 70.56 259.8 71.34 260.57 72.17 261.27 73 261.97 73.89 262.68 74.84 263.38 75.86 264.14 77.04 265.02 78.47 266.43 80.83 266.95 81.65 267.36 82.21 267.71 82.63 268.01 82.91 268.24 83.08 268.48 83.21 268.71 83.29 268.89 83.31 269.06 83.29 269.24 83.25 269.47 83.15 269.71 82.99 269.94 82.78 270.23 82.46 270.59 82 271 81.37 271.52 80.47 272.46 78.76 273.63 76.63 274.45 75.22 275.21 73.98 275.98 72.83 276.74 71.75 277.5 70.75 278.26 69.81 279.02 68.93 279.84 68.05 280.66 67.22 281.48 66.46 282.36 65.69 283.24 64.97 284.18 64.26 285.12 63.6 286.05 62.99 287.05 62.39 288.05 61.83 289.1 61.29 290.16 60.79 291.21 60.34 292.27 59.94 293.38 59.55 294.49 59.2 295.61 58.9 296.72 58.64 297.83 58.42 298.95 58.24 300.06 58.11 301.17 58.01 302.29 57.95 303.4 57.93 304.51 57.94 305.63 58 306.74 58.1 307.85 58.24 309.02 58.43 310.2 58.66 311.43 58.94 312.71 59.27 314.3 59.73 317.29 60.65 318.4 60.95 319.28 61.16 320.04 61.29 320.74 61.38 321.39 61.43 321.97 61.43 322.56 61.39 323.14 61.31 323.73 61.19 324.32 61.03 324.9 60.82 325.49 60.57 326.13 60.25 326.84 59.86 327.6 59.38 328.48 58.78 329.53 58.01 331 56.87 334.1 54.41 335.68 53.21 337.09 52.19 338.38 51.3 339.67 50.46 340.9 49.71 342.13 49 343.36 48.33 344.59 47.71 345.82 47.13 347.05 46.6 348.28 46.11 349.51 45.67 350.74 45.27 351.97 44.91 353.2 44.59 354.43 44.32 355.66 44.08 356.84 43.9 358.01 43.76 359.18 43.66 360.35 43.6 361.52 43.58 362.64 43.6 363.75 43.66 364.86 43.76 365.92 43.9 366.97 44.08 367.97 44.29 368.96 44.53 369.96 44.82 370.9 45.14 371.84 45.49 372.71 45.87 373.59 46.29 374.41 46.73 375.23 47.21 376 47.71 376.76 48.25 377.46 48.8 378.16 49.4 378.87 50.06 379.51 50.71 380.16 51.43 380.8 52.2 381.39 52.97 381.97 53.81 382.56 54.71 383.14 55.69 383.79 56.85 384.61 58.42 385.49 60.1 385.9 60.81 386.19 61.25 386.43 61.54 386.66 61.77 386.84 61.9 387.01 61.97 387.19 61.99 387.36 61.96 387.54 61.88 387.71 61.74 387.89 61.55 388.13 61.22 388.36 60.81 388.65 60.21 389 59.38 389.47 58.15 390.94 54.1 391.7 52.08 392.4 50.32 393.11 48.66 393.87 46.97 394.63 45.38 395.45 43.76 396.27 42.24 397.15 40.69 398.09 39.12 399.08 37.53 400.14 35.93 401.25 34.32 402.36 32.77 403.54 31.21 404.77 29.64 406.05 28.06 407.34 26.55 408.69 25.02 410.04 23.56 411.39 22.16 412.73 20.81 414.14 19.45 415.55 18.16 416.95 16.92 418.42 15.67 420 14.39 421.76 13.01 423.93 11.37 427.97 8.36 429.79 6.95 431.48 5.59 434.53 3.07 435.64 2.19 436.46 1.58 437.17 1.11 437.75 0.76 438.34 0.46 438.87 0.23 439.39 0.04 439.86 -0.08 440.33 -0.17 440.86 -0.22 441.39 -0.23 441.91 -0.2 442.5 -0.13 443.14 -0.02 443.91 0.17 444.9 0.45 447.6 1.31 449.12 1.77 450.47 2.13 451.82 2.45 453.16 2.72 454.57 2.97 456.09 3.2 457.73 3.4 459.55 3.58 461.6 3.75 463.89 3.89 466.52 4.01 469.63 4.11 473.26 4.18 477.42 4.22 479.94 4.23"/></g></g></g><g transform="translate(37.4 4)"><g class="svg-plot-group"><line x1="0" x2="-4" y1="4.33735" y2="4.33735" class="svg-plot-tick"/><line x1="0" x2="-4" y1="33.253" y2="33.253" class="svg-plot-tick"/><line x1="0" x2="-4" y1="62.1687" y2="62.1687" class="svg-plot-tick"/><line x1="0" x2="-4" y1="91.0843" y2="91.0843" class="svg-plot-tick"/><line x1="0" x2="-4" y1="120" y2="120" class="svg-plot-tick"/><text class="svg-plot-label svg-plot-t" x="0" y="0" transform="rotate(-90) translate(-59 -32.4)">dB</text><text class="svg-plot-value" style="text-anchor:end" x="-9" y="119">-80</text><text class="svg-plot-value" style="text-anchor:end" x="-9" y="90.0843">-60</text><text class="svg-plot-value" style="text-anchor:end" x="-9" y="61.1687">-40</text><text class="svg-plot-value" style="text-anchor:end" x="-9" y="32.253">-20</text><text class="svg-plot-value" style="text-anchor:end" x="-9" y="3.33735">0</text><rect x="290.12" y="77.2" width="185.88" height="38.8" class="svg-plot-legend"/><line x1="295.12" x2="313.12" y1="89.4" y2="89.4" class="svg-plot-line svg-plot-l0 svg-plot-s0 svg-plot-d0"/><line x1="295.12" x2="313.12" y1="103.8" y2="103.8" class="svg-plot-line svg-plot-l1 svg-plot-s2 svg-plot-d2"/><text class="svg-plot-label svg-plot-l1" style="text-anchor:start" x="318.12" y="102.6">difference from pure delay</text><text class="svg-plot-label svg-plot-l0" style="text-anchor:start" x="318.12" y="88.2">response</text></g></g><defs><g id="svg-plot-marker0" class="svg-plot-marker"><circle cx="0" cy="0" r="1" stroke="none"/></g><g id="svg-plot-marker1" class="svg-plot-marker"><path d="M0 0.9 -0.9 0 0 -0.9 0.9 0Z" fill="#FFFA" stroke-linejoin="miter" stroke-width="0.5"/></g><g id="svg-plot-marker2" class="svg-plot-marker"><path fill="none" d="M0 -1.2 0 1.2 M -1.2 0 1.2 0" stroke-width="0.6"/></g><g id="svg-plot-marker3" class="svg-plot-marker"><circle cx="0" cy="0" fill="#FFFA" r="0.82" stroke-width="0.55"/></g><g id="svg-plot-marker4" class="svg-plot-marker"><path stroke="none" d="M0 -1.25 1.25 0.9 -1.25 0.9Z"/></g><mask id="svg-plot-hatch1"><rect x="-738" y="-738" width="1476" height="1476" fill="url(#svg-plot-hatch1-pattern)" style="transform:rotate(-50deg)"/></mask><pattern patternUnits="userSpaceOnUse" id="svg-plot-hatch1-pattern" class="svg-plot-hatch" x="0" y="0" width="10" height="3"><line x1="-1" x2="11" y1="1.5" y2="1.5" stroke="#FFF" fill="none"/><rect x="-1" y="-1" width="12" height="12" fill="#FFF2" stroke="none"/></pattern><mask id="svg-plot-hatch2"><rect x="-738" y="-738" width="1476" height="1476" fill="url(#svg-plot-hatch2-pattern)" style="transform:rotate(30deg)"/></mask><pattern patternUnits="userSpaceOnUse" id="svg-plot-hatch2-pattern" class="svg-plot-hatch" x="0" y="0" width="10" height="2.4"><line x1="-1" x2="11" y1="1.2" y2="1.2" stroke="#FFF" fill="none"/><rect x="-1" y="-1" width="12" height="12" fill="#FFF2" stroke="none"/></pattern><mask id="svg-plot-hatch3"><rect x="-738" y="-738" width="1476" height="1476" fill="url(#svg-plot-hatch3-pattern)" style="transform:rotate(8deg)"/><rect x="-738" y="-738" width="1476" height="1476" fill="url(#svg-plot-hatch3-pattern)" style="transform:rotate(93deg)"/></mask><pattern patternUnits="userSpaceOnUse" id="svg-plot-hatch3-pattern" class="svg-plot-hatch" x="0" y="0" width="10" height="3"><line x1="-1" x2="11" y1="1.5" y2="1.5" stroke="#FFF" fill="none"/><rect x="-1" y="-1" width="12" height="12" fill="#FFF2" stroke="none"/></pattern></defs><style>.svg-plot{stroke-linecap:butt;stroke-linejoin:round;}.svg-plot-bg{fill:#FFF;stroke:none;}.svg-plot-axis{stroke:none;fill:#FFFFFFD9;}.svg-plot-legend{stroke:none;fill:#FFFFFFE4;}.svg-plot-line{stroke:blue;fill:none;stroke-width:1.5px;stroke-linejoin:round;}.svg-plot-fill{stroke:none;opacity:0.35;}.svg-plot-dot .svg-plot-fill{opacity:0.5;}.svg-plot-major{stroke:#000;stroke-width:1px;stroke-linecap:square;fill:none;}.svg-plot-minor{stroke:#0000004D;stroke-width:0.5px;stroke-dasharray:0.5 1.5;stroke-linecap:round;fill:none;}.svg-plot-tick{stroke:#000;fill:none;stroke-width:1px;stroke-linecap:butt;}.svg-plot-value,.svg-plot-label,.svg-plot-title{font-family:Arial,sans-serif;fill:#000;stroke:#FFFFFF48;stroke-width:2.5px;paint-order:stroke fill;text-anchor:middle;dominant-baseline:central;alignment-baseline:baseline;}.svg-plot-label{font-size:12px;}.svg-plot-value{font-size:10px;}.svg-plot-title{font-size:13px;}.svg-plot-hatch{stroke:#FFF;stroke-width:1px;}.svg-plot-marker{transform:scale(3.25);}.svg-plot-s{stroke:#000;}.svg-plot-f,.svg-plot-t{fill:#000;}.svg-plot-s0{stroke:#007AB0}.svg-plot-f0,.svg-plot-t0{fill:#007AB0}.svg-plot-s1{stroke:#BB102B}.svg-plot-f1,.svg-plot-t1{fill:#BB102B}.svg-plot-s2{stroke:#44A730}.svg-plot-f2,.svg-plot-t2{fill:#44A730}.svg-plot-s3{stroke:#87694F}.svg-plot-f3,.svg-plot-t3{fill:#87694F}.svg-plot-s4{stroke:#EDA720}.svg-plot-f4,.svg-plot-t4{fill:#EDA720}.svg-plot-s5{stroke:#A64D99}.svg-plot-f5,.svg-plot-t5{fill:#A64D99}.svg-plot-d0{stroke-width:1.35px}.svg-plot-d1{stroke-dasharray:1.8 1.8}.svg-plot-d2{stroke-dasharray:4.2 2.4}.svg-plot-d3{stroke-dasharray:7.5 6}.svg-plot-d4{stroke-dasharray:6 1.5 1.5 1.5 1.5 1.5}.svg-plot-d5{stroke-dasharray:15 4.5}.svg-plot-d6{stroke-dasharray:6 3 1.5 3}.svg-plot-h0{opacity:0.175}.svg-plot-h1{mask:url(#svg-plot-hatch1)}.svg-plot-h2{mask:url(#svg-plot-hatch2)}.svg-plot-h3{mask:url(#svg-plot-hatch3)}#svg-plot-hatch2-pattern{stroke-width:0.9px}#svg-plot-hatch3-pattern{stroke-width:0.7px}</style><style>@import"/style/svg-plot/style.css";svg{font-family:"Transport New",Arial,sans-serif;font-weight:300;}.svg-plot-label,.svg-plot-value{font-family:inherit;}.svg-plot-title{font-size:14px;font-family:"PT Sans";opacity:0.65;}.svg-plot-fill:hover{opacity:55%;}.svg-plot-h0{opacity:15%;}.svg-plot-fill.svg-plot-h0:hover{opacity:20%;}.svg-plot-fill.svg-plot-f0{fill:#005AB0;}text.svg-plot-f0{fill:#006AA0;}.svg-plot-fill.svg-plot-f4{fill:#EDB410;}</style><script href="/style/svg-plot/style.js"/></svg>