<?xml version="1.0" encoding="utf-8" standalone="no"?>
<!DOCTYPE svg PUBLIC "-//W3C//DTD SVG 1.1//EN" "http://www.w3.org/Graphics/SVG/1.1/DTD/svg11.dtd">
<svg version="1.1" class="svg-plot" xmlns="http://www.w3.org/2000/svg" width="560.5pt" height="437pt" viewBox="-10 -10 560.5 437" preserveAspectRatio="xMidYMid"><rect x="-10" y="-10" width="560.5" height="437" class="svg-plot-bg"/><g transform="translate(42.4 135)"><g class="svg-plot-group"><rect x="0" y="0" width="480" height="80" class="svg-plot-axis"/><line x1="0" x2="0" y1="0" y2="80" class="svg-plot-major"/><line x1="435.374" x2="435.374" y1="0" y2="80" class="svg-plot-minor"/><line x1="480" x2="480" y1="0" y2="80" class="svg-plot-minor"/><line x1="0" x2="480" y1="40" y2="40" class="svg-plot-major"/><line x1="0" x2="480" y1="80" y2="80" class="svg-plot-minor"/><line x1="0" x2="480" y1="0" y2="0" class="svg-plot-minor"/><clipPath id="clip0"><rect x="-0.75" y="-0.75" width="481.5" height="81.5"/></clipPath><g clip-path="url(#clip0)"><path class="svg-plot-line svg-plot-s1 svg-plot-d1" d="M0 0"/><path class="svg-plot-line svg-plot-s1 svg-plot-d1" d="M 408.4 0.07 410.27 1.54 412.15 3.06 414.02 4.63 415.84 6.21 417.66 7.84 419.47 9.52 421.23 11.2 422.87 12.82 424.39 14.39 425.8 15.89 427.09 17.32 428.26 18.68 429.32 19.97 430.31 21.25 431.25 22.52 432.13 23.78 432.95 25.02 433.77 26.33 434.59 27.72 435.41 29.2 436.23 30.76 437.11 32.52 438.16 34.72 440.51 39.77 441.5 41.85 442.32 43.48 443.09 44.91 443.85 46.26 444.55 47.42 445.25 48.51 445.96 49.52 446.66 50.47 447.36 51.36 448.13 52.25 448.89 53.08 449.71 53.91 450.53 54.69 451.41 55.46 452.29 56.18 453.22 56.9 454.22 57.61 455.27 58.32 456.45 59.05 457.68 59.78 459.08 60.56 460.72 61.42 463.01 62.56 465.94 64.01 467.4 64.78 468.57 65.44 469.57 66.05 470.45 66.63 471.21 67.18 471.91 67.73 472.62 68.33 473.26 68.94 473.85 69.55 474.43 70.21 475.02 70.94 475.61 71.73 476.19 72.6 476.78 73.55 477.36 74.58 478.01 75.8 478.71 77.23 479.71 79.36 479.94 79.87"/><path class="svg-plot-line svg-plot-s1 svg-plot-d1" d="M 190.55 0.02 201.91 2.71 212.11 5.16 221.19 7.38 229.34 9.42 236.84 11.33 243.81 13.15 250.37 14.9 256.7 16.63 262.85 18.36 268.89 20.09 274.92 21.86 280.96 23.68 287.05 25.55 293.2 27.49 299.36 29.47 305.51 31.49 311.43 33.47 317.05 35.4 322.32 37.24 327.25 39.01 331.82 40.69 336.15 42.32 340.2 43.89 344.06 45.43 347.81 46.97 351.39 48.48 354.9 50 358.36 51.54 361.76 53.11 365.16 54.71 368.55 56.36 371.95 58.05 375.35 59.79 378.69 61.54 381.97 63.31 385.14 65.05 388.13 66.75 390.94 68.39 393.57 69.97 396.04 71.5 398.32 72.96 400.49 74.39 402.6 75.83 404.59 77.24 406.52 78.65 408.28 79.98"/><path class="svg-plot-line svg-plot-s1 svg-plot-d1" d="M 0 40 34.98 47.02 77.4 55.49 92.99 58.63 105.59 61.22 116.84 63.56 127.5 65.82 137.93 68.08 148.48 70.4 159.38 72.84 170.8 75.43 182.75 78.2 190.43 79.99"/><path class="svg-plot-line svg-plot-s0 svg-plot-d0" d="M0 0"/><path class="svg-plot-line svg-plot-s0 svg-plot-d0" d="M 429.61 0.17 430.66 1.98 431.66 3.78 432.6 5.54 433.48 7.28 434.36 9.11 435.23 11.03 436.11 13.05 437.05 15.3 438.22 18.23 440.68 24.53 441.74 27.14 442.62 29.21 443.44 31.05 444.2 32.66 444.96 34.18 445.72 35.62 446.48 36.98 447.25 38.25 448.07 39.55 448.89 40.78 449.77 42.02 450.7 43.27 451.64 44.46 452.64 45.66 453.69 46.86 454.86 48.14 456.09 49.42 457.44 50.76 458.91 52.16 460.66 53.78 463.13 55.98 466.17 58.7 467.7 60.11 468.87 61.24 469.92 62.32 470.86 63.33 471.68 64.27 472.44 65.21 473.14 66.14 473.85 67.14 474.49 68.12 475.14 69.18 475.72 70.22 476.31 71.34 476.95 72.66 477.6 74.07 478.3 75.72 479.18 77.9 479.94 79.85"/><path class="svg-plot-line svg-plot-s0 svg-plot-d0" d="M 360.64 0.09 366.91 6.38 372.95 12.49 378.63 18.3 383.73 23.56 388.13 28.16 391.88 32.13 395.16 35.67 398.09 38.88 400.78 41.89 403.3 44.77 405.64 47.5 407.93 50.23 410.16 52.95 412.32 55.66 414.49 58.43 416.66 61.27 418.77 64.1 420.82 66.92 422.7 69.57 424.45 72.11 426.04 74.47 427.44 76.64 428.67 78.61 429.49 79.97"/><path class="svg-plot-line svg-plot-s0 svg-plot-d0" d="M 280.02 0.1 296.13 16.3 305.98 26.14 314.77 34.87 323.79 43.78 336.45 56.21 348.69 68.23 356.19 75.65 360.53 79.97"/><path class="svg-plot-line svg-plot-s0 svg-plot-d0" d="M 200.1 0.12 239.41 39.36 255.82 55.78 271.41 71.43 279.9 79.98"/><path class="svg-plot-line svg-plot-s0 svg-plot-d0" d="M 120.12 0.11 156.68 36.68 198.05 78.07 199.98 80"/><path class="svg-plot-line svg-plot-s0 svg-plot-d0" d="M 40.08 0.07 93.46 53.47 120 79.99"/><path class="svg-plot-line svg-plot-s0 svg-plot-d0" d="M 0 40 39.96 79.95"/></g></g></g><g transform="translate(42.4 248)"><g class="svg-plot-group"><rect x="0" y="0" width="480" height="150" class="svg-plot-axis"/><line x1="0" x2="0" y1="0" y2="150" class="svg-plot-major"/><line x1="435.374" x2="435.374" y1="0" y2="150" class="svg-plot-minor"/><line x1="480" x2="480" y1="0" y2="150" class="svg-plot-minor"/><line x1="0" x2="480" y1="150" y2="150" class="svg-plot-major"/><line x1="0" x2="480" y1="91.7776" y2="91.7776" class="svg-plot-minor"/><line x1="0" x2="480" y1="150" y2="150" class="svg-plot-minor"/><line x1="0" x2="480" y1="135.736" y2="135.736" class="svg-plot-minor"/><clipPath id="clip1"><rect x="-0.75" y="-0.75" width="481.5" height="151.5"/></clipPath><g clip-path="url(#clip1)"><path class="svg-plot-line svg-plot-s1 svg-plot-d1" d="M 0.06 138.29 17.11 138.31 48.63 138.39 61.76 138.39 72.89 138.35 83.26 138.27 93.52 138.16 104.24 137.99 116.43 137.77 135.76 137.35 155.57 136.94 171.04 136.65 196.41 136.22 206.37 136.01 214.51 135.81 221.78 135.58 228.63 135.34 235.25 135.06 241.88 134.74 248.79 134.36 256.35 133.91 265.9 133.29 287.29 131.87 305.45 130.69 311.78 130.25 316.7 129.87 320.92 129.5 324.73 129.13 328.3 128.75 331.64 128.35 334.86 127.92 338.03 127.47 341.19 126.97 344.36 126.43 347.64 125.83 351.15 125.15 355.02 124.35 359.82 123.32 369.26 121.23 376.35 119.63 379.8 118.82 382.38 118.17 384.55 117.59 386.48 117.03 388.24 116.49 389.82 115.95 391.35 115.4 392.75 114.85 394.16 114.25 395.51 113.63 396.8 113 398.09 112.32 399.38 111.6 400.61 110.86 401.89 110.04 403.18 109.17 404.47 108.25 405.82 107.25 407.29 106.1 408.87 104.81 410.68 103.27 412.85 101.38 415.31 99.17 417.25 97.39 418.65 96.05 419.77 94.94 420.7 93.95 421.52 93.03 422.29 92.11 422.99 91.21 423.63 90.31 424.22 89.43 424.8 88.48 425.39 87.45 425.92 86.44 426.45 85.34 426.97 84.14 427.5 82.83 427.97 81.56 428.44 80.18 428.91 78.69 429.38 77.07 429.84 75.32 430.31 73.41 430.78 71.35 431.31 68.84 431.84 66.11 432.36 63.16 432.95 59.62 433.54 55.82 434.24 50.97 435.47 42.05 436.23 36.61 436.76 33.11 437.17 30.63 437.52 28.74 437.81 27.35 438.05 26.39 438.28 25.56 438.52 24.89 438.69 24.49 438.87 24.19 438.98 24.04 439.1 23.93 439.22 23.86 439.34 23.85 439.45 23.87 439.57 23.94 439.69 24.06 439.86 24.32 440.04 24.68 440.21 25.13 440.45 25.9 440.68 26.82 440.92 27.91 441.21 29.48 441.56 31.64 441.91 34.07 442.32 37.18 442.85 41.52 443.61 48.18 445.02 60.68 445.78 67.1 446.43 72.21 447.01 76.57 447.6 80.63 448.18 84.4 448.71 87.56 449.24 90.49 449.77 93.21 450.29 95.74 450.82 98.08 451.35 100.25 451.88 102.27 452.4 104.13 452.93 105.87 453.46 107.47 453.98 108.96 454.51 110.34 455.04 111.62 455.57 112.81 456.09 113.9 456.62 114.91 457.15 115.85 457.68 116.7 458.2 117.48 458.73 118.19 459.26 118.83 459.73 119.34 460.2 119.79 460.66 120.19 461.13 120.54 461.54 120.79 461.95 121 462.36 121.17 462.77 121.28 463.13 121.35 463.48 121.37 463.83 121.36 464.18 121.3 464.53 121.2 464.88 121.06 465.23 120.87 465.59 120.63 465.94 120.34 466.29 119.99 466.64 119.58 466.99 119.1 467.34 118.56 467.7 117.94 468.05 117.25 468.4 116.47 468.75 115.6 469.1 114.63 469.51 113.37 469.92 111.95 470.33 110.37 470.74 108.59 471.15 106.62 471.56 104.43 471.97 102 472.38 99.32 472.79 96.36 473.2 93.11 473.61 89.56 474.08 85.1 474.55 80.22 475.02 74.91 475.55 68.47 476.19 60.04 477.42 43.39 477.89 37.47 478.24 33.43 478.54 30.43 478.83 27.84 479.06 26.12 479.24 25.04 479.41 24.17 479.59 23.51 479.71 23.18 479.82 22.96 479.94 22.83"/><path class="svg-plot-line svg-plot-s0 svg-plot-d0" d="M 0.06 91.82 18.4 91.8 48.69 91.74 66.04 91.75 100.78 91.82 118.01 91.81 140.86 91.76 162.07 91.72 176.37 91.73 191.25 91.78 215.33 91.9 225.41 91.91 234.08 91.88 242.58 91.81 252.48 91.68 268.07 91.46 274.8 91.41 280.43 91.39 285.53 91.42 290.39 91.49 295.25 91.6 300.35 91.75 306.21 91.97 319.04 92.52 324.38 92.71 328.65 92.83 332.4 92.9 335.86 92.92 339.2 92.91 342.42 92.85 345.64 92.75 348.93 92.62 352.38 92.43 356.13 92.18 360.47 91.86 365.98 91.4 372.01 90.86 376.17 90.45 379.22 90.11 381.68 89.81 383.79 89.5 385.66 89.2 387.36 88.88 388.95 88.55 390.41 88.2 391.82 87.82 393.16 87.42 394.45 87 395.74 86.54 396.97 86.05 398.2 85.52 399.43 84.95 400.66 84.33 401.89 83.66 403.13 82.95 404.36 82.19 405.64 81.34 406.99 80.42 408.46 79.36 410.1 78.12 411.97 76.65 414.14 74.9 416.25 73.15 417.83 71.79 419.06 70.69 420.12 69.69 421 68.8 421.76 67.98 422.46 67.17 423.11 66.37 423.75 65.51 424.34 64.65 424.92 63.72 425.45 62.81 425.98 61.82 426.5 60.75 427.03 59.57 427.5 58.43 427.97 57.19 428.44 55.84 428.91 54.38 429.38 52.78 429.84 51.06 430.31 49.18 430.78 47.15 431.31 44.66 431.84 41.96 432.36 39.04 432.89 35.89 433.48 32.15 434.18 27.36 435.23 19.79 436.17 13.1 436.7 9.59 437.11 7.1 437.46 5.18 437.75 3.77 438.05 2.56 438.28 1.75 438.52 1.09 438.69 0.7 438.87 0.4 438.98 0.25 439.1 0.15 439.22 0.09 439.34 0.08 439.45 0.11 439.57 0.19 439.69 0.31 439.86 0.58 440.04 0.94 440.21 1.41 440.45 2.18 440.68 3.12 440.92 4.22 441.21 5.8 441.56 7.98 441.91 10.42 442.32 13.55 442.85 17.91 443.67 25.13 445.02 37.15 445.78 43.61 446.43 48.75 447.01 53.13 447.6 57.21 448.18 61 448.71 64.17 449.24 67.12 449.77 69.86 450.29 72.41 450.82 74.77 451.35 76.96 451.88 78.99 452.4 80.87 452.93 82.62 453.46 84.24 453.98 85.75 454.51 87.15 455.04 88.44 455.57 89.64 456.09 90.75 456.62 91.77 457.15 92.72 457.68 93.59 458.2 94.38 458.73 95.1 459.26 95.75 459.73 96.27 460.2 96.74 460.66 97.15 461.13 97.5 461.54 97.77 461.95 97.99 462.36 98.16 462.77 98.29 463.13 98.35 463.48 98.38 463.83 98.38 464.18 98.33 464.53 98.24 464.88 98.1 465.23 97.92 465.59 97.68 465.94 97.39 466.29 97.05 466.64 96.64 466.99 96.17 467.34 95.64 467.7 95.02 468.05 94.33 468.4 93.56 468.75 92.69 469.1 91.73 469.45 90.66 469.86 89.27 470.27 87.72 470.68 85.98 471.09 84.04 471.5 81.88 471.91 79.49 472.32 76.85 472.73 73.94 473.14 70.74 473.55 67.23 474.02 62.83 474.49 58 474.96 52.75 475.49 46.36 476.13 37.99 477.42 20.56 477.89 14.63 478.24 10.59 478.54 7.59 478.83 5.01 479.06 3.28 479.24 2.21 479.41 1.33 479.59 0.67 479.71 0.35 479.82 0.12 479.94 0"/></g></g></g><g transform="translate(42.4 5)"><g class="svg-plot-group"><rect x="0" y="0" width="480" height="80" class="svg-plot-axis"/><line x1="0" x2="0" y1="0" y2="80" class="svg-plot-major"/><line x1="160.278" x2="160.278" y1="0" y2="80" class="svg-plot-minor"/><line x1="0" x2="0" y1="0" y2="80" class="svg-plot-minor"/><line x1="39.2682" x2="39.2682" y1="0" y2="80" class="svg-plot-minor"/><line x1="0" x2="480" y1="57.8333" y2="57.8333" class="svg-plot-major"/><line x1="0" x2="480" y1="0" y2="0" class="svg-plot-minor"/><clipPath id="clip2"><rect x="-0.75" y="-0.75" width="481.5" height="81.5"/></clipPath><g clip-path="url(#clip2)"><path class="svg-plot-line svg-plot-s1 svg-plot-d1" d="M 0 57.81 1.67 57.8 3.34 57.75 5.01 57.66 6.68 57.5 7.51 57.39 8.35 57.24 9.18 57.07 10.02 56.85 10.85 56.59 11.69 56.28 12.52 55.91 13.36 55.48 14.19 54.98 15.03 54.4 15.86 53.74 16.7 52.99 17.53 52.15 18.37 51.21 19.2 50.17 20.03 49.02 20.87 47.78 21.7 46.43 22.54 44.98 23.37 43.44 24.21 41.8 25.04 40.09 25.88 38.3 27.55 34.58 30.05 28.87 30.89 27.02 31.72 25.23 32.56 23.54 33.39 21.96 34.23 20.53 35.06 19.28 35.9 18.22 36.73 17.38 37.57 16.8 38.4 16.48 39.23 16.45 40.07 16.72 40.9 17.32 41.74 18.23 42.57 19.47 43.41 21.04 44.24 22.92 45.08 25.11 45.91 27.59 46.75 30.34 47.58 33.32 48.42 36.51 49.25 39.88 50.92 46.94 52.59 54.16 53.43 57.7 54.26 61.13 55.1 64.4 55.93 67.46 56.77 70.27 57.6 72.78 58.43 74.96 59.27 76.78 60.1 78.21 60.94 79.23 61.77 79.83 62.61 80 63.44 79.75 64.28 79.09 65.11 78.04 65.95 76.61 66.78 74.86 67.62 72.8 68.45 70.5 69.29 68 70.12 65.35 72.63 57.09 73.46 54.42 74.3 51.9 75.13 49.56 75.97 47.46 76.8 45.64 77.63 44.13 78.47 42.97 79.3 42.16 80.14 41.74 80.97 41.69 81.81 42.02 82.64 42.71 83.48 43.74 84.31 45.08 85.15 46.69 85.98 48.53 86.82 50.55 87.65 52.71 90.16 59.44 90.99 61.58 91.83 63.59 92.66 65.41 93.5 67.01 94.33 68.34 95.17 69.38 96 70.12 96.83 70.52 97.67 70.59 98.5 70.33 99.34 69.76 100.17 68.89 101.01 67.75 101.84 66.37 102.68 64.79 103.51 63.05 104.35 61.21 106.02 57.4 106.85 55.54 107.69 53.77 108.52 52.13 109.36 50.67 110.19 49.43 111.03 48.43 111.86 47.69 112.7 47.24 113.53 47.08 114.37 47.21 115.2 47.62 116.03 48.3 116.87 49.23 117.7 50.37 118.54 51.69 119.37 53.16 120.21 54.72 121.88 57.98 122.71 59.58 123.55 61.1 124.38 62.51 125.22 63.75 126.05 64.81 126.89 65.65 127.72 66.25 128.56 66.6 129.39 66.7 130.23 66.54 131.06 66.14 131.9 65.5 132.73 64.65 133.57 63.62 134.4 62.44 135.23 61.14 136.9 58.35 137.74 56.94 138.57 55.58 139.41 54.3 140.24 53.14 141.08 52.13 141.91 51.3 142.75 50.68 143.58 50.27 144.42 50.08 145.25 50.13 146.09 50.39 146.92 50.88 147.76 51.56 148.59 52.41 149.43 53.41 150.26 54.53 151.1 55.74 152.77 58.25 153.6 59.48 154.43 60.65 155.27 61.72 156.1 62.66 156.94 63.45 157.77 64.07 158.61 64.5 159.44 64.72 160.28 64.74 161.11 64.55 161.95 64.17 162.78 63.61 163.62 62.88 164.45 62.01 165.29 61.03 166.12 59.97 168.63 56.62 169.46 55.56 170.3 54.58 171.13 53.71 171.97 52.98 172.8 52.4 173.63 51.98 174.47 51.75 175.3 51.71 176.14 51.85 176.97 52.16 177.81 52.64 178.64 53.27 179.48 54.03 180.31 54.9 181.15 55.84 183.65 58.82 184.49 59.77 185.32 60.65 186.16 61.43 186.99 62.09 187.83 62.61 188.66 62.98 189.5 63.19 190.33 63.23 191.17 63.11 192 62.83 192.83 62.4 193.67 61.83 194.5 61.16 195.34 60.38 196.17 59.54 198.68 56.88 199.51 56.04 200.35 55.26 201.18 54.58 202.02 54 202.85 53.55 203.69 53.23 204.52 53.07 205.36 53.05 206.19 53.18 207.03 53.45 207.86 53.86 208.7 54.38 209.53 55 210.37 55.71 211.2 56.47 213.7 58.86 214.54 59.6 215.37 60.28 216.21 60.88 217.04 61.38 217.88 61.75 218.71 62.01 219.55 62.13 220.38 62.11 221.22 61.96 222.05 61.68 222.89 61.29 223.72 60.79 224.56 60.2 225.39 59.55 227.06 58.12 228.73 56.69 229.57 56.03 230.4 55.43 231.23 54.92 232.07 54.5 232.9 54.19 233.74 53.99 234.57 53.92 235.41 53.98 236.24 54.15 237.08 54.44 237.91 54.83 238.75 55.31 239.58 55.87 240.42 56.48 242.92 58.46 243.76 59.09 244.59 59.68 245.43 60.21 246.26 60.65 247.1 61 247.93 61.25 248.77 61.39 249.6 61.41 250.43 61.33 251.27 61.13 252.1 60.83 252.94 60.44 253.77 59.97 254.61 59.44 255.44 58.86 257.95 57.04 258.78 56.47 259.62 55.95 260.45 55.49 261.29 55.11 262.12 54.82 262.96 54.62 263.79 54.53 264.63 54.55 265.46 54.67 266.3 54.88 267.13 55.19 267.97 55.58 268.8 56.04 269.63 56.55 271.3 57.66 272.97 58.77 273.81 59.28 274.64 59.74 275.48 60.14 276.31 60.46 277.15 60.7 277.98 60.84 278.82 60.89 279.65 60.84 280.49 60.69 281.32 60.46 282.16 60.14 282.99 59.76 283.83 59.32 284.66 58.83 287.17 57.28 288 56.79 288.83 56.33 289.67 55.92 290.5 55.58 291.34 55.31 292.17 55.13 293.01 55.03 293.84 55.02 294.68 55.1 295.51 55.27 296.35 55.51 297.18 55.83 298.02 56.21 298.85 56.63 300.52 57.57 302.19 58.53 303.03 58.97 303.86 59.38 304.7 59.73 305.53 60.02 306.37 60.24 307.2 60.38 308.03 60.43 308.87 60.41 309.7 60.3 310.54 60.12 311.37 59.86 312.21 59.54 313.04 59.18 313.88 58.77 316.38 57.45 317.22 57.02 318.05 56.62 318.89 56.27 319.72 55.96 320.56 55.72 321.39 55.55 322.23 55.46 323.06 55.44 323.9 55.49 324.73 55.62 325.57 55.82 326.4 56.08 327.23 56.4 328.07 56.75 329.74 57.55 331.41 58.37 332.24 58.75 333.08 59.1 333.91 59.41 334.75 59.66 335.58 59.86 336.42 59.98 337.25 60.04 338.09 60.03 338.92 59.95 339.76 59.8 340.59 59.59 341.43 59.32 342.26 59.01 343.1 58.67 345.6 57.54 346.43 57.18 347.27 56.83 348.1 56.53 348.94 56.27 349.77 56.06 350.61 55.9 351.44 55.82 352.28 55.79 353.11 55.84 353.95 55.94 354.78 56.11 355.62 56.33 356.45 56.59 357.29 56.89 358.96 57.57 360.63 58.27 361.46 58.6 362.3 58.9 363.13 59.16 363.97 59.38 364.8 59.55 365.63 59.66 366.47 59.71 367.3 59.7 368.14 59.64 368.97 59.51 369.81 59.33 370.64 59.11 371.48 58.84 373.15 58.23 375.65 57.27 376.49 56.98 377.32 56.72 378.16 56.49 378.99 56.32 379.83 56.19 380.66 56.11 381.5 56.09 382.33 56.13 383.17 56.22 384 56.36 384.83 56.55 385.67 56.78 386.5 57.04 388.17 57.62 389.84 58.22 390.68 58.5 391.51 58.76 392.35 58.98 393.18 59.17 394.02 59.31 394.85 59.4 395.69 59.45 396.52 59.44 397.36 59.37 398.19 59.26 399.03 59.11 399.86 58.91 400.7 58.68 402.37 58.16 404.87 57.33 405.7 57.08 406.54 56.86 407.37 56.67 408.21 56.52 409.04 56.41 409.88 56.35 410.71 56.33 411.55 56.37 412.38 56.45 413.22 56.58 414.05 56.74 414.89 56.94 416.56 57.42 419.06 58.19 419.9 58.43 420.73 58.65 421.57 58.84 422.4 59 423.23 59.12 424.07 59.2 424.9 59.23 425.74 59.22 426.57 59.16 427.41 59.06 428.24 58.92 429.08 58.75 429.91 58.55 431.58 58.09 434.09 57.37 434.92 57.15 435.76 56.96 436.59 56.8 437.43 56.67 438.26 56.58 439.1 56.53 439.93 56.53 440.77 56.56 441.6 56.64 442.43 56.76 443.27 56.91 444.1 57.08 445.77 57.5 448.28 58.18 449.95 58.57 450.78 58.74 451.62 58.87 452.45 58.97 453.29 59.04 454.12 59.06 454.96 59.04 455.79 58.99 456.63 58.89 457.46 58.77 458.3 58.61 459.97 58.23 463.3 57.4 464.14 57.21 464.97 57.05 465.81 56.91 466.64 56.8 467.48 56.73 468.31 56.69 469.15 56.69 469.98 56.72 470.82 56.8 471.65 56.9 472.49 57.04 474.16 57.38 477.5 58.16 479.17 58.51 480 58.65"/><path class="svg-plot-line svg-plot-s0 svg-plot-d0" d="M 0 57.83 25.88 57.82 32.56 57.84 41.74 57.89 45.08 57.88 48.42 57.84 52.59 57.73 55.93 57.65 58.43 57.61 60.94 57.61 63.44 57.67 65.95 57.78 70.96 58.1 72.63 58.19 74.3 58.25 75.97 58.26 77.63 58.22 79.3 58.11 80.97 57.94 82.64 57.73 85.98 57.23 87.65 57 89.32 56.82 90.16 56.76 90.99 56.72 91.83 56.72 92.66 56.74 93.5 56.8 94.33 56.88 95.17 57 96 57.15 96.83 57.33 97.67 57.54 99.34 58.02 101.84 58.8 103.51 59.28 104.35 59.48 105.18 59.65 106.02 59.78 106.85 59.86 107.69 59.88 108.52 59.84 109.36 59.75 110.19 59.58 111.03 59.36 111.86 59.07 112.7 58.72 113.53 58.33 114.37 57.89 116.03 56.92 117.7 55.93 118.54 55.46 119.37 55.03 120.21 54.63 121.04 54.33 121.88 54.11 122.71 53.98 123.55 53.97 124.38 54.07 125.22 54.29 126.05 54.64 126.89 55.12 127.72 55.73 128.56 56.45 129.39 57.27 130.23 58.18 131.06 59.15 132.73 61.21 133.57 62.22 134.4 63.2 135.23 64.1 136.07 64.88 136.9 65.52 137.74 65.97 138.57 66.2 139.41 66.19 140.24 65.91 141.08 65.33 141.91 64.44 142.75 63.23 143.58 61.68 144.42 59.81 145.25 57.61 146.09 55.11 146.92 52.32 147.76 49.27 148.59 46.01 149.43 42.57 151.1 35.36 152.77 28.07 153.6 24.54 154.43 21.18 155.27 18.04 156.1 15.18 156.94 12.66 157.77 10.51 158.61 8.8 159.44 7.56 160.28 6.8 161.11 6.57 161.95 6.85 162.78 7.67 163.62 9 164.45 10.83 165.29 13.14 166.12 15.87 166.96 19 167.79 22.46 168.63 26.2 169.46 30.16 171.13 38.42 172.8 46.69 173.63 50.65 174.47 54.41 175.3 57.91 176.14 61.09 176.97 63.91 177.81 66.33 178.64 68.32 179.48 69.86 180.31 70.95 181.15 71.59 181.98 71.78 182.82 71.56 183.65 70.94 184.49 69.97 185.32 68.69 186.16 67.15 186.99 65.41 187.83 63.53 190.33 57.58 191.17 55.7 192 53.95 192.83 52.38 193.67 51.03 194.5 49.94 195.34 49.11 196.17 48.58 197.01 48.34 197.84 48.4 198.68 48.74 199.51 49.34 200.35 50.19 201.18 51.24 202.02 52.46 202.85 53.82 203.69 55.27 205.36 58.24 206.19 59.68 207.03 61.03 207.86 62.25 208.7 63.31 209.53 64.18 210.37 64.84 211.2 65.28 212.03 65.47 212.87 65.44 213.7 65.16 214.54 64.67 215.37 63.98 216.21 63.11 217.04 62.1 217.88 60.97 218.71 59.77 220.38 57.27 221.22 56.06 222.05 54.92 222.89 53.88 223.72 52.98 224.56 52.25 225.39 51.69 226.23 51.32 227.06 51.16 227.9 51.21 228.73 51.46 229.57 51.89 230.4 52.51 231.23 53.27 232.07 54.17 232.9 55.16 233.74 56.23 235.41 58.43 236.24 59.49 237.08 60.49 237.91 61.4 238.75 62.19 239.58 62.83 240.42 63.31 241.25 63.62 242.09 63.74 242.92 63.68 243.76 63.44 244.59 63.03 245.43 62.46 246.26 61.75 247.1 60.93 247.93 60.02 249.6 58.06 250.43 57.06 251.27 56.1 252.1 55.19 252.94 54.38 253.77 53.67 254.61 53.1 255.44 52.68 256.28 52.41 257.11 52.31 257.95 52.38 258.78 52.61 259.62 53 260.45 53.53 261.29 54.18 262.12 54.94 262.96 55.77 264.63 57.57 265.46 58.48 266.3 59.36 267.13 60.19 267.97 60.93 268.8 61.57 269.63 62.08 270.47 62.47 271.3 62.7 272.14 62.79 272.97 62.72 273.81 62.51 274.64 62.15 275.48 61.67 276.31 61.08 277.15 60.4 277.98 59.65 280.49 57.22 281.32 56.44 282.16 55.72 282.99 55.07 283.83 54.51 284.66 54.07 285.5 53.75 286.33 53.56 287.17 53.5 288 53.59 288.83 53.8 289.67 54.14 290.5 54.59 291.34 55.14 292.17 55.76 293.01 56.44 295.51 58.6 296.35 59.28 297.18 59.91 298.02 60.47 298.85 60.94 299.69 61.3 300.52 61.55 301.36 61.68 302.19 61.69 303.03 61.57 303.86 61.34 304.7 61 305.53 60.56 306.37 60.04 307.2 59.45 308.87 58.17 310.54 56.87 311.37 56.27 312.21 55.72 313.04 55.24 313.88 54.85 314.71 54.56 315.55 54.38 316.38 54.31 317.22 54.35 318.05 54.5 318.89 54.75 319.72 55.1 320.56 55.53 321.39 56.04 322.23 56.59 324.73 58.39 325.57 58.96 326.4 59.5 327.23 59.98 328.07 60.39 328.9 60.71 329.74 60.94 330.57 61.07 331.41 61.09 332.24 61.02 333.08 60.84 333.91 60.57 334.75 60.21 335.58 59.78 336.42 59.3 337.25 58.77 339.76 57.1 340.59 56.58 341.43 56.1 342.26 55.68 343.1 55.33 343.93 55.07 344.77 54.89 345.6 54.81 346.43 54.82 347.27 54.93 348.1 55.13 348.94 55.42 349.77 55.77 350.61 56.19 351.44 56.66 353.11 57.68 354.78 58.7 355.62 59.17 356.45 59.59 357.29 59.96 358.12 60.25 358.96 60.47 359.79 60.6 360.63 60.64 361.46 60.59 362.3 60.46 363.13 60.24 363.97 59.95 364.8 59.59 365.63 59.19 366.47 58.74 368.97 57.31 369.81 56.86 370.64 56.44 371.48 56.07 372.31 55.75 373.15 55.51 373.98 55.34 374.82 55.26 375.65 55.25 376.49 55.33 377.32 55.48 378.16 55.71 378.99 56.01 379.83 56.35 380.66 56.75 382.33 57.61 384 58.49 384.83 58.9 385.67 59.27 386.5 59.59 387.34 59.85 388.17 60.05 389.01 60.17 389.84 60.22 390.68 60.19 391.51 60.09 392.35 59.92 393.18 59.68 394.02 59.39 394.85 59.04 395.69 58.67 398.19 57.45 399.03 57.06 399.86 56.7 400.7 56.38 401.53 56.1 402.37 55.89 403.2 55.73 404.03 55.65 404.87 55.64 405.7 55.69 406.54 55.82 407.37 56 408.21 56.25 409.04 56.54 409.88 56.87 411.55 57.6 413.22 58.35 414.05 58.7 414.89 59.02 415.72 59.3 416.56 59.53 417.39 59.7 418.23 59.81 419.06 59.86 419.9 59.84 420.73 59.76 421.57 59.62 422.4 59.42 423.23 59.17 424.07 58.88 425.74 58.22 428.24 57.19 429.08 56.88 429.91 56.61 430.75 56.37 431.58 56.18 432.42 56.05 433.25 55.98 434.09 55.96 434.92 56.01 435.76 56.11 436.59 56.27 437.43 56.48 438.26 56.73 439.1 57.01 440.77 57.64 442.43 58.27 443.27 58.57 444.1 58.85 444.94 59.08 445.77 59.28 446.61 59.43 447.44 59.52 448.28 59.56 449.11 59.55 449.95 59.47 450.78 59.35 451.62 59.18 452.45 58.97 453.29 58.72 454.96 58.16 457.46 57.28 458.3 57.01 459.13 56.77 459.97 56.57 460.8 56.42 461.63 56.3 462.47 56.24 463.3 56.23 464.14 56.28 464.97 56.37 465.81 56.51 466.64 56.69 467.48 56.9 469.15 57.41 471.65 58.23 472.49 58.49 473.32 58.72 474.16 58.92 474.99 59.09 475.83 59.21 476.66 59.29 477.5 59.32 478.33 59.3 479.17 59.24 480 59.13"/></g></g></g><g transform="translate(42.4 135)"><g class="svg-plot-group"><line x1="0" x2="0" y1="80" y2="84" class="svg-plot-tick"/><line x1="435.374" x2="435.374" y1="80" y2="84" class="svg-plot-tick"/><line x1="480" x2="480" y1="80" y2="84" class="svg-plot-tick"/><line x1="0" x2="-4" y1="40" y2="40" class="svg-plot-tick"/><line x1="0" x2="-4" y1="80" y2="80" class="svg-plot-tick"/><line x1="0" x2="-4" y1="0" y2="0" class="svg-plot-tick"/><text class="svg-plot-label svg-plot-t" x="0" y="0" transform="rotate(-90) translate(-39 -37.4)">phase</text><text class="svg-plot-value" style="text-anchor:end" x="-9" y="-1">π</text><text class="svg-plot-value" style="text-anchor:end" x="-9" y="79">-π</text><text class="svg-plot-value" style="text-anchor:end" x="-9" y="39">0</text><text class="svg-plot-value" x="480" y="93">Nyquist</text><text class="svg-plot-value" x="435.374" y="93">cutoff</text><text class="svg-plot-value" x="0" y="93">0</text></g></g><g transform="translate(42.4 248)"><g class="svg-plot-group"><line x1="0" x2="0" y1="150" y2="154" class="svg-plot-tick"/><line x1="435.374" x2="435.374" y1="150" y2="154" class="svg-plot-tick"/><line x1="480" x2="480" y1="150" y2="154" class="svg-plot-tick"/><line x1="0" x2="-4" y1="150" y2="150" class="svg-plot-tick"/><line x1="0" x2="-4" y1="91.7776" y2="91.7776" class="svg-plot-tick"/><line x1="0" x2="-4" y1="150" y2="150" class="svg-plot-tick"/><line x1="0" x2="-4" y1="135.736" y2="135.736" class="svg-plot-tick"/><text class="svg-plot-label svg-plot-t" x="0" y="0" transform="rotate(-90) translate(-74 -37.2)">delay (samples)</text><text class="svg-plot-value" style="text-anchor:end" x="-9" y="134.736">2.94</text><text class="svg-plot-value" style="text-anchor:end" x="-9" y="149">0</text><text class="svg-plot-value" style="text-anchor:end" x="-9" y="90.7776">12</text><text class="svg-plot-value" style="text-anchor:end" x="-9" y="149">0</text><text class="svg-plot-value" x="480" y="163">Nyquist</text><text class="svg-plot-value" x="435.374" y="163">cutoff</text><text class="svg-plot-value" x="0" y="163">0</text></g></g><g transform="translate(42.4 5)"><g class="svg-plot-group"><line x1="0" x2="0" y1="80" y2="84" class="svg-plot-tick"/><line x1="160.278" x2="160.278" y1="80" y2="84" class="svg-plot-tick"/><line x1="0" x2="0" y1="80" y2="84" class="svg-plot-tick"/><line x1="39.2682" x2="39.2682" y1="80" y2="84" class="svg-plot-tick"/><line x1="0" x2="-4" y1="57.8333" y2="57.8333" class="svg-plot-tick"/><line x1="0" x2="-4" y1="0" y2="0" class="svg-plot-tick"/><text class="svg-plot-label svg-plot-t" x="0" y="0" transform="rotate(-90) translate(-39 -22.6)">impulse</text><text class="svg-plot-value" style="text-anchor:end" x="-9" y="-1">1</text><text class="svg-plot-value" style="text-anchor:end" x="-9" y="56.8333">0</text><text class="svg-plot-label svg-plot-t" x="240" y="109">samples</text><text class="svg-plot-value" x="39.2682" y="93">2.94</text><text class="svg-plot-value" x="0" y="93">0</text><text class="svg-plot-value" x="160.278" y="93">12</text><text class="svg-plot-value" x="0" y="93">0</text><rect x="374.36" y="4" width="101.64" height="38.8" class="svg-plot-legend"/><line x1="379.36" x2="397.36" y1="16.2" y2="16.2" class="svg-plot-line svg-plot-l0 svg-plot-s0 svg-plot-d0"/><line x1="379.36" x2="397.36" y1="30.6" y2="30.6" class="svg-plot-line svg-plot-l1 svg-plot-s1 svg-plot-d1"/><text class="svg-plot-label svg-plot-l1" style="text-anchor:start" x="402.36" y="29.4">uncorrected</text><text class="svg-plot-label svg-plot-l0" style="text-anchor:start" x="402.36" y="15">with allpass</text></g></g><defs><g id="svg-plot-marker0" class="svg-plot-marker"><circle cx="0" cy="0" r="1" stroke="none"/></g><g id="svg-plot-marker1" class="svg-plot-marker"><path d="M0 0.9 -0.9 0 0 -0.9 0.9 0Z" fill="#FFFA" stroke-linejoin="miter" stroke-width="0.5"/></g><g id="svg-plot-marker2" class="svg-plot-marker"><path fill="none" d="M0 -1.2 0 1.2 M -1.2 0 1.2 0" stroke-width="0.6"/></g><g id="svg-plot-marker3" class="svg-plot-marker"><circle cx="0" cy="0" fill="#FFFA" r="0.82" stroke-width="0.55"/></g><g id="svg-plot-marker4" class="svg-plot-marker"><path stroke="none" d="M0 -1.25 1.25 0.9 -1.25 0.9Z"/></g><mask id="svg-plot-hatch1"><rect x="-765" y="-765" width="1530" height="1530" fill="url(#svg-plot-hatch1-pattern)" style="transform:rotate(-50deg)"/></mask><pattern patternUnits="userSpaceOnUse" id="svg-plot-hatch1-pattern" class="svg-plot-hatch" x="0" y="0" width="10" height="3"><line x1="-1" x2="11" y1="1.5" y2="1.5" stroke="#FFF" fill="none"/><rect x="-1" y="-1" width="12" height="12" fill="#FFF2" stroke="none"/></pattern><mask id="svg-plot-hatch2"><rect x="-765" y="-765" width="1530" height="1530" fill="url(#svg-plot-hatch2-pattern)" style="transform:rotate(30deg)"/></mask><pattern patternUnits="userSpaceOnUse" id="svg-plot-hatch2-pattern" class="svg-plot-hatch" x="0" y="0" width="10" height="2.4"><line x1="-1" x2="11" y1="1.2" y2="1.2" stroke="#FFF" fill="none"/><rect x="-1" y="-1" width="12" height="12" fill="#FFF2" stroke="none"/></pattern><mask id="svg-plot-hatch3"><rect x="-765" y="-765" width="1530" height="1530" fill="url(#svg-plot-hatch3-pattern)" style="transform:rotate(8deg)"/><rect x="-765" y="-765" width="1530" height="1530" fill="url(#svg-plot-hatch3-pattern)" style="transform:rotate(93deg)"/></mask><pattern patternUnits="userSpaceOnUse" id="svg-plot-hatch3-pattern" class="svg-plot-hatch" x="0" y="0" width="10" height="3"><line x1="-1" x2="11" y1="1.5" y2="1.5" stroke="#FFF" fill="none"/><rect x="-1" y="-1" width="12" height="12" fill="#FFF2" stroke="none"/></pattern></defs><style>.svg-plot{stroke-linecap:butt;stroke-linejoin:round;}.svg-plot-bg{fill:#FFF;stroke:none;}.svg-plot-axis{stroke:none;fill:#FFFFFFD9;}.svg-plot-legend{stroke:none;fill:#FFFFFFE4;}.svg-plot-line{stroke:blue;fill:none;stroke-width:1.5px;stroke-linejoin:round;}.svg-plot-fill{stroke:none;opacity:0.35;}.svg-plot-dot .svg-plot-fill{opacity:0.5;}.svg-plot-major{stroke:#000;stroke-width:1px;stroke-linecap:square;fill:none;}.svg-plot-minor{stroke:#0000004D;stroke-width:0.5px;stroke-dasharray:0.5 1.5;stroke-linecap:round;fill:none;}.svg-plot-tick{stroke:#000;fill:none;stroke-width:1px;stroke-linecap:butt;}.svg-plot-value,.svg-plot-label,.svg-plot-title{font-family:Arial,sans-serif;fill:#000;stroke:#FFFFFF48;stroke-width:2.5px;paint-order:stroke fill;text-anchor:middle;dominant-baseline:central;alignment-baseline:baseline;}.svg-plot-label{font-size:12px;}.svg-plot-value{font-size:10px;}.svg-plot-title{font-size:13px;}.svg-plot-hatch{stroke:#FFF;stroke-width:1px;}.svg-plot-marker{transform:scale(3.25);}.svg-plot-s{stroke:#000;}.svg-plot-f,.svg-plot-t{fill:#000;}.svg-plot-s0{stroke:#007AB0}.svg-plot-f0,.svg-plot-t0{fill:#007AB0}.svg-plot-s1{stroke:#BB102B}.svg-plot-f1,.svg-plot-t1{fill:#BB102B}.svg-plot-s2{stroke:#44A730}.svg-plot-f2,.svg-plot-t2{fill:#44A730}.svg-plot-s3{stroke:#87694F}.svg-plot-f3,.svg-plot-t3{fill:#87694F}.svg-plot-s4{stroke:#EDA720}.svg-plot-f4,.svg-plot-t4{fill:#EDA720}.svg-plot-s5{stroke:#A64D99}.svg-plot-f5,.svg-plot-t5{fill:#A64D99}.svg-plot-d0{stroke-width:1.35px}.svg-plot-d1{stroke-dasharray:1.8 1.8}.svg-plot-d2{stroke-dasharray:4.2 2.4}.svg-plot-d3{stroke-dasharray:7.5 6}.svg-plot-d4{stroke-dasharray:6 1.5 1.5 1.5 1.5 1.5}.svg-plot-d5{stroke-dasharray:15 4.5}.svg-plot-d6{stroke-dasharray:6 3 1.5 3}.svg-plot-h0{opacity:0.175}.svg-plot-h1{mask:url(#svg-plot-hatch1)}.svg-plot-h2{mask:url(#svg-plot-hatch2)}.svg-plot-h3{mask:url(#svg-plot-hatch3)}#svg-plot-hatch2-pattern{stroke-width:0.9px}#svg-plot-hatch3-pattern{stroke-width:0.7px}</style><style>@import"/style/svg-plot/style.css";svg{font-family:"Transport New",Arial,sans-serif;font-weight:300;}.svg-plot-label,.svg-plot-value{font-family:inherit;}.svg-plot-title{font-size:14px;font-family:"PT Sans";opacity:0.65;}.svg-plot-fill:hover{opacity:55%;}.svg-plot-h0{opacity:15%;}.svg-plot-fill.svg-plot-h0:hover{opacity:20%;}.svg-plot-fill.svg-plot-f0{fill:#005AB0;}text.svg-plot-f0{fill:#006AA0;}.svg-plot-fill.svg-plot-f4{fill:#EDB410;}</style><script href="/style/svg-plot/style.js"/></svg>