<?xml version="1.0" encoding="utf-8" standalone="no"?>
<!DOCTYPE svg PUBLIC "-//W3C//DTD SVG 1.1//EN" "http://www.w3.org/Graphics/SVG/1.1/DTD/svg11.dtd">
<svg version="1.1" class="svg-plot" xmlns="http://www.w3.org/2000/svg" width="539.5pt" height="179pt" viewBox="-40 -14 539.5 179" preserveAspectRatio="xMidYMid"><rect x="-30" y="-4" width="519.5" height="159" class="svg-plot-bg"/><g class="svg-plot-group"><rect x="0" y="0" width="480" height="120" class="svg-plot-axis"/><line x1="0" x2="0" y1="0" y2="120" class="svg-plot-major"/><line x1="480" x2="480" y1="0" y2="120" class="svg-plot-minor"/><line x1="0" x2="480" y1="90" y2="90" class="svg-plot-major"/><line x1="0" x2="480" y1="30" y2="30" class="svg-plot-minor"/><clipPath id="clip0"><rect x="-0.75" y="-0.75" width="481.5" height="121.5"/></clipPath><g clip-path="url(#clip0)"><path class="svg-plot-line svg-plot-s3 svg-plot-d3" d="M 0 90 8.75 89.99 11.88 89.95 13.75 89.89 15 89.82 16.25 89.71 17.5 89.56 18.75 89.33 19.38 89.18 20 89.01 20.63 88.81 21.25 88.58 21.88 88.3 22.5 87.99 23.13 87.62 23.75 87.2 24.38 86.72 25 86.17 25.63 85.55 26.25 84.85 26.88 84.07 27.5 83.18 28.13 82.19 28.75 81.09 29.38 79.86 30 78.51 30.62 77.01 31.25 75.37 31.87 73.56 32.5 71.59 33.13 69.44 33.75 67.09 34.38 64.56 35 61.81 35.63 58.85 36.25 55.67 36.87 52.26 37.5 48.6 38.13 44.7 38.75 40.54 39.37 36.13 40 31.45 40.63 26.5 41.25 21.28 41.88 15.79 42.5 10.01 43.13 3.96 43.13 3.96 43.75 -2.38 18826.9 -90.22 18826.9 -90.22 18827.5 36.93"/><path class="svg-plot-line svg-plot-s2 svg-plot-d2" d="M 0 90 6.25 89.99 8.75 89.94 10.62 89.87 11.88 89.78 13.13 89.64 14.37 89.44 15 89.31 15.63 89.15 16.25 88.97 16.88 88.75 17.5 88.5 18.13 88.2 18.75 87.86 19.38 87.47 20 87.02 20.63 86.51 21.25 85.94 21.88 85.29 22.5 84.55 23.13 83.73 23.75 82.82 24.38 81.81 25 80.69 25.63 79.46 26.25 78.11 26.88 76.64 27.5 75.03 28.13 73.29 28.75 71.41 29.38 69.39 30 67.22 30.62 64.89 31.25 62.42 31.87 59.79 32.5 57.01 33.13 54.08 33.75 51 34.38 47.77 35 44.4 35.63 40.88 36.25 37.24 37.5 29.57 38.75 21.47 40 13 41.25 4.27 41.88 -0.17 42.5 -4.64 7817.5 -3.14 7817.5 -3.14 7818.12 -2.1"/><path class="svg-plot-line svg-plot-s1 svg-plot-d1" d="M 0 90 3.75 89.98 5.63 89.94 6.88 89.88 8.13 89.79 9.38 89.64 10 89.55 10.62 89.43 11.25 89.29 11.88 89.12 12.5 88.91 13.13 88.68 13.75 88.4 14.37 88.08 15 87.71 15.63 87.28 16.25 86.8 16.88 86.25 17.5 85.63 18.13 84.94 18.75 84.16 19.38 83.31 20 82.36 20.63 81.32 21.25 80.18 21.88 78.95 22.5 77.61 23.13 76.17 23.75 74.62 24.38 72.97 25 71.22 25.63 69.37 26.25 67.42 26.88 65.38 27.5 63.26 28.75 58.78 30 54.07 32.5 44.31 33.75 39.49 35 34.89 35.63 32.71 36.25 30.63 36.87 28.66 37.5 26.83 38.13 25.15 38.75 23.62 39.37 22.26 40 21.08 40.63 20.09 41.25 19.29 41.88 18.68 42.5 18.27 43.13 18.06 43.75 18.05 44.37 18.22 45 18.58 45.63 19.1 46.25 19.79 46.87 20.62 47.5 21.58 48.13 22.66 48.75 23.83 49.38 25.07 50.63 27.69 51.87 30.36 52.5 31.66 53.13 32.91 53.75 34.08 54.37 35.17 55 36.16 55.62 37.02 56.25 37.76 56.88 38.36 57.5 38.81 58.13 39.12 58.75 39.27 59.37 39.27 60 39.13 60.62 38.84 61.25 38.42 61.88 37.88 62.5 37.24 63.12 36.5 63.75 35.68 64.38 34.8 65.62 32.95 66.88 31.08 67.5 30.19 68.13 29.35 68.75 28.58 69.38 27.89 70 27.29 70.63 26.8 71.25 26.43 71.87 26.17 72.5 26.03 73.13 26.02 73.75 26.13 74.38 26.36 75 26.7 75.62 27.14 76.25 27.67 76.88 28.28 77.5 28.96 78.13 29.68 80 32 80.62 32.76 81.25 33.49 81.88 34.17 82.5 34.79 83.12 35.34 83.75 35.8 84.38 36.18 85 36.45 85.63 36.63 86.25 36.69 86.87 36.66 87.5 36.52 88.13 36.29 88.75 35.97 89.38 35.57 90 35.1 90.62 34.57 91.25 34 93.13 32.16 94.38 30.98 95 30.44 95.62 29.95 96.25 29.53 96.88 29.18 97.5 28.91 98.12 28.73 98.75 28.63 99.38 28.62 100 28.7 100.63 28.87 101.25 29.12 101.87 29.44 102.5 29.83 103.13 30.27 103.75 30.75 105 31.81 106.25 32.9 106.87 33.42 107.5 33.91 108.13 34.36 108.75 34.76 109.38 35.1 110 35.38 110.62 35.58 111.25 35.71 111.88 35.76 112.5 35.73 113.12 35.63 113.75 35.45 114.38 35.21 115 34.92 115.62 34.57 116.25 34.18 117.5 33.33 118.75 32.45 119.38 32.03 120 31.64 120.62 31.28 121.25 30.96 121.88 30.7 122.5 30.5 123.12 30.36 123.75 30.29 124.37 30.29 125 30.35 125.63 30.49 126.25 30.68 126.88 30.93 127.5 31.24 128.13 31.59 128.75 31.97 130 32.8 131.25 33.66 131.88 34.07 132.5 34.46 133.12 34.81 133.75 35.12 134.38 35.38 135 35.59 135.63 35.74 136.25 35.83 136.88 35.86 137.5 35.83 138.12 35.74 138.75 35.59 139.38 35.39 140 35.15 140.63 34.87 141.87 34.23 143.75 33.21 144.38 32.89 145 32.59 145.62 32.32 146.25 32.09 146.88 31.91 147.5 31.77 148.13 31.69 148.75 31.66 149.37 31.69 150 31.77 150.63 31.9 151.25 32.08 151.88 32.31 152.5 32.57 153.12 32.86 154.38 33.51 156.25 34.52 156.88 34.83 157.5 35.12 158.13 35.37 158.75 35.59 159.37 35.77 160 35.9 160.63 35.99 161.25 36.03 161.88 36.01 162.5 35.96 163.12 35.85 163.75 35.71 164.38 35.53 165 35.31 166.25 34.83 168.12 34.04 169.38 33.56 170 33.36 170.63 33.18 171.25 33.04 171.87 32.95 172.5 32.89 173.13 32.88 173.75 32.91 174.38 32.98 175 33.1 175.62 33.25 176.25 33.44 176.88 33.66 178.13 34.15 180.63 35.23 181.88 35.71 182.5 35.91 183.12 36.07 183.75 36.21 184.38 36.3 185 36.36 185.62 36.38 186.25 36.36 186.88 36.3 187.5 36.21 188.13 36.08 188.75 35.92 190 35.55 192.5 34.72 193.75 34.35 194.37 34.2 195 34.07 195.63 33.98 196.25 33.92 196.88 33.9 197.5 33.91 198.12 33.95 198.75 34.04 199.38 34.15 200 34.3 200.63 34.47 201.87 34.88 204.38 35.79 205.62 36.2 206.25 36.38 206.88 36.54 207.5 36.67 208.13 36.76 208.75 36.83 209.37 36.86 210 36.86 210.63 36.83 211.25 36.76 211.87 36.67 212.5 36.55 213.75 36.25 216.25 35.56 217.5 35.24 218.13 35.11 218.75 35 219.37 34.91 220 34.85 220.63 34.82 221.25 34.82 221.88 34.85 222.5 34.91 223.12 35.01 223.75 35.12 225 35.43 226.25 35.79 228.75 36.58 230 36.92 230.63 37.06 231.25 37.18 231.87 37.28 232.5 37.34 233.12 37.38 233.75 37.4 234.38 37.38 235 37.34 235.62 37.27 236.88 37.07 238.13 36.8 240.62 36.22 241.88 35.97 242.5 35.87 243.12 35.79 243.75 35.74 244.37 35.71 245 35.7 245.63 35.72 246.25 35.77 246.87 35.84 247.5 35.94 248.75 36.19 250 36.5 252.5 37.18 253.75 37.48 255 37.72 255.63 37.81 256.25 37.88 256.87 37.93 257.5 37.95 258.13 37.94 258.75 37.91 260 37.79 261.25 37.61 263.13 37.25 265 36.9 266.25 36.71 267.5 36.59 268.12 36.56 268.75 36.55 269.38 36.57 270 36.61 270.63 36.66 271.88 36.84 273.13 37.08 275 37.51 276.88 37.95 278.12 38.19 279.38 38.38 280 38.44 280.63 38.48 281.25 38.51 281.87 38.51 283.13 38.46 284.38 38.34 285.62 38.17 288.75 37.67 290 37.51 291.25 37.41 292.5 37.38 293.75 37.42 295 37.54 296.25 37.72 297.5 37.95 300.62 38.58 301.88 38.8 303.13 38.96 304.37 39.06 305.63 39.1 306.88 39.06 308.12 38.96 309.38 38.82 312.5 38.41 313.75 38.28 315 38.2 316.25 38.17 317.5 38.21 318.75 38.32 320 38.48 321.25 38.68 324.37 39.23 325.63 39.42 326.88 39.57 328.12 39.66 329.38 39.7 330.62 39.67 331.88 39.59 333.75 39.41 336.25 39.14 337.5 39.03 338.75 38.96 340 38.94 341.25 38.98 342.5 39.08 343.75 39.22 345.62 39.5 348.13 39.89 349.37 40.06 350.63 40.19 351.88 40.28 353.12 40.31 354.38 40.29 355.63 40.23 357.5 40.07 360 39.84 361.25 39.76 362.5 39.7 363.75 39.69 365 39.73 366.25 39.82 367.5 39.95 369.37 40.2 371.88 40.55 373.12 40.71 374.38 40.82 375.63 40.9 376.87 40.93 378.13 40.92 379.38 40.86 381.25 40.74 383.75 40.54 385 40.47 386.25 40.43 387.5 40.43 388.75 40.47 390 40.55 391.25 40.67 393.13 40.89 395.63 41.21 396.88 41.35 398.12 41.46 399.38 41.53 400.63 41.56 401.87 41.55 403.13 41.51 405 41.4 407.5 41.23 409.37 41.15 410.63 41.14 411.88 41.16 413.12 41.22 414.38 41.32 416.25 41.51 419.38 41.87 421.25 42.05 422.5 42.13 423.75 42.18 425 42.19 426.25 42.17 428.12 42.09 431.25 41.92 433.12 41.85 434.38 41.84 435.63 41.87 436.87 41.93 438.13 42.02 440 42.19 443.75 42.59 445.63 42.74 446.87 42.8 448.12 42.83 449.38 42.82 451.25 42.77 455 42.6 456.88 42.55 458.12 42.54 459.38 42.57 460.63 42.62 462.5 42.76 465 43 467.5 43.24 469.38 43.37 470.63 43.43 471.88 43.46 473.75 43.45 475.63 43.4 479.38 43.25 481.25 43.23 481.88 43.23 482.5 43.24"/><path class="svg-plot-line svg-plot-s0 svg-plot-d0" d="M 0 89.98 1.25 89.97 2.5 89.93 3.75 89.86 5 89.74 5.63 89.66 6.25 89.55 6.88 89.42 7.5 89.27 8.13 89.08 8.75 88.86 9.38 88.59 10 88.28 10.62 87.93 11.25 87.51 11.88 87.04 12.5 86.51 13.13 85.9 13.75 85.23 14.37 84.48 15 83.65 15.63 82.74 16.25 81.75 16.88 80.67 17.5 79.52 18.13 78.28 18.75 76.96 19.38 75.57 20 74.11 21.25 71.02 22.5 67.76 24.38 62.79 25.63 59.59 26.25 58.09 26.88 56.67 27.5 55.35 28.13 54.17 28.75 53.13 29.38 52.26 30 51.57 30.62 51.08 31.25 50.81 31.87 50.77 32.5 50.98 33.13 51.43 33.75 52.15 34.38 53.12 35 54.36 35.63 55.86 36.25 57.61 36.87 59.6 37.5 61.83 38.13 64.26 38.75 66.88 39.37 69.67 40 72.6 41.25 78.75 43.13 88.21 43.75 91.28 44.37 94.25 45 97.08 45.63 99.73 46.25 102.18 46.87 104.39 47.5 106.34 48.13 107.99 48.75 109.34 49.38 110.36 50 111.05 50.63 111.4 51.25 111.4 51.87 111.07 52.5 110.41 53.13 109.43 53.75 108.17 54.37 106.63 55 104.86 55.62 102.87 56.25 100.72 56.88 98.44 58.13 93.65 59.37 88.84 60 86.53 60.62 84.34 61.25 82.31 61.88 80.48 62.5 78.87 63.12 77.5 63.75 76.41 64.38 75.61 65 75.11 65.62 74.91 66.25 75.02 66.88 75.42 67.5 76.11 68.13 77.06 68.75 78.26 69.38 79.68 70 81.29 70.63 83.04 71.25 84.91 73.13 90.8 73.75 92.72 74.38 94.55 75 96.26 75.62 97.82 76.25 99.18 76.88 100.34 77.5 101.26 78.13 101.92 78.75 102.33 79.38 102.47 80 102.34 80.62 101.96 81.25 101.33 81.88 100.46 82.5 99.39 83.12 98.14 83.75 96.73 84.38 95.2 85.63 91.93 86.87 88.62 87.5 87.04 88.13 85.55 88.75 84.2 89.38 83 90 81.98 90.62 81.17 91.25 80.57 91.87 80.2 92.5 80.07 93.13 80.17 93.75 80.5 94.38 81.04 95 81.79 95.62 82.72 96.25 83.81 96.88 85.03 97.5 86.35 98.75 89.16 100 91.99 100.63 93.32 101.25 94.56 101.87 95.68 102.5 96.65 103.13 97.45 103.75 98.07 104.38 98.5 105 98.72 105.62 98.73 106.25 98.54 106.87 98.15 107.5 97.58 108.13 96.84 108.75 95.95 109.38 94.93 110 93.82 111.25 91.41 112.5 88.95 113.12 87.78 113.75 86.69 114.38 85.7 115 84.83 115.62 84.11 116.25 83.55 116.87 83.16 117.5 82.96 118.13 82.94 118.75 83.1 119.38 83.43 120 83.93 120.62 84.59 121.25 85.37 121.88 86.27 122.5 87.26 123.75 89.41 125 91.6 125.63 92.64 126.25 93.61 126.88 94.48 127.5 95.25 128.13 95.88 128.75 96.37 129.37 96.7 130 96.87 130.63 96.87 131.25 96.71 131.88 96.39 132.5 95.92 133.12 95.32 133.75 94.6 134.38 93.79 135 92.89 136.25 90.96 137.5 89.01 138.12 88.09 138.75 87.24 139.38 86.47 140 85.81 140.63 85.27 141.25 84.86 141.87 84.6 142.5 84.48 143.13 84.51 143.75 84.69 144.38 85.01 145 85.46 145.62 86.02 146.25 86.69 146.88 87.44 147.5 88.26 149.37 90.86 150 91.71 150.63 92.52 151.25 93.25 151.88 93.9 152.5 94.45 153.12 94.89 153.75 95.21 154.38 95.39 155 95.44 155.62 95.36 156.25 95.15 156.88 94.82 157.5 94.37 158.13 93.83 158.75 93.2 159.37 92.5 160.63 90.98 161.88 89.43 162.5 88.69 163.12 88 163.75 87.38 164.38 86.84 165 86.4 165.63 86.07 166.25 85.85 166.88 85.75 167.5 85.77 168.12 85.91 168.75 86.16 169.38 86.52 170 86.97 170.63 87.51 171.25 88.11 171.87 88.76 173.75 90.84 174.38 91.52 175 92.16 175.62 92.74 176.25 93.25 176.88 93.67 177.5 94.01 178.13 94.24 178.75 94.37 179.37 94.38 180 94.29 180.63 94.1 181.25 93.8 181.88 93.42 182.5 92.96 183.12 92.43 183.75 91.85 185 90.61 186.25 89.35 186.88 88.76 187.5 88.22 188.13 87.74 188.75 87.33 189.37 87 190 86.77 190.63 86.63 191.25 86.59 191.88 86.65 192.5 86.8 193.12 87.05 193.75 87.38 194.37 87.78 195 88.25 195.63 88.77 196.88 89.9 198.12 91.05 198.75 91.6 199.38 92.1 200 92.56 200.63 92.95 201.25 93.26 201.87 93.5 202.5 93.65 203.12 93.7 203.75 93.67 204.38 93.55 205 93.34 205.62 93.05 206.25 92.69 206.88 92.27 207.5 91.8 208.75 90.77 210 89.71 210.63 89.2 211.25 88.73 211.87 88.3 212.5 87.92 213.12 87.62 213.75 87.39 214.38 87.23 215 87.17 215.62 87.18 216.25 87.28 216.88 87.46 217.5 87.71 218.13 88.03 218.75 88.4 219.37 88.83 220.63 89.77 221.88 90.75 222.5 91.23 223.12 91.67 223.75 92.08 224.37 92.43 225 92.73 225.63 92.95 226.25 93.11 226.88 93.18 227.5 93.19 228.12 93.11 228.75 92.96 229.38 92.74 230 92.45 230.63 92.11 231.25 91.73 232.5 90.87 234.38 89.52 235 89.1 235.62 88.72 236.25 88.38 236.88 88.1 237.5 87.88 238.13 87.72 238.75 87.64 239.37 87.63 240 87.68 240.62 87.81 241.25 88.01 241.88 88.26 242.5 88.56 243.12 88.91 244.37 89.7 246.25 90.95 246.87 91.34 247.5 91.7 248.12 92.02 248.75 92.29 249.38 92.5 250 92.65 250.62 92.74 251.25 92.76 251.88 92.72 252.5 92.61 253.13 92.44 253.75 92.21 254.37 91.94 255 91.62 255.63 91.27 256.87 90.51 258.13 89.74 258.75 89.38 259.38 89.04 260 88.74 260.62 88.49 261.25 88.29 261.88 88.14 262.5 88.05 263.13 88.02 263.75 88.05 264.37 88.15 265 88.3 265.63 88.5 266.25 88.75 266.88 89.04 268.12 89.7 270 90.77 270.63 91.1 271.25 91.42 271.88 91.7 272.5 91.93 273.13 92.13 273.75 92.27 274.37 92.36 275 92.39 275.63 92.37 276.25 92.29 276.88 92.15 277.5 91.97 278.12 91.74 278.75 91.48 280 90.87 281.87 89.89 283.13 89.28 283.75 89.02 284.38 88.8 285 88.62 285.62 88.48 286.25 88.39 286.88 88.36 287.5 88.38 288.13 88.45 288.75 88.57 289.37 88.73 290 88.94 290.63 89.18 291.88 89.74 293.75 90.65 295 91.21 295.63 91.45 296.25 91.66 296.87 91.83 297.5 91.96 298.13 92.04 298.75 92.08 299.38 92.06 300 92 300.62 91.89 301.25 91.74 301.88 91.55 302.5 91.33 303.75 90.82 305.63 89.97 306.88 89.45 307.5 89.23 308.12 89.03 308.75 88.87 309.38 88.75 310 88.68 310.63 88.64 311.25 88.65 311.88 88.71 312.5 88.81 313.12 88.95 313.75 89.12 314.38 89.33 315.63 89.8 318.13 90.83 318.75 91.06 319.38 91.27 320 91.45 320.62 91.6 321.25 91.71 321.88 91.79 322.5 91.82 323.13 91.81 323.75 91.76 324.37 91.66 325 91.54 325.63 91.38 326.25 91.19 327.5 90.75 330 89.79 330.62 89.57 331.25 89.38 331.88 89.21 332.5 89.07 333.13 88.97 333.75 88.9 334.37 88.87 335 88.88 335.63 88.93 336.25 89.01 336.88 89.13 337.5 89.28 338.12 89.46 339.38 89.87 341.87 90.76 343.13 91.14 343.75 91.3 344.38 91.43 345 91.52 345.62 91.59 346.25 91.61 346.88 91.6 347.5 91.56 348.13 91.48 348.75 91.36 349.37 91.22 350.63 90.87 352.5 90.26 353.75 89.84 355 89.49 355.63 89.34 356.25 89.22 356.87 89.13 357.5 89.08 358.13 89.05 358.75 89.06 359.38 89.1 360 89.18 360.62 89.28 361.25 89.42 362.5 89.74 364.37 90.32 365.63 90.71 366.88 91.04 367.5 91.18 368.12 91.29 368.75 91.37 369.37 91.42 370 91.44 370.63 91.43 371.25 91.39 371.88 91.32 372.5 91.22 373.12 91.1 374.38 90.79 376.87 90.06 378.13 89.72 379.38 89.45 380 89.34 380.62 89.27 381.25 89.22 381.88 89.2 382.5 89.21 383.13 89.25 383.75 89.32 384.37 89.41 385.63 89.66 386.87 89.98 389.38 90.67 390.62 90.96 391.25 91.08 391.88 91.17 392.5 91.25 393.13 91.29 393.75 91.31 394.37 91.3 395 91.26 395.63 91.19 396.25 91.11 397.5 90.87 398.75 90.56 401.25 89.92 402.5 89.65 403.13 89.53 403.75 89.44 404.38 89.38 405 89.33 405.62 89.32 406.25 89.33 406.88 89.37 407.5 89.43 408.12 89.51 409.37 89.74 410.63 90.02 413.12 90.63 414.38 90.89 415.63 91.08 416.25 91.14 416.87 91.18 417.5 91.19 418.13 91.18 418.75 91.15 419.38 91.09 420.62 90.91 421.88 90.66 424.37 90.09 425.62 89.82 426.88 89.61 427.5 89.53 428.12 89.47 428.75 89.43 429.37 89.42 430 89.43 430.63 89.47 431.25 89.52 432.5 89.69 433.75 89.92 436.25 90.47 437.5 90.72 438.75 90.92 440 91.05 440.62 91.08 441.25 91.1 441.88 91.08 442.5 91.05 443.75 90.93 445 90.73 446.25 90.49 448.75 89.98 450 89.76 451.25 89.6 451.88 89.55 452.5 89.52 453.13 89.51 453.75 89.52 455 89.6 456.25 89.75 457.5 89.96 460.63 90.57 461.87 90.77 463.13 90.92 464.37 91 465.62 91 466.88 90.92 468.12 90.78 469.38 90.58 472.5 90.01 473.75 89.81 475 89.67 476.25 89.6 477.5 89.6 478.75 89.67 480 89.81 481.25 90 481.88 90.1 482.5 90.21"/></g></g><g class="svg-plot-group"><line x1="0" x2="0" y1="120" y2="124" class="svg-plot-tick"/><line x1="480" x2="480" y1="120" y2="124" class="svg-plot-tick"/><line x1="0" x2="-4" y1="90" y2="90" class="svg-plot-tick"/><line x1="0" x2="-4" y1="30" y2="30" class="svg-plot-tick"/><text class="svg-plot-label svg-plot-t" x="0" y="0" transform="rotate(-90) translate(-59 -25)">response (48kHz)</text><text class="svg-plot-value" style="text-anchor:end" x="-9" y="29"> 1</text><text class="svg-plot-value" style="text-anchor:end" x="-9" y="89">0</text><text class="svg-plot-label svg-plot-t" x="240" y="149">time</text><text class="svg-plot-value" x="480" y="133">1ms</text><text class="svg-plot-value" x="0" y="133">0</text><rect x="298.28" y="4" width="177.72" height="67.6" class="svg-plot-legend"/><line x1="303.28" x2="321.28" y1="16.2" y2="16.2" class="svg-plot-line svg-plot-l0 svg-plot-s0 svg-plot-d0"/><line x1="303.28" x2="321.28" y1="30.6" y2="30.6" class="svg-plot-line svg-plot-l1 svg-plot-s1 svg-plot-d1"/><line x1="303.28" x2="321.28" y1="45" y2="45" class="svg-plot-line svg-plot-l2 svg-plot-s2 svg-plot-d2"/><line x1="303.28" x2="321.28" y1="59.4" y2="59.4" class="svg-plot-line svg-plot-l3 svg-plot-s3 svg-plot-d3"/><text class="svg-plot-label svg-plot-l3" style="text-anchor:start" x="326.28" y="58.2">3rd-order BLEP</text><text class="svg-plot-label svg-plot-l2" style="text-anchor:start" x="326.28" y="43.8">2nd-order BLEP (BLAMP)</text><text class="svg-plot-label svg-plot-l1" style="text-anchor:start" x="326.28" y="29.4">1st-order BLEP</text><text class="svg-plot-label svg-plot-l0" style="text-anchor:start" x="326.28" y="15">impulse</text></g><defs><g id="svg-plot-marker0" class="svg-plot-marker"><circle cx="0" cy="0" r="1" stroke="none"/></g><g id="svg-plot-marker1" class="svg-plot-marker"><path d="M0 0.9 -0.9 0 0 -0.9 0.9 0Z" fill="#FFFA" stroke-linejoin="miter" stroke-width="0.5"/></g><g id="svg-plot-marker2" class="svg-plot-marker"><path fill="none" d="M0 -1.2 0 1.2 M -1.2 0 1.2 0" stroke-width="0.6"/></g><g id="svg-plot-marker3" class="svg-plot-marker"><circle cx="0" cy="0" fill="#FFFA" r="0.82" stroke-width="0.55"/></g><g id="svg-plot-marker4" class="svg-plot-marker"><path stroke="none" d="M0 -1.25 1.25 0.9 -1.25 0.9Z"/></g><mask id="svg-plot-hatch1"><rect x="-693" y="-693" width="1386" height="1386" fill="url(#svg-plot-hatch1-pattern)" style="transform:rotate(-50deg)"/></mask><pattern patternUnits="userSpaceOnUse" id="svg-plot-hatch1-pattern" class="svg-plot-hatch" x="0" y="0" width="10" height="3"><line x1="-1" x2="11" y1="1.5" y2="1.5" stroke="#FFF" fill="none"/><rect x="-1" y="-1" width="12" height="12" fill="#FFF2" stroke="none"/></pattern><mask id="svg-plot-hatch2"><rect x="-693" y="-693" width="1386" height="1386" fill="url(#svg-plot-hatch2-pattern)" style="transform:rotate(30deg)"/></mask><pattern patternUnits="userSpaceOnUse" id="svg-plot-hatch2-pattern" class="svg-plot-hatch" x="0" y="0" width="10" height="2.4"><line x1="-1" x2="11" y1="1.2" y2="1.2" stroke="#FFF" fill="none"/><rect x="-1" y="-1" width="12" height="12" fill="#FFF2" stroke="none"/></pattern><mask id="svg-plot-hatch3"><rect x="-693" y="-693" width="1386" height="1386" fill="url(#svg-plot-hatch3-pattern)" style="transform:rotate(8deg)"/><rect x="-693" y="-693" width="1386" height="1386" fill="url(#svg-plot-hatch3-pattern)" style="transform:rotate(93deg)"/></mask><pattern patternUnits="userSpaceOnUse" id="svg-plot-hatch3-pattern" class="svg-plot-hatch" x="0" y="0" width="10" height="3"><line x1="-1" x2="11" y1="1.5" y2="1.5" stroke="#FFF" fill="none"/><rect x="-1" y="-1" width="12" height="12" fill="#FFF2" stroke="none"/></pattern></defs><style>@import"/style/svg-plot/style.css";.svg-plot{stroke-linecap:butt;stroke-linejoin:round;}.svg-plot-bg{fill:none;stroke:none;}.svg-plot-axis{stroke:none;fill:#FFFFFFD9;}.svg-plot-legend{stroke:none;fill:#FFFFFFE4;}.svg-plot-line{stroke:blue;fill:none;stroke-width:1.5px;stroke-linejoin:round;}.svg-plot-fill{stroke:none;opacity:0.35;}.svg-plot-major{stroke:#000;stroke-width:1px;stroke-linecap:square;fill:none;}.svg-plot-minor{stroke:#0000004D;stroke-width:0.5px;stroke-dasharray:0.5 1.5;stroke-linecap:round;fill:none;}.svg-plot-tick{stroke:#000;fill:none;stroke-width:1px;stroke-linecap:butt;}.svg-plot-value,.svg-plot-label{font-family:Arial,sans-serif;fill:#000;stroke:#FFFFFF48;stroke-width:2.5px;paint-order:stroke fill;text-anchor:middle;dominant-baseline:central;alignment-baseline:baseline;}.svg-plot-label{font-size:12px;}.svg-plot-value{font-size:10px;}.svg-plot-hatch{stroke:#FFF;stroke-width:1px;}.svg-plot-marker{transform:scale(3.25);}.svg-plot-s{stroke:#000;}.svg-plot-f,.svg-plot-t{fill:#000;}.svg-plot-s0{stroke:#007AB0}.svg-plot-f0,.svg-plot-t0{fill:#007AB0}.svg-plot-s1{stroke:#BB102B}.svg-plot-f1,.svg-plot-t1{fill:#BB102B}.svg-plot-s2{stroke:#44A730}.svg-plot-f2,.svg-plot-t2{fill:#44A730}.svg-plot-s3{stroke:#87694F}.svg-plot-f3,.svg-plot-t3{fill:#87694F}.svg-plot-s4{stroke:#EDA720}.svg-plot-f4,.svg-plot-t4{fill:#EDA720}.svg-plot-s5{stroke:#A64D99}.svg-plot-f5,.svg-plot-t5{fill:#A64D99}.svg-plot-d0{stroke-width:1.35px}.svg-plot-d1{stroke-dasharray:1.8 1.8}.svg-plot-d2{stroke-dasharray:4.2 2.4}.svg-plot-d3{stroke-dasharray:7.5 6}.svg-plot-d4{stroke-dasharray:6 1.5 1.5 1.5 1.5 1.5}.svg-plot-d5{stroke-dasharray:15 4.5}.svg-plot-d6{stroke-dasharray:6 3 1.5 3}.svg-plot-h0{opacity:0.175}.svg-plot-h1{mask:url(#svg-plot-hatch1)}.svg-plot-h2{mask:url(#svg-plot-hatch2)}.svg-plot-h3{mask:url(#svg-plot-hatch3)}#svg-plot-hatch2-pattern{stroke-width:0.9px}#svg-plot-hatch3-pattern{stroke-width:0.7px}svg{font-family:"Transport New",Arial,sans-serif;font-weight:300;}.svg-plot-label,.svg-plot-value{font-family:inherit;}.svg-plot-fill:hover{opacity:55%;}.svg-plot-h0{opacity:15%;}.svg-plot-fill.svg-plot-h0:hover{opacity:20%;}.svg-plot-fill.svg-plot-f0{fill:#005AB0;}text.svg-plot-f0{fill:#006AA0;}.svg-plot-fill.svg-plot-f4{fill:#EDB410;}</style><script href="/style/svg-plot/style.js"/></svg>